<svg id="Layer_1" data-name="Layer 1" xmlns="http://www.w3.org/2000/svg" viewBox="0 0 746.22 764.77"><defs><style>.cls-1{fill:#ffd640;}.cls-2{fill:#dfd0a7;stroke:#2e3192;stroke-width:2px;}.cls-2,.cls-3{stroke-miterlimit:10;}.cls-3{fill:#e0e1e2;stroke:#231f20;}.cls-4{fill:#e4ad8f;}.cls-5{fill:#f3b999;}.cls-6{fill:#f6cab0;}.cls-7{fill:#eac5ae;}.cls-8{fill:#fefdfd;}.cls-9{fill:#ee976b;}.cls-10{fill:#d58860;}.cls-11{fill:#87b271;}.cls-12{fill:#536d45;}.cls-13{fill:#87b171;}.cls-14{fill:#c16e49;}.cls-15{fill:#af6343;}.cls-16{fill:#ee9a6e;}.cls-17{fill:#698755;}.cls-18{fill:#d58a62;}.cls-19{fill:#c26e49;}</style></defs><rect class="cls-1" y="616.12" width="745.13" height="148.4"/><path class="cls-2" d="M698.47,1024.36V876.26" transform="translate(-590.47 -259.74)"/><path class="cls-2" d="M733.64,1024.36V876.26" transform="translate(-590.47 -259.74)"/><path class="cls-2" d="M1230,1024.51V876.4" transform="translate(-590.47 -259.74)"/><path class="cls-2" d="M1265.17,1024.51V876.4" transform="translate(-590.47 -259.74)"/><path class="cls-3" d="M1327.84,759.08H879.71s-78.9,70.19,0,115.24H1335.2s-66.27-50.25-11.57-116.1" transform="translate(-590.47 -259.74)"/><path class="cls-4" d="M1174.57,759.06h-85.13v-.58c1,0,1.91,0,2.86,0H1172c.87,0,1.73,0,2.6,0A3.93,3.93,0,0,0,1174.57,759.06Z" transform="translate(-590.47 -259.74)"/><path class="cls-5" d="M1089.44,758.6v.46h-85.13c0-.17,0-.33,0-.49l1.56,0h81.51C1088.05,758.54,1088.75,758.58,1089.44,758.6Z" transform="translate(-590.47 -259.74)"/><path class="cls-6" d="M1004.29,758.57c0,.16,0,.32,0,.49h-1a4.18,4.18,0,0,0,0-.5Z" transform="translate(-590.47 -259.74)"/><path class="cls-7" d="M1174.57,759.06a3.93,3.93,0,0,1,0-.49l1,0a4.34,4.34,0,0,0,0,.51Z" transform="translate(-590.47 -259.74)"/><path class="cls-8" d="M1175.62,759.06a4.34,4.34,0,0,1,0-.51l1-.1.07.61Z" transform="translate(-590.47 -259.74)"/><path class="cls-9" d="M1004.29,758.57h-1c-.59-.16-1.17-.33-1.76-.48-7.18-1.86-11.52-6.54-13.17-13.65a47.09,47.09,0,0,1-.67-7.25c-.34-4.85-.64-9.7-1-14.55,0-.35,0-.7,0-1-.23-4.34-.44-8.68-.7-13-.33-5.46-.69-10.92-1-16.37l-1-16.64-1.05-16.63q-.52-8.19-1-16.37l-1-16.64-1.05-16.63q-.51-8.06-1-16.11-.52-8.45-1.06-16.9-.51-8.19-1-16.37c-.13-2-.24-4-.36-6l3.65,0H1085.5l3.39,0c.77,1.09.54,2.34.54,3.54q0,100.47,0,201v.12c-.69,0-1.39-.06-2.08-.06h-81.51Z" transform="translate(-590.47 -259.74)"/><path class="cls-10" d="M1089.44,758.48q0-100.47,0-201c0-1.2.23-2.45-.54-3.54l.56-.07c.79,0,1.57,0,2.35,0h107.63a12.24,12.24,0,0,0,1.82,0,9,9,0,0,0,1.46-.49l0,2.61,0,.88c-.67,2.28-.45,4.62-.47,6.94l-.06,1.4c-.67,2.28-.44,4.63-.47,7,0,.46,0,.93,0,1.39-.68,2.29-.45,4.63-.48,7l0,.92a3.71,3.71,0,0,0-.31,1c-.08,2.15-.13,4.3-.18,6.45,0,.31,0,.61,0,.91a4.63,4.63,0,0,0-.31,1c-.08,2.15-.12,4.31-.18,6.46l0,.9a3.71,3.71,0,0,0-.31,1c-.08,2.15-.13,4.32-.19,6.48l0,.88c-.67,2.28-.45,4.62-.47,6.94,0,.46,0,.93,0,1.4-.67,2.28-.45,4.62-.48,6.95,0,.46,0,.93,0,1.39-.68,2.29-.45,4.63-.48,7l0,.92a3.53,3.53,0,0,0-.31,1c-.09,2.15-.13,4.31-.19,6.46l0,.91a3.76,3.76,0,0,0-.31,1c-.08,2.16-.13,4.32-.19,6.47,0,.3,0,.6,0,.9a4.08,4.08,0,0,0-.32,1c-.08,2.16-.12,4.32-.18,6.49l0,.88c-.67,2.28-.45,4.62-.47,6.94,0,.46,0,.93,0,1.4-.68,2.28-.46,4.62-.48,7l0,.93c-.7,2.44-.47,4.94-.5,7.42l0,.92a3.53,3.53,0,0,0-.31,1c-.08,2.15-.13,4.31-.18,6.46l0,.91a3.53,3.53,0,0,0-.31,1c-.09,2.16-.13,4.32-.19,6.47l0,.89a3.71,3.71,0,0,0-.31,1c-.08,2.16-.13,4.32-.19,6.49,0,.29,0,.58,0,.87-.68,2.28-.46,4.62-.48,7,0,.46,0,.93,0,1.39-.67,2.29-.45,4.63-.47,7,0,.31,0,.62,0,.92a4.12,4.12,0,0,0-.31,1c-.08,2.15-.12,4.3-.18,6.45l0,.91a3.71,3.71,0,0,0-.31,1c-.09,2.15-.13,4.31-.19,6.46l0,.9c-.66,1.75-.38,3.57-.47,5.36a.33.33,0,0,0,0,.4c-.18.73-.37,1.46-.55,2.2l0,0c-.15.37-.3.73-.46,1.1a.25.25,0,0,0-.09.32c-.18.41-.37.81-.55,1.22l0-.05-.71,1.07c-.1.17-.2.34-.29.51l-.75,1.06c-1,1-2,2-2.93,3l-1.56,1.18,0,0-1.64,1,0,0-2.63,1.1,0,0c-.74.08-1.53-.07-2.12.56l0,0-1,.1-1,0c-.87,0-1.73,0-2.6,0H1092.3C1091.35,758.53,1090.39,758.5,1089.44,758.48Z" transform="translate(-590.47 -259.74)"/><path class="cls-11" d="M1199.72,336.36a.48.48,0,0,0,.46-.09l1.23-.4a.21.21,0,0,0,.32-.06l1.72-.47a.29.29,0,0,0,.37-.06l2.1-.11a22.16,22.16,0,0,1-1,2.35c-2.43,4.32-4.91,8.6-7.36,12.9q-3.54,6.22-7.08,12.46l-8,14q-3.75,6.55-7.5,13.12-3.56,6.21-7.1,12.45c-2.57,4.53-5.11,9.08-7.69,13.61s-5.09,8.89-7.63,13.34-4.94,8.78-7.44,13.15c-3.8,6.64-7.63,13.25-11.41,19.89-3.32,5.81-6.56,11.66-9.88,17.47-4.81,8.45-9.67,16.88-14.5,25.31-1.21,0-2.41.1-3.62.11l-16.28.09c-1,0-1.91-.06-2.86-.07l-7-.1c.15-1.55.31-3.1.45-4.66.22-2.5.31-5,.67-7.5.54-3.68,1.27-7.33,1.92-11a152.71,152.71,0,0,1,5.63-21.88c1.12-3.37,2.21-6.76,3.32-10.14h0a29.11,29.11,0,0,0,2.68-6.78,8.32,8.32,0,0,0,.69-1.09,209.32,209.32,0,0,1,10.69-21.73q2.29-4.08,4.76-8.07c1.86-3,3.73-6.07,5.76-9,3.31-4.78,6.7-9.51,10.45-14,2.45-2.92,4.91-5.85,7.45-8.7,2.13-2.4,4.39-4.7,6.57-7.05a5.69,5.69,0,0,0,.59-.86,1.35,1.35,0,0,0,1.13-1h0a7.44,7.44,0,0,0,2.92-2.73l3.79-3.62a1.47,1.47,0,0,0,1.44-1.07l2.22-2.06a.7.7,0,0,0,.9-.55l1.72-1.57a.67.67,0,0,0,.88-.52l1.21-1.08a1.43,1.43,0,0,0,1.43-1l1.17-1a.68.68,0,0,0,.93-.54l.65-.56a.65.65,0,0,0,.87-.49l1.21-1a.69.69,0,0,0,1-.53l.62-.53a.68.68,0,0,0,.93-.52l.64-.53a.67.67,0,0,0,.93-.51l.64-.53a.85.85,0,0,0,1.07-.48h0l.85-.57.7-.56a.65.65,0,0,0,.91-.48l1.71-1.09a.86.86,0,0,0,1-.45h0l.86-.54,1.74-1.08a.87.87,0,0,0,1.08-.44h0l1-.54h0l1-.53h0l1-.52h0l1-.51h0l1-.52h0l1.06-.52h0l1.18-.51a.35.35,0,0,0,.38-.12l1-.47,0,0,1-.48h0l1.15-.49a.42.42,0,0,0,.42-.12l1-.44h0L1192,339a.34.34,0,0,0,.38-.11l1.06-.45h0l1.54-.54h0a1.79,1.79,0,0,0,1.55-.51h0a1.79,1.79,0,0,0,1.55-.51h0Z" transform="translate(-590.47 -259.74)"/><path class="cls-12" d="M1091.54,450.1c-1.11,3.38-2.2,6.77-3.32,10.14a152.71,152.71,0,0,0-5.63,21.88c-.65,3.67-1.38,7.32-1.92,11-.36,2.48-.45,5-.67,7.5-.14,1.56-.3,3.11-.45,4.66-1.21,0-2.41.1-3.62.1-4.73,0-9.47-.07-14.21-.1-.13-.32-.3-.63-.41-1q-4.72-13.65-9.44-27.31l-9.21-26.56q-4.53-13-9.05-26.08l-9.8-28.29-9-26.07q-5.7-16.49-11.4-33c-1.25-3.6-2.57-7.18-3.86-10.77l.16-.86,0,0,1-.1a1.6,1.6,0,0,0,1.44.6l1.14.52h0l1,.5h0l1,.5h0l1,.51h0l1,.51h0l1,.53h0l1,.55h0l1,.64,1.63.9,1,.63,1.59.94,1,.65.6.38,1,.65.59.39,1,.66.58.39,1,.67.54.39,1,.74,1.1.81,1,.74,1.66,1.34,1,.69,1.64,1.4,1,.77,2.67,2.37,1.51,1.29,7.25,7.11.23.5c1.11,1.21,2.2,2.43,3.33,3.61a129.86,129.86,0,0,1,9.11,11,178.14,178.14,0,0,1,10.12,14.85,192.29,192.29,0,0,1,9.68,17.56c2.53,5.24,4.81,10.6,7,16a177.21,177.21,0,0,1,6.82,19.67c.6,2.17,1.26,4.33,1.89,6.49,0,.38.07.77.11,1.16h.33c0-.4,0-.8,0-1.19,0-1.22,0-2.44,0-3.66V264.79c0-1.47,0-3,.06-4.43v-.21l1,.07,1.08,1,2,1.81,3,2.95c.6.67,1.21,1.34,1.81,2l2.91,3.2,1.26,1.53,1.33,1.6.76,1c.29.36.58.73.88,1.09l.7,1,.86,1.12.7,1c.27.36.53.73.79,1.1s.51.69.76,1l.34.52.71,1,.35.54.7,1,.34.55.7,1,.3.53.72,1v0l.57,1,.33.59.69,1v0l.56,1,.31.58.69,1,0,0,.57,1h0l.54,1,.27.58.69,1.08,0,0c.2.35.39.71.58,1.07l0-.05.57,1.08,0,0c.19.36.37.72.56,1.07l0,0,.55,1.07,0,0,.54,1.08,0,0,.54,1.08,0,0c.17.37.35.73.53,1.1l0,0c.18.36.35.73.53,1.1l0-.05.57,1.22c-.07.14,0,.25.11.3l.12,1a24.14,24.14,0,0,0-2.21-1.71,8.09,8.09,0,0,1-4-8.56c0-.25.06-.5.08-.74-2.74-.84-2.74-.84-3.06-3.55a5.08,5.08,0,0,1-2.13-2.37c-.09-.14-.2-.28-.3-.42-1.47-2.14-2.94-4.29-4.42-6.42a4,4,0,0,1-.86-1.86,2.16,2.16,0,0,0-1.64-2.09,1.45,1.45,0,0,1-.83-.91,2.81,2.81,0,0,0-1.42-1.76,1.92,1.92,0,0,1-.73-1,2.09,2.09,0,0,0-1.08-1.39,1.92,1.92,0,0,1-1.07-1.92,11.59,11.59,0,0,0-.2-1.51l-1.14-.22c-2.14-.41-2.67-1-2.82-3,0-.35,0-.7,0-1a2,2,0,0,0-.26-1,9,9,0,0,0-2.29-2.05,3.27,3.27,0,0,0-2.93.15c-.29,2-.46,178.37-.17,182.66,0,.1.22.18.42.33,1-1,1.28-2.4,2-3.67l1.79-.1a29.11,29.11,0,0,1-2.68,6.78c-.07-.41-.13-.82-.24-1.22,0-.06-.32-.12-.42-.06s-.24.34-.19.4A11.77,11.77,0,0,0,1091.54,450.1Z" transform="translate(-590.47 -259.74)"/><path class="cls-12" d="M1109.31,505.25c4.83-8.43,9.69-16.86,14.5-25.31,3.32-5.81,6.56-11.66,9.88-17.47,3.78-6.64,7.61-13.25,11.41-19.89,2.5-4.37,5-8.77,7.44-13.15s5.1-8.88,7.63-13.34,5.12-9.08,7.69-13.61q3.54-6.24,7.1-12.45,3.74-6.57,7.5-13.12l8-14q3.55-6.22,7.08-12.46c2.45-4.3,4.93-8.58,7.36-12.9a22.16,22.16,0,0,0,1-2.35,1.09,1.09,0,0,0,.13-.34.28.28,0,0,0,.39-.12c1-.2,1,.75,1.5,1.17l0-.05c.18.58.36,1.15.55,1.73a.21.21,0,0,0,.08.33l.48,1.59h0l.48,1.75a.19.19,0,0,0,.07.32l.45,1.77a.19.19,0,0,0,.07.32,2.92,2.92,0,0,0,.49,2.13v0a4.62,4.62,0,0,0,.53,2.68.35.35,0,0,0,.06.45,3.37,3.37,0,0,0,.43,2.3l-.08.16.12.13a6.55,6.55,0,0,0,.49,3.36l.07.83a10.83,10.83,0,0,0,.46,4.31l.06.9a7.2,7.2,0,0,0-.06,1c.29,6,.28,12,0,18,0,.43,0,.86,0,1.28l-.07,1.37a13.76,13.76,0,0,0-.48,4.9.24.24,0,0,0,0,.37,8.67,8.67,0,0,0-.48,3.81.22.22,0,0,0,0,.36,6.42,6.42,0,0,0-.5,3.29l-.12.14.08.17a5,5,0,0,0-.49,2.83l-.11.12.08.15a3.35,3.35,0,0,0-.46,2.33.23.23,0,0,0,0,.37,3.16,3.16,0,0,0-.47,2.24.22.22,0,0,0-.06.35,3.25,3.25,0,0,0-.49,2.25v0a2.93,2.93,0,0,0-.49,2.11.22.22,0,0,0-.07.35c-.18.74-.36,1.49-.55,2.24l0-.05a3.12,3.12,0,0,0-.56,2.13l0-.05a1.88,1.88,0,0,0-.46,1.65l-.13.12.07.15-.51,1.8,0,0a1.8,1.8,0,0,0-.48,1.61.18.18,0,0,0-.08.31c-.17.59-.35,1.17-.53,1.75l0,0-.51,1.62v0l-.51,1.6h0c-.18.53-.35,1.05-.52,1.58h0c-.17.52-.35,1-.52,1.56h0l-.54,1.57v0c-.19.53-.37,1.05-.55,1.57v0l-.57,1.58,0,0-.6,1.58,0-.05-.45,1.13h0l-.59,1.56,0-.05c-.15.37-.3.75-.46,1.12h0l-.6,1.54,0,0c-.15.37-.31.73-.47,1.1h0l-.63,1.53,0,0c-.17.38-.33.75-.5,1.12l0,0-.48,1.09h0l-.65,1.51,0-.05-.51,1.11,0,0c-.16.36-.33.73-.5,1.09v0l-.5,1.07h0l-.5,1.06v0l-.69,1.47,0,0-.54,1.1,0,0-.54,1.09,0,0c-.18.36-.36.73-.55,1.09l0,0-.56,1.08,0,0c-.19.36-.38.72-.56,1.09l0-.05-.56,1.08,0,0-.57,1.08,0-.05-.57,1.08,0,0c-.31.56-.62,1.12-.92,1.68h0c-.18.34-.36.68-.55,1h0l-.57,1,0,0-.57,1.06,0,0-.58,1.07,0,0-1,1.66h0l-.57,1,0,0-.62,1,0,0-1,1.64h0c-.21.34-.42.68-.62,1l0,0c-.34.54-.67,1.09-1,1.64l0,0-1,1.61h0l-.63,1,0,0-1,1.61,0,0c-.35.54-.7,1.07-1.06,1.6l0,0-1.08,1.58,0,0-1.16,1.59-.35.53-.74,1-.31.5-1.11,1.6,0,0-1.23,1.58-.32.48-1.23,1.6-.33.49-1.24,1.6-.33.48-1.72,2.13-.37.48-1.74,2.13-.86,1-1.75,2.09-1.38,1.57-2.3,2.61-1.38,1.52-.72.68c-.93.66-2,.44-3,.44h-41.37C1111.21,505.38,1110.26,505.3,1109.31,505.25Z" transform="translate(-590.47 -259.74)"/><path class="cls-11" d="M999.52,326.26c1.29,3.59,2.61,7.17,3.86,10.77q5.72,16.49,11.4,33l9,26.07,9.8,28.29q4.53,13,9.05,26.08l9.21,26.56q4.73,13.67,9.44,27.31c.11.33.28.64.41,1-.6,0-1.21.09-1.82.09h-37c-.78,0-1.56-.1-2.34-.15l-.57-.79c-.15-.19-.29-.38-.44-.56a1,1,0,0,0-.55-1.1v0c-.34-.54-.69-1.07-1-1.6l0,0c-.19-.3-.39-.6-.58-.91l-.49-.61a1,1,0,0,0-.53-1.1v0l-1-1.62,0,0-.58-1v0l-.57-.92-.45-.6a1,1,0,0,0-.54-1.13l0,0c-.19-.35-.38-.7-.58-1.05l0,0-.56-1h0l-1-1.65,0,0-.57-1.07,0,0-.57-1.07,0,0-.56-1.06,0,0-.55-1.07,0,0-.54-1.07v0l-.54-1.06,0,0-.54-1.07,0,0-.54-1.08,0,0-.53-1.08,0,0-.54-1.08,0,0c-.18-.37-.36-.73-.53-1.1l0,0-.54-1.09,0,0c-.22-.51-.43-1-.64-1.53h0l-.5-1.07,0,0c-.17-.36-.34-.73-.52-1.09l0,0c-.17-.36-.35-.73-.52-1.1l0,.05c-.21-.52-.42-1-.62-1.56v0l-.5-1.1,0,0-.6-1.53h0l-.48-1.09,0,0-.58-1.54h0l-.48-1.1,0,0-.58-1.57h0l-.48-1.11,0,.05a1.83,1.83,0,0,0-.58-1.59l0,0a1.91,1.91,0,0,0-.56-1.59v0c-.18-.53-.37-1-.55-1.58h0l-.46-1.11,0,.05a1.87,1.87,0,0,0-.58-1.59l0,0a1.85,1.85,0,0,0-.55-1.6l0,0a1.86,1.86,0,0,0-.54-1.61l0,0-.54-1.73a.25.25,0,0,0-.08-.34,1.84,1.84,0,0,0-.49-1.59v0a1.88,1.88,0,0,0-.51-1.61l0,0a2.87,2.87,0,0,0-.58-2.08h0a1.87,1.87,0,0,0-.49-1.61l0,0a2.88,2.88,0,0,0-.56-2.1v0a2.86,2.86,0,0,0-.54-2.1v0a2.89,2.89,0,0,0-.53-2.11v0a2.91,2.91,0,0,0-.52-2.12v0a3.22,3.22,0,0,0-.51-2.24.27.27,0,0,0-.06-.36,2.79,2.79,0,0,0-.49-2.13l0,0a4.13,4.13,0,0,0-.54-2.64l0,0a4.62,4.62,0,0,0-.53-2.73.32.32,0,0,0,0-.39,4.16,4.16,0,0,0-.5-2.65l0,0a6.13,6.13,0,0,0-.53-3.24.32.32,0,0,0,0-.4,6,6,0,0,0-.48-3.26.32.32,0,0,0,0-.39,8.33,8.33,0,0,0-.49-3.8.27.27,0,0,0,0-.37,13.31,13.31,0,0,0-.5-4.86l0-.89c0-1.3,0-2.6-.08-3.9-.06-1-.26-2-.4-3.06,0-.64,0-1.27,0-1.91v-12c0-.64,0-1.27,0-1.91.65-2.29.44-4.64.5-7a.3.3,0,0,0,0-.39,10.09,10.09,0,0,0,.48-4.29l.06-.86a6.25,6.25,0,0,0,.48-3.33.26.26,0,0,0,0-.36,4.56,4.56,0,0,0,.46-2.76.33.33,0,0,0,.05-.41,4.62,4.62,0,0,0,.52-2.73.2.2,0,0,0,0-.31,3.41,3.41,0,0,0,.49-2.28v0a2.85,2.85,0,0,0,.48-2.12.31.31,0,0,0,.07-.38,3.28,3.28,0,0,0,.53-2.22l0,0a1.83,1.83,0,0,0,.46-1.61.31.31,0,0,0,.07-.38c.17-.57.33-1.14.49-1.71h0a3,3,0,0,0,.58-2.08l0,0a1.86,1.86,0,0,0,.53-1.6l0,0a1.91,1.91,0,0,0,.54-1.6l0,0a1.88,1.88,0,0,0,.54-1.59v0a1.86,1.86,0,0,0,.56-1.58l0,0c.15-.37.3-.74.46-1.1a.23.23,0,0,0,.08-.31c.16-.42.33-.83.5-1.25l0,0,.47-1.08a.23.23,0,0,0,.09-.32l.52-1.23,0,0,.49-1.09h0l.49-1.06v0c.21-.51.43-1,.64-1.51l0,.05c.18-.37.36-.73.55-1.09l0,0,.56-1.09,0,0c.18-.36.37-.72.56-1.08l0,0a1,1,0,0,0,.52-1.14l.45-.64h.44Z" transform="translate(-590.47 -259.74)"/><path class="cls-12" d="M1094.21,443.33l-1.79.1c-.68,1.27-1,2.66-2,3.67-.2-.15-.42-.23-.42-.33-.29-4.29-.12-180.65.17-182.66a3.27,3.27,0,0,1,2.93-.15,9,9,0,0,1,2.29,2.05,2,2,0,0,1,.26,1c0,.34,0,.69,0,1,.15,2.07.68,2.64,2.82,3l1.14.22a11.59,11.59,0,0,1,.2,1.51,1.92,1.92,0,0,0,1.07,1.92,2.09,2.09,0,0,1,1.08,1.39,1.92,1.92,0,0,0,.73,1,2.81,2.81,0,0,1,1.42,1.76,1.45,1.45,0,0,0,.83.91,2.16,2.16,0,0,1,1.64,2.09,4,4,0,0,0,.86,1.86c1.48,2.13,3,4.28,4.42,6.42.1.14.21.28.3.42a5.08,5.08,0,0,0,2.13,2.37c.32,2.71.32,2.71,3.06,3.55,0,.24,0,.49-.08.74a8.09,8.09,0,0,0,4,8.56,24.14,24.14,0,0,1,2.21,1.71,1,1,0,0,1,.36.06v0l.49,1.08v0l.5,1.1,0,0c.18.41.36.83.53,1.25l0,.17.14.12c.15.36.31.71.46,1.07v0l.48,1.12,0-.05c.21.51.41,1,.62,1.54h0l.46,1.12,0-.05c.2.52.4,1,.61,1.56v0l.48,1.25a.19.19,0,0,0,.1.31l.44,1.11,0-.05c.19.53.38,1.05.58,1.58l0,0c.19.52.37,1,.55,1.56h0l.54,1.56h0l.45,1.29-.05.16.12.11c.17.52.34,1,.52,1.57h0l.51,1.59v0l.51,1.61v0l.51,1.72a.25.25,0,0,0,.09.36l.48,1.58h0c.17.57.33,1.14.49,1.71a.25.25,0,0,0,.08.37l.47,1.61,0,0a3,3,0,0,0,.55,2.1v0a2.92,2.92,0,0,0,.53,2.1h0a2.94,2.94,0,0,0,.52,2.11v0a3.22,3.22,0,0,0,.51,2.2.29.29,0,0,0,.07.4,2.22,2.22,0,0,0,.44,1.81l-.08.15.12.12a3.33,3.33,0,0,0,.48,2.28.2.2,0,0,0,.06.33,3.35,3.35,0,0,0,.46,2.29l-.06.17.11.15a4.36,4.36,0,0,0,.51,2.65v0a5,5,0,0,0,.5,2.81l-.08.17.12.14a4.92,4.92,0,0,0,.48,2.87l.08.79a5,5,0,0,0,.44,2.84l.08.81a6.48,6.48,0,0,0,.45,3.29l.08.88v1.07a5.69,5.69,0,0,1-.59.86c-2.18,2.35-4.44,4.65-6.57,7.05-2.54,2.85-5,5.78-7.45,8.7-3.75,4.45-7.14,9.18-10.45,14-2,2.92-3.9,6-5.76,9q-2.46,4-4.76,8.07a209.32,209.32,0,0,0-10.69,21.73A8.32,8.32,0,0,1,1094.21,443.33Z" transform="translate(-590.47 -259.74)"/><path class="cls-9" d="M1020.52,505.22c.78,0,1.56.15,2.34.15h37c.61,0,1.22-.06,1.82-.09,4.74,0,9.48.08,14.21.1,1.21,0,2.41-.07,3.62-.1l7,.1c1,0,1.91.05,2.86.07l0,39c-.35,0-.69.08-1,.08l-31.88,0c-.88-.86-2-.47-3-.48q-43.12,0-86.24,0c-.95,0-1.91,0-2.86.06a6.08,6.08,0,0,1-5.1-5.44,20.75,20.75,0,0,1-.06-2.09q0-11.73,0-23.47a18,18,0,0,1,.06-2.08,6.08,6.08,0,0,1,2.73-4.54c.64-.43,1.36-.76,2-1.14,2.16,0,4.33,0,6.49,0h46.79C1018.44,505.28,1019.48,505.24,1020.52,505.22Z" transform="translate(-590.47 -259.74)"/><path class="cls-10" d="M1089.44,544.47l0-39,16.28-.09c1.21,0,2.41-.07,3.62-.11,1,.05,1.9.13,2.85.13h41.37c1,0,2.1.22,3-.44a5.72,5.72,0,0,0,3.06.32q24.59,0,49.17,0c2,0,4,.05,6,.08a.5.5,0,0,0,.44.09l1.11.62.56.39,1.56,1.57c.12.19.23.38.35.56l.64,1.19a.25.25,0,0,0,.07.34c0,7.65,0,15.3,0,23,0,2.26-.07,4.52-.11,6.78l0,0c-.17.36-.33.72-.49,1.09h0l-.68,1-1.46,1.42-1,.67,0,0-1.38.11c-1,0-1.91-.05-2.87-.05H1103.41a20.63,20.63,0,0,0-2.08,0,3,3,0,0,0-.9.44l-11,.1Z" transform="translate(-590.47 -259.74)"/><path class="cls-13" d="M1088.92,443.83c-.63-2.16-1.29-4.32-1.89-6.49a177.21,177.21,0,0,0-6.82-19.67c-2.19-5.38-4.47-10.74-7-16a192.29,192.29,0,0,0-9.68-17.56,178.14,178.14,0,0,0-10.12-14.85,129.86,129.86,0,0,0-9.11-11c-1.13-1.18-2.22-2.4-3.33-3.61a.85.85,0,0,0,.93-.9c0-.4,0-.81.06-1.22l0,0a4.13,4.13,0,0,0,.55-2.64l0,0a2.86,2.86,0,0,0,.5-2.14.23.23,0,0,0,0-.33c.14-.58.29-1.16.44-1.75a.33.33,0,0,0,.07-.39,3.15,3.15,0,0,0,.52-2.21l0,0a2.87,2.87,0,0,0,.55-2.12l0,0a2.81,2.81,0,0,0,.56-2.11l0,0a1.83,1.83,0,0,0,.48-1.62.21.21,0,0,0,.06-.32l.51-1.76,0,0a1.83,1.83,0,0,0,.49-1.61.22.22,0,0,0,.07-.32c.17-.58.35-1.16.52-1.75l0,0a1.85,1.85,0,0,0,.52-1.61l0,0a1.87,1.87,0,0,0,.52-1.6v0c.18-.53.35-1.06.53-1.58h0c.18-.53.36-1.05.53-1.58h0c.17-.52.35-1.05.53-1.57h0c.19-.52.37-1.05.55-1.57v0c.18-.53.37-1.06.56-1.58l0,0,.45-1.09a.24.24,0,0,0,.09-.33c.16-.41.32-.82.49-1.23v0c.19-.53.38-1,.58-1.57l0,0,.48-1.1h0c.2-.52.39-1,.59-1.55l0,0c.17-.37.33-.74.5-1.1h0c.2-.52.41-1,.61-1.55l0,0,.51-1.1,0,0,.51-1.08h0c.16-.36.33-.71.49-1.07v0l.63-1.51,0,0c.18-.36.36-.73.53-1.09l0,0c.17-.36.35-.72.53-1.08l0,0c.18-.36.36-.72.53-1.08v0c.17-.36.35-.72.53-1.07l0,0,.54-1.07,0,0,.54-1.06v0l.54-1.06,0,0,.56-1.06,0,0,.55-1.07,0,0,.57-1.08,0,0a1,1,0,0,0,.53-1.13l.45-.62c.19-.3.38-.61.56-.92v0l.57-1.05,0,0a1,1,0,0,0,.53-1.12c.15-.21.31-.41.46-.61l.58-.92,0,0a1,1,0,0,0,.55-1.1l.46-.59a.78.78,0,0,0,.53-1l.51-.65.59-.88,0,0,1-1.59v0a1.9,1.9,0,0,0,1-1.61l.55-.66a.73.73,0,0,0,.52-.91l.52-.62a.79.79,0,0,0,.58-1l1-1.17a.74.74,0,0,0,.55-.91l1-1.17a.75.75,0,0,0,.57-.92l1.51-1.7a.74.74,0,0,0,.59-.91l2-2.2a2.7,2.7,0,0,0,1.6-2q3.95-4,7.89-8c.1-.1.31-.1.46-.15,0,1.48-.06,3-.06,4.43V440.13c0,1.22,0,2.44,0,3.66A3.88,3.88,0,0,1,1088.92,443.83Z" transform="translate(-590.47 -259.74)"/><path class="cls-14" d="M1056.52,544.53l31.88,0c.35,0,.69,0,1-.08v.15q0,4.65,0,9.3l-.56.07-3.39,0H979.83l-3.65,0q-.34-4.68-.7-9.36l3.39,0h74.52Z" transform="translate(-590.47 -259.74)"/><path class="cls-15" d="M1089.45,553.92q0-4.65,0-9.3l11-.1c1.13,0,2.26,0,3.39,0h99.54c0,1.22,0,2.43-.07,3.64,0,.3,0,.59,0,.89l-.54,4.34a9,9,0,0,1-1.46.49,12.24,12.24,0,0,1-1.82,0H1091.8C1091,554,1090.24,553.93,1089.45,553.92Z" transform="translate(-590.47 -259.74)"/><path class="cls-16" d="M1056.52,544.53l-3.13,0H978.87l-3.39,0c-2.85,0-5.7,0-8.55-.05a3.67,3.67,0,0,1-2.49-.44c.95,0,1.91-.06,2.86-.06q43.13,0,86.24,0C1054.53,544.06,1055.64,543.67,1056.52,544.53Z" transform="translate(-590.47 -259.74)"/><path class="cls-8" d="M1212.71,381.2c0-.42-.07-.85,0-1.28.27-6,.28-12,0-18a7.2,7.2,0,0,1,.06-1,4.93,4.93,0,0,1,.49,1.39q0,8.79,0,17.57A4.82,4.82,0,0,1,1212.71,381.2Z" transform="translate(-590.47 -259.74)"/><path class="cls-8" d="M985,383.29v12c-.17-.37-.49-.74-.5-1.12q-.06-4.87,0-9.77C984.5,384,984.82,383.66,985,383.29Z" transform="translate(-590.47 -259.74)"/><path class="cls-8" d="M1193.35,704.79c.06-2.17.11-4.33.19-6.49a3.71,3.71,0,0,1,.31-1c0,1.95,0,3.91,0,5.86A1.7,1.7,0,0,1,1193.35,704.79Z" transform="translate(-590.47 -259.74)"/><path class="cls-8" d="M1196.49,655.21c.06-2.17.1-4.33.18-6.49a4.08,4.08,0,0,1,.32-1c0,2,0,3.9,0,5.85A1.74,1.74,0,0,1,1196.49,655.21Z" transform="translate(-590.47 -259.74)"/><path class="cls-8" d="M1194.93,679.73c0-2.48-.2-5,.5-7.42l0,5.82C1195.46,678.72,1195.49,679.32,1194.93,679.73Z" transform="translate(-590.47 -259.74)"/><path class="cls-8" d="M1200.68,588.92c0-2.15.1-4.3.18-6.45a3.71,3.71,0,0,1,.31-1c0,2,0,3.89,0,5.83A1.74,1.74,0,0,1,1200.68,588.92Z" transform="translate(-590.47 -259.74)"/><path class="cls-8" d="M1197,646.85c.06-2.15.11-4.31.19-6.47a3.76,3.76,0,0,1,.31-1c0,2,0,3.89,0,5.84C1197.55,645.84,1197.58,646.45,1197,646.85Z" transform="translate(-590.47 -259.74)"/><path class="cls-8" d="M1199.62,605.63c.06-2.16.11-4.33.19-6.48a3.71,3.71,0,0,1,.31-1c0,2,0,3.9,0,5.85A1.7,1.7,0,0,1,1199.62,605.63Z" transform="translate(-590.47 -259.74)"/><path class="cls-8" d="M1200.15,597.27c.06-2.15.1-4.31.18-6.46a4.63,4.63,0,0,1,.31-1c0,1.95,0,3.89,0,5.84A1.69,1.69,0,0,1,1200.15,597.27Z" transform="translate(-590.47 -259.74)"/><path class="cls-8" d="M1193.88,696.43c.06-2.15.1-4.31.19-6.47a3.53,3.53,0,0,1,.31-1c0,1.94,0,3.89,0,5.84C1194.42,695.42,1194.44,696,1193.88,696.43Z" transform="translate(-590.47 -259.74)"/><path class="cls-8" d="M1197.54,638.5c.06-2.15.1-4.31.19-6.46a3.53,3.53,0,0,1,.31-1l0,5.83A1.7,1.7,0,0,1,1197.54,638.5Z" transform="translate(-590.47 -259.74)"/><path class="cls-8" d="M1191.8,729.31c.06-2.15.1-4.3.18-6.45a4.12,4.12,0,0,1,.31-1c0,1.94,0,3.89,0,5.83A1.74,1.74,0,0,1,1191.8,729.31Z" transform="translate(-590.47 -259.74)"/><path class="cls-8" d="M1191.27,737.66c.06-2.15.1-4.31.19-6.46a3.71,3.71,0,0,1,.31-1c0,1.95,0,3.89,0,5.84A1.73,1.73,0,0,1,1191.27,737.66Z" transform="translate(-590.47 -259.74)"/><path class="cls-8" d="M1194.41,688.08c0-2.15.1-4.31.18-6.46a3.53,3.53,0,0,1,.31-1c0,1.94,0,3.88,0,5.83C1194.94,687.07,1195,687.67,1194.41,688.08Z" transform="translate(-590.47 -259.74)"/><path class="cls-8" d="M1195.46,671.38c0-2.33-.2-4.67.48-7,0,1.78,0,3.56,0,5.33C1196,670.36,1196,671,1195.46,671.38Z" transform="translate(-590.47 -259.74)"/><path class="cls-8" d="M1198.07,630.15c0-2.33-.2-4.67.48-7,0,1.78,0,3.56,0,5.35C1198.6,629.13,1198.63,629.74,1198.07,630.15Z" transform="translate(-590.47 -259.74)"/><path class="cls-8" d="M1198.59,621.8c0-2.33-.19-4.67.48-6.95,0,1.78,0,3.56,0,5.34A1.75,1.75,0,0,1,1198.59,621.8Z" transform="translate(-590.47 -259.74)"/><path class="cls-8" d="M985.53,374.41c-.06,2.33.15,4.68-.5,7,0-1.78,0-3.57,0-5.35C985,375.43,985,374.82,985.53,374.41Z" transform="translate(-590.47 -259.74)"/><path class="cls-8" d="M985,397.21c.14,1,.34,2,.4,3.06.08,1.3.06,2.6.08,3.9-.56-.41-.53-1-.53-1.62C985,400.77,985,399,985,397.21Z" transform="translate(-590.47 -259.74)"/><path class="cls-8" d="M1192.85,712.61c0-2.33-.2-4.67.48-7,0,1.78,0,3.56,0,5.33C1193.38,711.59,1193.41,712.19,1192.85,712.61Z" transform="translate(-590.47 -259.74)"/><path class="cls-8" d="M1199.12,613.45c0-2.32-.2-4.66.47-6.94,0,1.78,0,3.55.05,5.33A1.77,1.77,0,0,1,1199.12,613.45Z" transform="translate(-590.47 -259.74)"/><path class="cls-8" d="M1196,663c0-2.32-.2-4.66.47-6.94,0,1.77,0,3.55,0,5.33A1.77,1.77,0,0,1,1196,663Z" transform="translate(-590.47 -259.74)"/><path class="cls-8" d="M1192.33,721c0-2.33-.2-4.67.47-7,0,1.78,0,3.56,0,5.34C1192.85,719.94,1192.88,720.54,1192.33,721Z" transform="translate(-590.47 -259.74)"/><path class="cls-8" d="M1145.18,369.2a7.44,7.44,0,0,1-2.92,2.73A4.71,4.71,0,0,1,1145.18,369.2Z" transform="translate(-590.47 -259.74)"/><path class="cls-8" d="M1190.77,743.92c.09-1.79-.19-3.61.47-5.36,0,1.34.07,2.68,0,4A4.79,4.79,0,0,1,1190.77,743.92Z" transform="translate(-590.47 -259.74)"/><path class="cls-8" d="M985.55,405.06a13.31,13.31,0,0,1,.5,4.86,4.82,4.82,0,0,1-.52-1.34C985.47,407.41,985.54,406.24,985.55,405.06Z" transform="translate(-590.47 -259.74)"/><path class="cls-8" d="M1212.16,387.47a13.76,13.76,0,0,1,.48-4.9c0,1.18.09,2.37,0,3.55A4.56,4.56,0,0,1,1212.16,387.47Z" transform="translate(-590.47 -259.74)"/><path class="cls-8" d="M1212.65,360a10.83,10.83,0,0,1-.46-4.31,3.37,3.37,0,0,1,.48,1.09C1212.72,357.8,1212.67,358.88,1212.65,360Z" transform="translate(-590.47 -259.74)"/><path class="cls-8" d="M1158.66,502.74l2.3-2.61A3,3,0,0,1,1158.66,502.74Z" transform="translate(-590.47 -259.74)"/><path class="cls-8" d="M986,369.73a10.09,10.09,0,0,1-.48,4.29c0-1.07-.06-2.15,0-3.22A3.37,3.37,0,0,1,986,369.73Z" transform="translate(-590.47 -259.74)"/><path class="cls-8" d="M1211.65,391.65a8.67,8.67,0,0,1,.48-3.81c0,.91.07,1.83,0,2.73A3.35,3.35,0,0,1,1211.65,391.65Z" transform="translate(-590.47 -259.74)"/><path class="cls-8" d="M986.07,410.29a8.33,8.33,0,0,1,.49,3.8,3.68,3.68,0,0,1-.5-1.07C986,412.11,986.06,411.2,986.07,410.29Z" transform="translate(-590.47 -259.74)"/><path class="cls-8" d="M987.11,418.14a6.13,6.13,0,0,1,.53,3.24,3.37,3.37,0,0,1-.53-1A18.11,18.11,0,0,1,987.11,418.14Z" transform="translate(-590.47 -259.74)"/><path class="cls-8" d="M1141.09,370.93a6.48,6.48,0,0,1-.45-3.29,3.52,3.52,0,0,1,.47,1.08A18.13,18.13,0,0,1,1141.09,370.93Z" transform="translate(-590.47 -259.74)"/><path class="cls-8" d="M986.59,414.48a6,6,0,0,1,.48,3.26,3.62,3.62,0,0,1-.49-1.06A20.18,20.18,0,0,1,986.59,414.48Z" transform="translate(-590.47 -259.74)"/><path class="cls-8" d="M1081.12,268.47a2.7,2.7,0,0,1-1.6,2A2.47,2.47,0,0,1,1081.12,268.47Z" transform="translate(-590.47 -259.74)"/><path class="cls-8" d="M1098.31,268c-.6-.68-1.21-1.35-1.81-2A2.09,2.09,0,0,1,1098.31,268Z" transform="translate(-590.47 -259.74)"/><path class="cls-8" d="M1093.55,263l-2-1.81A2.1,2.1,0,0,1,1093.55,263Z" transform="translate(-590.47 -259.74)"/><path class="cls-8" d="M1212.12,354.81a6.55,6.55,0,0,1-.49-3.36,3.37,3.37,0,0,1,.51,1.09A21.51,21.51,0,0,1,1212.12,354.81Z" transform="translate(-590.47 -259.74)"/><path class="cls-8" d="M1162.34,498.56l1.75-2.09A2,2,0,0,1,1162.34,498.56Z" transform="translate(-590.47 -259.74)"/><path class="cls-8" d="M1165,495.43l1.74-2.13A2,2,0,0,1,1165,495.43Z" transform="translate(-590.47 -259.74)"/><path class="cls-8" d="M1167.06,492.82l1.72-2.13A2,2,0,0,1,1167.06,492.82Z" transform="translate(-590.47 -259.74)"/><path class="cls-8" d="M1211.11,395.3a6.42,6.42,0,0,1,.5-3.29,20.76,20.76,0,0,1,0,2.23A3.44,3.44,0,0,1,1211.11,395.3Z" transform="translate(-590.47 -259.74)"/><path class="cls-8" d="M986.56,365.54a6.25,6.25,0,0,1-.48,3.33,21.13,21.13,0,0,1,0-2.25A3.88,3.88,0,0,1,986.56,365.54Z" transform="translate(-590.47 -259.74)"/><path class="cls-8" d="M1178.69,758l2.63-1.1A2.51,2.51,0,0,1,1178.69,758Z" transform="translate(-590.47 -259.74)"/><path class="cls-8" d="M987.06,362.42a4.56,4.56,0,0,1-.46,2.76C986.66,364.24,986.19,363.22,987.06,362.42Z" transform="translate(-590.47 -259.74)"/><path class="cls-8" d="M1218.44,508l-1.56-1.57A1.46,1.46,0,0,1,1218.44,508Z" transform="translate(-590.47 -259.74)"/><path class="cls-8" d="M1211.1,348.41a4.62,4.62,0,0,1-.53-2.68,3.72,3.72,0,0,1,.53,1A10.47,10.47,0,0,1,1211.1,348.41Z" transform="translate(-590.47 -259.74)"/><path class="cls-8" d="M1042.49,349.9a4.13,4.13,0,0,1-.55,2.64,8,8,0,0,1,0-1.55A4.47,4.47,0,0,1,1042.49,349.9Z" transform="translate(-590.47 -259.74)"/><path class="cls-8" d="M1210.58,398.44a5,5,0,0,1,.49-2.83C1211,396.57,1211.51,397.63,1210.58,398.44Z" transform="translate(-590.47 -259.74)"/><path class="cls-8" d="M1042,352.51c0,.41,0,.82-.06,1.22a.85.85,0,0,1-.93.9l-.23-.5c.22-.3.44-.61.67-.91Z" transform="translate(-590.47 -259.74)"/><path class="cls-8" d="M1207.94,335.88c-.48-.42-.54-1.37-1.5-1.17,1.07-.55,1.35-.47,1.52.45A3.49,3.49,0,0,1,1207.94,335.88Z" transform="translate(-590.47 -259.74)"/><path class="cls-8" d="M1140.56,366.83a5,5,0,0,1-.44-2.84C1141,364.83,1140.51,365.87,1140.56,366.83Z" transform="translate(-590.47 -259.74)"/><path class="cls-8" d="M1139,357.24a4.36,4.36,0,0,1-.51-2.65C1139.4,355.34,1139,356.34,1139,357.24Z" transform="translate(-590.47 -259.74)"/><path class="cls-8" d="M987.62,421.35a4.16,4.16,0,0,1,.5,2.65C987.26,423.25,987.7,422.25,987.62,421.35Z" transform="translate(-590.47 -259.74)"/><path class="cls-8" d="M988.16,424.39a4.62,4.62,0,0,1,.53,2.73,3.59,3.59,0,0,1-.54-1A10.85,10.85,0,0,1,988.16,424.39Z" transform="translate(-590.47 -259.74)"/><path class="cls-8" d="M1139.52,360a5,5,0,0,1-.5-2.81,3.72,3.72,0,0,1,.52,1.06A10.23,10.23,0,0,1,1139.52,360Z" transform="translate(-590.47 -259.74)"/><path class="cls-8" d="M987.63,359.28a4.62,4.62,0,0,1-.52,2.73C987.19,361.09,986.7,360.05,987.63,359.28Z" transform="translate(-590.47 -259.74)"/><path class="cls-8" d="M1140,363.2a4.92,4.92,0,0,1-.48-2.87C1140.48,361.15,1140,362.23,1140,363.2Z" transform="translate(-590.47 -259.74)"/><path class="cls-8" d="M988.67,427.09a4.13,4.13,0,0,1,.54,2.64,4.26,4.26,0,0,1-.54-1.09A8,8,0,0,1,988.67,427.09Z" transform="translate(-590.47 -259.74)"/><path class="cls-8" d="M989.74,432.19a3.22,3.22,0,0,1,.51,2.24C989.39,433.84,989.76,433,989.74,432.19Z" transform="translate(-590.47 -259.74)"/><path class="cls-8" d="M1044.05,343.12a3.15,3.15,0,0,1-.52,2.21C1043.56,344.56,1043.19,343.69,1044.05,343.12Z" transform="translate(-590.47 -259.74)"/><path class="cls-8" d="M1210.58,345.76a2.92,2.92,0,0,1-.49-2.13C1210.86,344.2,1210.54,345,1210.58,345.76Z" transform="translate(-590.47 -259.74)"/><path class="cls-8" d="M1172.23,486l1.23-1.58A1.3,1.3,0,0,1,1172.23,486Z" transform="translate(-590.47 -259.74)"/><path class="cls-8" d="M1136.92,346.89a3.22,3.22,0,0,1-.51-2.2C1137.25,345.26,1136.89,346.12,1136.92,346.89Z" transform="translate(-590.47 -259.74)"/><path class="cls-8" d="M1069.12,284.16l-1,1.59A1.42,1.42,0,0,1,1069.12,284.16Z" transform="translate(-590.47 -259.74)"/><path class="cls-8" d="M1033.49,347l-1.51-1.29A1.37,1.37,0,0,1,1033.49,347Z" transform="translate(-590.47 -259.74)"/><path class="cls-8" d="M1180.81,473.56l1-1.61A1.42,1.42,0,0,1,1180.81,473.56Z" transform="translate(-590.47 -259.74)"/><path class="cls-8" d="M1181.81,472c.34-.55.67-1.1,1-1.64A1.31,1.31,0,0,1,1181.81,472Z" transform="translate(-590.47 -259.74)"/><path class="cls-8" d="M990.8,346.26a3,3,0,0,1-.58,2.08C990.29,347.61,989.93,346.76,990.8,346.26Z" transform="translate(-590.47 -259.74)"/><path class="cls-8" d="M1070.09,282.57a1.9,1.9,0,0,1-1,1.61A1.52,1.52,0,0,1,1070.09,282.57Z" transform="translate(-590.47 -259.74)"/><path class="cls-8" d="M990.24,434.4a2.91,2.91,0,0,1,.52,2.12C989.94,436,990.28,435.14,990.24,434.4Z" transform="translate(-590.47 -259.74)"/><path class="cls-8" d="M1102.48,272.69l-1.26-1.53A1.35,1.35,0,0,1,1102.48,272.69Z" transform="translate(-590.47 -259.74)"/><path class="cls-8" d="M1043,347.8a2.86,2.86,0,0,1-.5,2.14C1042.5,349.19,1042.18,348.37,1043,347.8Z" transform="translate(-590.47 -259.74)"/><path class="cls-8" d="M991.27,438.59a2.86,2.86,0,0,1,.54,2.1C991,440.16,991.33,439.32,991.27,438.59Z" transform="translate(-590.47 -259.74)"/><path class="cls-8" d="M1175.94,480.82l1.16-1.59A1.28,1.28,0,0,1,1175.94,480.82Z" transform="translate(-590.47 -259.74)"/><path class="cls-8" d="M1211.59,351.16a3.37,3.37,0,0,1-.43-2.3C1211.92,349.51,1211.58,350.37,1211.59,351.16Z" transform="translate(-590.47 -259.74)"/><path class="cls-8" d="M1138,351.65a3.33,3.33,0,0,1-.48-2.28C1138.29,350,1137.94,350.85,1138,351.65Z" transform="translate(-590.47 -259.74)"/><path class="cls-8" d="M1178.13,477.7c.36-.53.71-1.06,1.06-1.6A1.3,1.3,0,0,1,1178.13,477.7Z" transform="translate(-590.47 -259.74)"/><path class="cls-8" d="M1017.93,501.19c.35.53.7,1.06,1,1.6A1.44,1.44,0,0,1,1017.93,501.19Z" transform="translate(-590.47 -259.74)"/><path class="cls-8" d="M990.75,436.5a2.89,2.89,0,0,1,.53,2.11C990.47,438.06,990.8,437.23,990.75,436.5Z" transform="translate(-590.47 -259.74)"/><path class="cls-8" d="M1207.38,413a3.12,3.12,0,0,1,.56-2.13C1207.92,411.64,1208.3,412.5,1207.38,413Z" transform="translate(-590.47 -259.74)"/><path class="cls-8" d="M1015.34,497l1,1.62A1.39,1.39,0,0,1,1015.34,497Z" transform="translate(-590.47 -259.74)"/><path class="cls-8" d="M1183.39,469.37l1-1.64A1.3,1.3,0,0,1,1183.39,469.37Z" transform="translate(-590.47 -259.74)"/><path class="cls-8" d="M989.22,352a3.28,3.28,0,0,1-.53,2.22C988.72,353.43,988.35,352.56,989.22,352Z" transform="translate(-590.47 -259.74)"/><path class="cls-8" d="M1138.47,354.27A3.35,3.35,0,0,1,1138,352C1138.81,352.61,1138.46,353.48,1138.47,354.27Z" transform="translate(-590.47 -259.74)"/><path class="cls-8" d="M1207.91,410.93c.19-.75.37-1.5.55-2.24C1208.43,409.47,1208.83,410.36,1207.91,410.93Z" transform="translate(-590.47 -259.74)"/><path class="cls-8" d="M991.8,440.67a2.88,2.88,0,0,1,.56,2.1C991.49,442.25,991.85,441.4,991.8,440.67Z" transform="translate(-590.47 -259.74)"/><path class="cls-8" d="M1208.53,408.34a2.93,2.93,0,0,1,.49-2.11C1209,407,1209.29,407.78,1208.53,408.34Z" transform="translate(-590.47 -259.74)"/><path class="cls-8" d="M988.62,354.59a2.85,2.85,0,0,1-.48,2.12C988.18,356,987.87,355.16,988.62,354.59Z" transform="translate(-590.47 -259.74)"/><path class="cls-8" d="M1188.67,460c.3-.56.61-1.12.92-1.68A1.34,1.34,0,0,1,1188.67,460Z" transform="translate(-590.47 -259.74)"/><path class="cls-8" d="M1011.18,489.67l1,1.65A1.41,1.41,0,0,1,1011.18,489.67Z" transform="translate(-590.47 -259.74)"/><path class="cls-8" d="M988.15,356.69a3.41,3.41,0,0,1-.49,2.28C987.67,358.18,987.3,357.3,988.15,356.69Z" transform="translate(-590.47 -259.74)"/><path class="cls-8" d="M1209,406.25a3.25,3.25,0,0,1,.49-2.25C1209.49,404.78,1209.84,405.64,1209,406.25Z" transform="translate(-590.47 -259.74)"/><path class="cls-8" d="M1158.77,357.72a1.43,1.43,0,0,1-1.43,1A1.56,1.56,0,0,1,1158.77,357.72Z" transform="translate(-590.47 -259.74)"/><path class="cls-8" d="M1206.05,334.83a1.09,1.09,0,0,1-.13.34l-2.1.11C1204.44,334.5,1205.28,334.81,1206.05,334.83Z" transform="translate(-590.47 -259.74)"/><path class="cls-8" d="M1169.11,490.21l1.24-1.6A1.34,1.34,0,0,1,1169.11,490.21Z" transform="translate(-590.47 -259.74)"/><path class="cls-8" d="M1135.38,340.53a3,3,0,0,1-.55-2.1C1135.67,339,1135.32,339.79,1135.38,340.53Z" transform="translate(-590.47 -259.74)"/><path class="cls-8" d="M1170.68,488.12l1.23-1.6A1.33,1.33,0,0,1,1170.68,488.12Z" transform="translate(-590.47 -259.74)"/><path class="cls-8" d="M1150.41,364.51a1.47,1.47,0,0,1-1.44,1.07A1.53,1.53,0,0,1,1150.41,364.51Z" transform="translate(-590.47 -259.74)"/><path class="cls-8" d="M1045.11,339a2.81,2.81,0,0,1-.56,2.11C1044.6,340.32,1044.24,339.47,1045.11,339Z" transform="translate(-590.47 -259.74)"/><path class="cls-8" d="M1209.57,403.65a3.16,3.16,0,0,1,.47-2.24C1210,402.18,1210.35,403,1209.57,403.65Z" transform="translate(-590.47 -259.74)"/><path class="cls-8" d="M989.19,429.7a2.79,2.79,0,0,1,.49,2.13C988.91,431.26,989.23,430.44,989.19,429.7Z" transform="translate(-590.47 -259.74)"/><path class="cls-8" d="M1177.08,479.26l1.08-1.58A1.3,1.3,0,0,1,1177.08,479.26Z" transform="translate(-590.47 -259.74)"/><path class="cls-8" d="M1135.91,342.61a2.92,2.92,0,0,1-.53-2.1C1136.18,341.05,1135.85,341.88,1135.91,342.61Z" transform="translate(-590.47 -259.74)"/><path class="cls-8" d="M1210.09,401a3.35,3.35,0,0,1,.46-2.33C1210.53,399.51,1210.89,400.39,1210.09,401Z" transform="translate(-590.47 -259.74)"/><path class="cls-8" d="M1044.58,341a2.87,2.87,0,0,1-.55,2.12C1044.08,342.41,1043.73,341.57,1044.58,341Z" transform="translate(-590.47 -259.74)"/><path class="cls-8" d="M992.82,444.35a2.87,2.87,0,0,1,.58,2.08C992.54,445.92,992.9,445.07,992.82,444.35Z" transform="translate(-590.47 -259.74)"/><path class="cls-8" d="M1179.17,476.13l1-1.61A1.27,1.27,0,0,1,1179.17,476.13Z" transform="translate(-590.47 -259.74)"/><path class="cls-8" d="M1190.17,746.52c.18-.74.37-1.47.55-2.2C1190.68,745.09,1191.06,746,1190.17,746.52Z" transform="translate(-590.47 -259.74)"/><path class="cls-8" d="M1182.89,755.9l1.56-1.18A1.38,1.38,0,0,1,1182.89,755.9Z" transform="translate(-590.47 -259.74)"/><path class="cls-8" d="M1181.27,756.89l1.64-1A1.39,1.39,0,0,1,1181.27,756.89Z" transform="translate(-590.47 -259.74)"/><path class="cls-8" d="M1136.42,344.71a2.94,2.94,0,0,1-.52-2.11C1136.71,343.15,1136.37,344,1136.42,344.71Z" transform="translate(-590.47 -259.74)"/><path class="cls-8" d="M1176.61,758.49c.59-.63,1.38-.48,2.12-.56C1178.21,758.82,1177.36,758.46,1176.61,758.49Z" transform="translate(-590.47 -259.74)"/><path class="cls-8" d="M1185.53,465.74l1-1.66A1.37,1.37,0,0,1,1185.53,465.74Z" transform="translate(-590.47 -259.74)"/><path class="cls-8" d="M1173.43,484.49l1.11-1.6A1.38,1.38,0,0,1,1173.43,484.49Z" transform="translate(-590.47 -259.74)"/><path class="cls-8" d="M1134.3,336.48c-.16-.57-.32-1.14-.49-1.71C1134.49,335.19,1134.33,335.86,1134.3,336.48Z" transform="translate(-590.47 -259.74)"/><path class="cls-8" d="M1046.14,335.29l-.51,1.76C1045.6,336.41,1045.41,335.72,1046.14,335.29Z" transform="translate(-590.47 -259.74)"/><path class="cls-8" d="M1203.45,335.34l-1.72.47C1202.16,335.15,1202.82,335.3,1203.45,335.34Z" transform="translate(-590.47 -259.74)"/><path class="cls-8" d="M1208.46,337.56c-.19-.58-.37-1.15-.55-1.73C1208.68,336.22,1208.48,336.92,1208.46,337.56Z" transform="translate(-590.47 -259.74)"/><path class="cls-8" d="M1199.72,336.36l-1.62.5C1198.48,336.2,1199.12,336.34,1199.72,336.36Z" transform="translate(-590.47 -259.74)"/><path class="cls-8" d="M1134.85,338.46l-.47-1.61C1135,337.26,1134.86,337.87,1134.85,338.46Z" transform="translate(-590.47 -259.74)"/><path class="cls-8" d="M1198.08,336.87a1.79,1.79,0,0,1-1.55.51C1196.89,336.74,1197.5,336.86,1198.08,336.87Z" transform="translate(-590.47 -259.74)"/><path class="cls-8" d="M1045.57,337.37a1.83,1.83,0,0,1-.48,1.62C1045.06,338.39,1044.94,337.77,1045.57,337.37Z" transform="translate(-590.47 -259.74)"/><path class="cls-8" d="M1196.51,337.39a1.79,1.79,0,0,1-1.55.51C1195.32,337.26,1195.93,337.39,1196.51,337.39Z" transform="translate(-590.47 -259.74)"/><path class="cls-8" d="M1194.94,337.91l-1.54.54C1193.74,337.78,1194.36,337.91,1194.94,337.91Z" transform="translate(-590.47 -259.74)"/><path class="cls-8" d="M1209,339.48l-.48-1.59C1209.14,338.29,1209,338.9,1209,339.48Z" transform="translate(-590.47 -259.74)"/><path class="cls-8" d="M1209.5,341.22l-.48-1.75C1209.71,339.9,1209.53,340.58,1209.5,341.22Z" transform="translate(-590.47 -259.74)"/><path class="cls-8" d="M992.89,340a1.86,1.86,0,0,1-.56,1.58C992.32,341,992.18,340.34,992.89,340Z" transform="translate(-590.47 -259.74)"/><path class="cls-8" d="M992.34,341.56a1.88,1.88,0,0,1-.54,1.59C991.79,342.55,991.66,341.92,992.34,341.56Z" transform="translate(-590.47 -259.74)"/><path class="cls-8" d="M1210,343.31l-.45-1.77C1210.22,342,1210.06,342.67,1210,343.31Z" transform="translate(-590.47 -259.74)"/><path class="cls-8" d="M991.82,343.12a1.91,1.91,0,0,1-.54,1.6C991.27,344.12,991.14,343.49,991.82,343.12Z" transform="translate(-590.47 -259.74)"/><path class="cls-8" d="M991.3,344.69a1.86,1.86,0,0,1-.53,1.6C990.75,345.69,990.61,345.05,991.3,344.69Z" transform="translate(-590.47 -259.74)"/><path class="cls-8" d="M1043.46,345.72c-.15.59-.3,1.17-.44,1.75C1043,346.85,1042.82,346.18,1043.46,345.72Z" transform="translate(-590.47 -259.74)"/><path class="cls-8" d="M1137.43,349.1a2.22,2.22,0,0,1-.44-1.81C1137.64,347.77,1137.45,348.46,1137.43,349.1Z" transform="translate(-590.47 -259.74)"/><path class="cls-8" d="M990.22,348.33c-.16.57-.32,1.14-.49,1.71C989.71,349.41,989.55,348.76,990.22,348.33Z" transform="translate(-590.47 -259.74)"/><path class="cls-8" d="M989.66,350.42a1.83,1.83,0,0,1-.46,1.61C989.17,351.44,989.05,350.83,989.66,350.42Z" transform="translate(-590.47 -259.74)"/><path class="cls-8" d="M1141.17,372.88v-1.07l1.13.11A1.35,1.35,0,0,1,1141.17,372.88Z" transform="translate(-590.47 -259.74)"/><path class="cls-8" d="M1207,414.61a1.88,1.88,0,0,1,.46-1.65C1207.46,413.57,1207.59,414.2,1207,414.61Z" transform="translate(-590.47 -259.74)"/><path class="cls-8" d="M1206.38,416.68l.51-1.8C1206.91,415.54,1207.12,416.24,1206.38,416.68Z" transform="translate(-590.47 -259.74)"/><path class="cls-8" d="M1205.92,418.26a1.8,1.8,0,0,1,.48-1.61C1206.42,417.24,1206.54,417.86,1205.92,418.26Z" transform="translate(-590.47 -259.74)"/><path class="cls-8" d="M1205.31,420.32c.18-.58.36-1.16.53-1.75C1205.87,419.22,1206.07,419.92,1205.31,420.32Z" transform="translate(-590.47 -259.74)"/><path class="cls-8" d="M1204.82,421.9l.51-1.62C1205.37,420.89,1205.51,421.52,1204.82,421.9Z" transform="translate(-590.47 -259.74)"/><path class="cls-8" d="M1204.32,423.47l.51-1.6C1204.85,422.46,1205,423.09,1204.32,423.47Z" transform="translate(-590.47 -259.74)"/><path class="cls-8" d="M1203.81,425c.17-.53.34-1.05.52-1.58C1204.32,424,1204.44,424.66,1203.81,425Z" transform="translate(-590.47 -259.74)"/><path class="cls-8" d="M1203.29,426.6c.17-.52.35-1,.52-1.56C1203.8,425.61,1203.92,426.23,1203.29,426.6Z" transform="translate(-590.47 -259.74)"/><path class="cls-8" d="M1202.75,428.17l.54-1.57C1203.28,427.18,1203.4,427.8,1202.75,428.17Z" transform="translate(-590.47 -259.74)"/><path class="cls-8" d="M1202.21,429.72c.18-.52.36-1,.55-1.57C1202.76,428.74,1202.88,429.37,1202.21,429.72Z" transform="translate(-590.47 -259.74)"/><path class="cls-8" d="M1201.65,431.28l.57-1.58C1202.23,430.3,1202.37,431,1201.65,431.28Z" transform="translate(-590.47 -259.74)"/><path class="cls-8" d="M1201.07,432.82l.6-1.58C1201.7,431.85,1201.88,432.52,1201.07,432.82Z" transform="translate(-590.47 -259.74)"/><path class="cls-8" d="M1200.07,435.45l.59-1.56C1200.66,434.49,1200.8,435.14,1200.07,435.45Z" transform="translate(-590.47 -259.74)"/><path class="cls-8" d="M1199,438.06l.6-1.54C1199.62,437.11,1199.75,437.75,1199,438.06Z" transform="translate(-590.47 -259.74)"/><path class="cls-8" d="M1198,440.65l.63-1.53C1198.57,439.71,1198.72,440.37,1198,440.65Z" transform="translate(-590.47 -259.74)"/><path class="cls-8" d="M992.34,442.74a1.87,1.87,0,0,1,.49,1.61C992.19,444,992.31,443.33,992.34,442.74Z" transform="translate(-590.47 -259.74)"/><path class="cls-8" d="M1196.37,444.3l.65-1.51C1197,443.38,1197.15,444,1196.37,444.3Z" transform="translate(-590.47 -259.74)"/><path class="cls-8" d="M993.38,446.39a1.88,1.88,0,0,1,.51,1.61C993.23,447.62,993.35,447,993.38,446.39Z" transform="translate(-590.47 -259.74)"/><path class="cls-8" d="M993.88,448a1.84,1.84,0,0,1,.49,1.59C993.76,449.18,993.88,448.56,993.88,448Z" transform="translate(-590.47 -259.74)"/><path class="cls-8" d="M1193.73,450l.69-1.47C1194.38,449.13,1194.54,449.8,1193.73,450Z" transform="translate(-590.47 -259.74)"/><path class="cls-8" d="M994.45,449.91l.54,1.73C994.22,451.24,994.42,450.55,994.45,449.91Z" transform="translate(-590.47 -259.74)"/><path class="cls-8" d="M995,451.6a1.86,1.86,0,0,1,.54,1.61C994.78,452.85,994.93,452.21,995,451.6Z" transform="translate(-590.47 -259.74)"/><path class="cls-8" d="M995.47,453.17a1.85,1.85,0,0,1,.55,1.6C995.31,454.42,995.45,453.78,995.47,453.17Z" transform="translate(-590.47 -259.74)"/><path class="cls-8" d="M996,454.74a1.87,1.87,0,0,1,.58,1.59C995.82,456,996,455.35,996,454.74Z" transform="translate(-590.47 -259.74)"/><path class="cls-8" d="M997,457.38c.18.53.37,1.05.55,1.58C996.89,458.6,997,458,997,457.38Z" transform="translate(-590.47 -259.74)"/><path class="cls-8" d="M997.55,458.93a1.91,1.91,0,0,1,.56,1.59C997.4,460.17,997.54,459.53,997.55,458.93Z" transform="translate(-590.47 -259.74)"/><path class="cls-8" d="M998.08,460.48a1.83,1.83,0,0,1,.58,1.59C997.91,461.74,998.06,461.09,998.08,460.48Z" transform="translate(-590.47 -259.74)"/><path class="cls-8" d="M999.1,463.12l.58,1.57C999,464.35,999.11,463.71,999.1,463.12Z" transform="translate(-590.47 -259.74)"/><path class="cls-8" d="M1000.13,465.76l.58,1.54C1000,467,1000.15,466.34,1000.13,465.76Z" transform="translate(-590.47 -259.74)"/><path class="cls-8" d="M1001.17,468.37l.6,1.53C1001.07,469.59,1001.2,469,1001.17,468.37Z" transform="translate(-590.47 -259.74)"/><path class="cls-8" d="M1002.24,470.94c.2.52.41,1,.62,1.56C1002.09,472.2,1002.25,471.54,1002.24,470.94Z" transform="translate(-590.47 -259.74)"/><path class="cls-8" d="M1004.31,475.66c.21.51.42,1,.64,1.53C1004.19,476.91,1004.34,476.25,1004.31,475.66Z" transform="translate(-590.47 -259.74)"/><path class="cls-8" d="M1056.64,306.61l-.63,1.51C1056,307.54,1055.91,306.9,1056.64,306.61Z" transform="translate(-590.47 -259.74)"/><path class="cls-8" d="M1054.55,311.31c-.2.51-.41,1-.61,1.55C1054,312.27,1053.8,311.61,1054.55,311.31Z" transform="translate(-590.47 -259.74)"/><path class="cls-8" d="M1127,314.94c-.21-.51-.41-1-.62-1.54C1127.16,313.7,1127,314.35,1127,314.94Z" transform="translate(-590.47 -259.74)"/><path class="cls-8" d="M1053.48,313.91c-.2.51-.39,1-.59,1.55C1052.9,314.87,1052.77,314.23,1053.48,313.91Z" transform="translate(-590.47 -259.74)"/><path class="cls-8" d="M1128.07,317.57c-.21-.52-.41-1-.61-1.56C1128.21,316.32,1128.06,317,1128.07,317.57Z" transform="translate(-590.47 -259.74)"/><path class="cls-8" d="M1052.44,316.52c-.2.52-.39,1-.58,1.57C1051.86,317.49,1051.72,316.84,1052.44,316.52Z" transform="translate(-590.47 -259.74)"/><path class="cls-8" d="M1129.63,321.75c-.2-.53-.39-1.05-.58-1.58C1129.77,320.51,1129.63,321.15,1129.63,321.75Z" transform="translate(-590.47 -259.74)"/><path class="cls-8" d="M1050.86,320.69c-.19.52-.38,1.05-.56,1.58C1050.29,321.67,1050.15,321,1050.86,320.69Z" transform="translate(-590.47 -259.74)"/><path class="cls-8" d="M1130.16,323.29c-.18-.52-.36-1-.55-1.56C1130.28,322.08,1130.16,322.71,1130.16,323.29Z" transform="translate(-590.47 -259.74)"/><path class="cls-8" d="M1050.31,322.25c-.18.52-.36,1.05-.55,1.57C1049.76,323.23,1049.64,322.6,1050.31,322.25Z" transform="translate(-590.47 -259.74)"/><path class="cls-8" d="M1130.7,324.84l-.54-1.56C1130.8,323.65,1130.68,324.27,1130.7,324.84Z" transform="translate(-590.47 -259.74)"/><path class="cls-8" d="M1049.77,323.81c-.18.52-.36,1.05-.53,1.57C1049.24,324.8,1049.12,324.17,1049.77,323.81Z" transform="translate(-590.47 -259.74)"/><path class="cls-8" d="M1049.24,325.37c-.17.53-.35,1.05-.53,1.58C1048.72,326.36,1048.6,325.74,1049.24,325.37Z" transform="translate(-590.47 -259.74)"/><path class="cls-8" d="M1131.74,328c-.18-.52-.35-1.05-.52-1.57C1131.84,326.79,1131.73,327.4,1131.74,328Z" transform="translate(-590.47 -259.74)"/><path class="cls-8" d="M1048.72,326.94c-.18.52-.35,1.05-.53,1.58C1048.2,327.93,1048.08,327.31,1048.72,326.94Z" transform="translate(-590.47 -259.74)"/><path class="cls-8" d="M1132.25,329.57l-.51-1.59C1132.37,328.36,1132.25,329,1132.25,329.57Z" transform="translate(-590.47 -259.74)"/><path class="cls-8" d="M1048.2,328.5a1.87,1.87,0,0,1-.52,1.6C1047.67,329.51,1047.55,328.88,1048.2,328.5Z" transform="translate(-590.47 -259.74)"/><path class="cls-8" d="M1132.75,331.16l-.51-1.61C1132.9,329.93,1132.77,330.56,1132.75,331.16Z" transform="translate(-590.47 -259.74)"/><path class="cls-8" d="M1047.7,330.07a1.85,1.85,0,0,1-.52,1.61C1047.15,331.08,1047,330.45,1047.7,330.07Z" transform="translate(-590.47 -259.74)"/><path class="cls-8" d="M996.58,331.14c-.21.5-.43,1-.64,1.51C996,332.07,995.84,331.42,996.58,331.14Z" transform="translate(-590.47 -259.74)"/><path class="cls-8" d="M1133.25,332.84l-.51-1.72C1133.45,331.53,1133.28,332.2,1133.25,332.84Z" transform="translate(-590.47 -259.74)"/><path class="cls-8" d="M1047.2,331.64c-.17.59-.35,1.17-.52,1.75C1046.65,332.75,1046.45,332.05,1047.2,331.64Z" transform="translate(-590.47 -259.74)"/><path class="cls-8" d="M1133.82,334.78l-.48-1.58C1133.93,333.59,1133.82,334.2,1133.82,334.78Z" transform="translate(-590.47 -259.74)"/><path class="cls-8" d="M1046.61,333.71a1.83,1.83,0,0,1-.49,1.61C1046.1,334.73,1046,334.11,1046.61,333.71Z" transform="translate(-590.47 -259.74)"/><path class="cls-8" d="M1008.52,484.5l.54,1.07A1,1,0,0,1,1008.52,484.5Z" transform="translate(-590.47 -259.74)"/><path class="cls-8" d="M1200.66,433.9l.45-1.13A.92.92,0,0,1,1200.66,433.9Z" transform="translate(-590.47 -259.74)"/><path class="cls-8" d="M1009,485.54l.55,1.07C1009.09,486.41,1009,486,1009,485.54Z" transform="translate(-590.47 -259.74)"/><path class="cls-8" d="M1009.57,486.58l.56,1.06C1009.62,487.46,1009.54,487,1009.57,486.58Z" transform="translate(-590.47 -259.74)"/><path class="cls-8" d="M1153.53,361.9a.7.7,0,0,1-.9.55Z" transform="translate(-590.47 -259.74)"/><path class="cls-8" d="M1010.1,487.61l.57,1.07C1010.14,488.51,1010.07,488.09,1010.1,487.61Z" transform="translate(-590.47 -259.74)"/><path class="cls-8" d="M1010.64,488.64l.57,1.07C1010.66,489.55,1010.59,489.13,1010.64,488.64Z" transform="translate(-590.47 -259.74)"/><path class="cls-8" d="M1156.13,359.81a.67.67,0,0,1-.88.52Z" transform="translate(-590.47 -259.74)"/><path class="cls-8" d="M1160.87,356.16a.68.68,0,0,1-.93.54Z" transform="translate(-590.47 -259.74)"/><path class="cls-8" d="M1162.39,355.11a.65.65,0,0,1-.87.49Z" transform="translate(-590.47 -259.74)"/><path class="cls-8" d="M1012.15,491.32l.56,1A1,1,0,0,1,1012.15,491.32Z" transform="translate(-590.47 -259.74)"/><path class="cls-8" d="M1012.69,492.33c.2.35.39.7.58,1.05C1012.75,493.21,1012.68,492.79,1012.69,492.33Z" transform="translate(-590.47 -259.74)"/><path class="cls-8" d="M1013.24,493.35a1,1,0,0,1,.54,1.13A1,1,0,0,1,1013.24,493.35Z" transform="translate(-590.47 -259.74)"/><path class="cls-8" d="M1164.55,353.55a.69.69,0,0,1-1,.53Z" transform="translate(-590.47 -259.74)"/><path class="cls-8" d="M1014.23,495.08l.57.92Z" transform="translate(-590.47 -259.74)"/><path class="cls-8" d="M1014.79,496l.58,1C1014.84,496.87,1014.77,496.45,1014.79,496Z" transform="translate(-590.47 -259.74)"/><path class="cls-8" d="M1166.1,352.5a.68.68,0,0,1-.93.52Z" transform="translate(-590.47 -259.74)"/><path class="cls-8" d="M1167.67,351.46a.67.67,0,0,1-.93.51Z" transform="translate(-590.47 -259.74)"/><path class="cls-8" d="M1016.35,498.59a1,1,0,0,1,.53,1.1A1,1,0,0,1,1016.35,498.59Z" transform="translate(-590.47 -259.74)"/><path class="cls-8" d="M1017.37,500.3c.19.31.39.61.58.91C1017.76,500.91,1017.56,500.61,1017.37,500.3Z" transform="translate(-590.47 -259.74)"/><path class="cls-8" d="M1169.38,350.45a.85.85,0,0,1-1.07.48Z" transform="translate(-590.47 -259.74)"/><path class="cls-8" d="M1170.22,349.89l-.85.57Z" transform="translate(-590.47 -259.74)"/><path class="cls-8" d="M1019,502.77a1,1,0,0,1,.55,1.1A1,1,0,0,1,1019,502.77Z" transform="translate(-590.47 -259.74)"/><path class="cls-8" d="M1171.83,348.85a.65.65,0,0,1-.91.48Z" transform="translate(-590.47 -259.74)"/><path class="cls-8" d="M1174.58,347.31a.86.86,0,0,1-1,.45Z" transform="translate(-590.47 -259.74)"/><path class="cls-8" d="M1175.45,346.76l-.86.54Z" transform="translate(-590.47 -259.74)"/><path class="cls-8" d="M1178.27,345.24a.87.87,0,0,1-1.08.44Z" transform="translate(-590.47 -259.74)"/><path class="cls-8" d="M1216.32,506.07l-1.11-.62C1215.71,505.43,1216.15,505.51,1216.32,506.07Z" transform="translate(-590.47 -259.74)"/><path class="cls-8" d="M1179.3,344.71l-1,.54A1,1,0,0,1,1179.3,344.71Z" transform="translate(-590.47 -259.74)"/><path class="cls-8" d="M1219.43,509.78l-.64-1.19C1219.41,508.77,1219.46,509.25,1219.43,509.78Z" transform="translate(-590.47 -259.74)"/><path class="cls-8" d="M1192.72,452.12l.54-1.09C1193.35,451.52,1193.3,452,1192.72,452.12Z" transform="translate(-590.47 -259.74)"/><path class="cls-8" d="M1180.34,344.18l-1,.53A1,1,0,0,1,1180.34,344.18Z" transform="translate(-590.47 -259.74)"/><path class="cls-8" d="M1181.37,343.66l-1,.52A.94.94,0,0,1,1181.37,343.66Z" transform="translate(-590.47 -259.74)"/><path class="cls-8" d="M1182.43,343.14l-1,.51A1,1,0,0,1,1182.43,343.14Z" transform="translate(-590.47 -259.74)"/><path class="cls-8" d="M1183.48,342.62l-1,.52A1,1,0,0,1,1183.48,342.62Z" transform="translate(-590.47 -259.74)"/><path class="cls-8" d="M1029.31,343.36l-1-.77C1028.84,342.62,1029.24,342.78,1029.31,343.36Z" transform="translate(-590.47 -259.74)"/><path class="cls-8" d="M1191.16,455.26c.18-.37.37-.73.56-1.09C1191.78,454.66,1191.73,455.09,1191.16,455.26Z" transform="translate(-590.47 -259.74)"/><path class="cls-8" d="M1188.11,461l.55-1Z" transform="translate(-590.47 -259.74)"/><path class="cls-8" d="M1184.53,342.11l-1.06.52A.94.94,0,0,1,1184.53,342.11Z" transform="translate(-590.47 -259.74)"/><path class="cls-8" d="M1192.2,453.17c.19-.36.37-.73.55-1.09C1192.83,452.57,1192.78,453,1192.2,453.17Z" transform="translate(-590.47 -259.74)"/><path class="cls-8" d="M1185.7,341.61l-1.18.51C1184.76,341.59,1185.21,341.56,1185.7,341.61Z" transform="translate(-590.47 -259.74)"/><path class="cls-8" d="M1187.07,341l-1,.47Z" transform="translate(-590.47 -259.74)"/><path class="cls-8" d="M1188.16,340.52l-1,.48Z" transform="translate(-590.47 -259.74)"/><path class="cls-8" d="M1026.7,341.19l-1-.69C1026.21,340.53,1026.61,340.65,1026.7,341.19Z" transform="translate(-590.47 -259.74)"/><path class="cls-8" d="M1189.32,340l-1.15.49C1188.41,340,1188.85,340,1189.32,340Z" transform="translate(-590.47 -259.74)"/><path class="cls-8" d="M1187.55,462.06l.57-1C1188.13,461.48,1188,461.88,1187.55,462.06Z" transform="translate(-590.47 -259.74)"/><path class="cls-8" d="M998.63,462l.48,1.11A.94.94,0,0,1,998.63,462Z" transform="translate(-590.47 -259.74)"/><path class="cls-8" d="M1187,463.09l.57-1.06C1187.61,462.51,1187.54,462.93,1187,463.09Z" transform="translate(-590.47 -259.74)"/><path class="cls-8" d="M1190.63,456.29l.56-1.08C1191.26,455.71,1191.21,456.14,1190.63,456.29Z" transform="translate(-590.47 -259.74)"/><path class="cls-8" d="M1190.76,339.47l-1,.44Z" transform="translate(-590.47 -259.74)"/><path class="cls-8" d="M1192,339l-1.18.47C1191,339,1191.49,339,1192,339Z" transform="translate(-590.47 -259.74)"/><path class="cls-8" d="M1219,540.91c.16-.37.32-.73.49-1.09C1219.29,540.18,1219.13,540.54,1219,540.91Z" transform="translate(-590.47 -259.74)"/><path class="cls-8" d="M993.33,338.94c-.16.36-.31.73-.46,1.1C993,339.67,993.17,339.3,993.33,338.94Z" transform="translate(-590.47 -259.74)"/><path class="cls-8" d="M1218.29,541.91l.68-1C1218.94,541.38,1218.83,541.79,1218.29,541.91Z" transform="translate(-590.47 -259.74)"/><path class="cls-8" d="M1193.4,338.44l-1.06.45Z" transform="translate(-590.47 -259.74)"/><path class="cls-8" d="M1024.09,339.16l-1-.74C1023.59,338.44,1024,338.58,1024.09,339.16Z" transform="translate(-590.47 -259.74)"/><path class="cls-8" d="M1215.78,544l1-.67C1216.71,543.91,1216.28,544,1215.78,544Z" transform="translate(-590.47 -259.74)"/><path class="cls-8" d="M993.91,337.38c-.17.42-.34.83-.5,1.25C993.36,338.13,993.37,337.65,993.91,337.38Z" transform="translate(-590.47 -259.74)"/><path class="cls-8" d="M1022,337.61l-1-.74C1021.5,336.88,1021.91,337,1022,337.61Z" transform="translate(-590.47 -259.74)"/><path class="cls-8" d="M994.36,336.33l-.47,1.08Z" transform="translate(-590.47 -259.74)"/><path class="cls-8" d="M1201.41,335.87l-1.23.4A1.15,1.15,0,0,1,1201.41,335.87Z" transform="translate(-590.47 -259.74)"/><path class="cls-8" d="M1020.44,336.48l-1-.67C1019.92,335.83,1020.33,335.94,1020.44,336.48Z" transform="translate(-590.47 -259.74)"/><path class="cls-8" d="M1018.88,335.42l-1-.66C1018.36,334.78,1018.75,334.91,1018.88,335.42Z" transform="translate(-590.47 -259.74)"/><path class="cls-8" d="M995,334.78l-.52,1.23C994.4,335.51,994.42,335,995,334.78Z" transform="translate(-590.47 -259.74)"/><path class="cls-8" d="M1017.31,334.37l-1-.65C1016.79,333.74,1017.18,333.86,1017.31,334.37Z" transform="translate(-590.47 -259.74)"/><path class="cls-8" d="M995.44,333.72l-.49,1.09A1,1,0,0,1,995.44,333.72Z" transform="translate(-590.47 -259.74)"/><path class="cls-8" d="M1015.74,333.34l-1-.65C1015.2,332.7,1015.61,332.79,1015.74,333.34Z" transform="translate(-590.47 -259.74)"/><path class="cls-8" d="M995.93,332.67l-.49,1.06C995.6,333.37,995.77,333,995.93,332.67Z" transform="translate(-590.47 -259.74)"/><path class="cls-8" d="M1013.14,331.75l-1-.63C1012.6,331.13,1013,331.24,1013.14,331.75Z" transform="translate(-590.47 -259.74)"/><path class="cls-8" d="M997.1,330.1c-.19.36-.37.72-.55,1.09C996.49,330.7,996.55,330.28,997.1,330.1Z" transform="translate(-590.47 -259.74)"/><path class="cls-8" d="M1010.51,330.22l-1-.64C1010,329.57,1010.39,329.66,1010.51,330.22Z" transform="translate(-590.47 -259.74)"/><path class="cls-8" d="M1009.5,329.59l-1-.55A1,1,0,0,1,1009.5,329.59Z" transform="translate(-590.47 -259.74)"/><path class="cls-8" d="M997.62,329.05l-.56,1.09C997,329.66,997.07,329.23,997.62,329.05Z" transform="translate(-590.47 -259.74)"/><path class="cls-8" d="M1008.46,329l-1-.53Z" transform="translate(-590.47 -259.74)"/><path class="cls-8" d="M1007.42,328.5l-1-.51Z" transform="translate(-590.47 -259.74)"/><path class="cls-8" d="M998.15,328c-.19.36-.38.72-.56,1.08C997.53,328.61,997.6,328.19,998.15,328Z" transform="translate(-590.47 -259.74)"/><path class="cls-8" d="M1006.38,328l-1-.51Z" transform="translate(-590.47 -259.74)"/><path class="cls-8" d="M1186.45,464.12l.58-1.07C1187.08,463.54,1187,464,1186.45,464.12Z" transform="translate(-590.47 -259.74)"/><path class="cls-8" d="M1193.23,451.07l.54-1.1C1193.87,450.48,1193.83,450.91,1193.23,451.07Z" transform="translate(-590.47 -259.74)"/><path class="cls-8" d="M1005.33,327.46l-1-.5Z" transform="translate(-590.47 -259.74)"/><path class="cls-8" d="M998.63,326.91a1,1,0,0,1-.52,1.14A1,1,0,0,1,998.63,326.91Z" transform="translate(-590.47 -259.74)"/><path class="cls-8" d="M1004.28,327l-1-.5A1,1,0,0,1,1004.28,327Z" transform="translate(-590.47 -259.74)"/><path class="cls-8" d="M1003.23,326.46l-1.14-.52C1002.57,325.9,1003,326,1003.23,326.46Z" transform="translate(-590.47 -259.74)"/><path class="cls-8" d="M999.52,326.26h-.44l.6-.87C999.62,325.69,999.57,326,999.52,326.26Z" transform="translate(-590.47 -259.74)"/><path class="cls-8" d="M1131.15,326.14l-.45-1.29C1131.2,325.16,1131.2,325.64,1131.15,326.14Z" transform="translate(-590.47 -259.74)"/><path class="cls-8" d="M1000.65,325.34l-1,.1C999.92,324.83,1000.26,324.82,1000.65,325.34Z" transform="translate(-590.47 -259.74)"/><path class="cls-8" d="M1051.29,319.63l-.45,1.09Z" transform="translate(-590.47 -259.74)"/><path class="cls-8" d="M999.65,464.65l.48,1.1A1,1,0,0,1,999.65,464.65Z" transform="translate(-590.47 -259.74)"/><path class="cls-8" d="M996.55,456.28l.46,1.11A.93.93,0,0,1,996.55,456.28Z" transform="translate(-590.47 -259.74)"/><path class="cls-8" d="M1129.08,320.22l-.44-1.11C1128.78,319.48,1128.93,319.85,1129.08,320.22Z" transform="translate(-590.47 -259.74)"/><path class="cls-8" d="M1051.87,318.07c-.17.41-.33.82-.49,1.23C1051.33,318.81,1051.35,318.34,1051.87,318.07Z" transform="translate(-590.47 -259.74)"/><path class="cls-8" d="M1128.54,318.8l-.48-1.25C1128.58,317.83,1128.59,318.3,1128.54,318.8Z" transform="translate(-590.47 -259.74)"/><path class="cls-8" d="M1052.89,315.46l-.48,1.1A1,1,0,0,1,1052.89,315.46Z" transform="translate(-590.47 -259.74)"/><path class="cls-8" d="M1127.49,316.06l-.46-1.12A1,1,0,0,1,1127.49,316.06Z" transform="translate(-590.47 -259.74)"/><path class="cls-8" d="M1054,312.85c-.17.36-.33.73-.5,1.1A1,1,0,0,1,1054,312.85Z" transform="translate(-590.47 -259.74)"/><path class="cls-8" d="M1126.44,313.45l-.48-1.12A.92.92,0,0,1,1126.44,313.45Z" transform="translate(-590.47 -259.74)"/><path class="cls-8" d="M1126,312.35c-.15-.36-.31-.71-.46-1.07C1125.66,311.64,1125.82,312,1126,312.35Z" transform="translate(-590.47 -259.74)"/><path class="cls-8" d="M1055,310.25l-.51,1.1C1054.46,310.88,1054.52,310.46,1055,310.25Z" transform="translate(-590.47 -259.74)"/><path class="cls-8" d="M1125.4,311c-.17-.42-.35-.84-.53-1.25C1125.44,310,1125.45,310.48,1125.4,311Z" transform="translate(-590.47 -259.74)"/><path class="cls-8" d="M1055.52,309.2l-.51,1.08A1,1,0,0,1,1055.52,309.2Z" transform="translate(-590.47 -259.74)"/><path class="cls-8" d="M1124.9,309.78l-.5-1.1A1,1,0,0,1,1124.9,309.78Z" transform="translate(-590.47 -259.74)"/><path class="cls-8" d="M1056,308.14c-.16.36-.33.71-.49,1.07C1055.67,308.85,1055.84,308.5,1056,308.14Z" transform="translate(-590.47 -259.74)"/><path class="cls-8" d="M1124.41,308.7l-.49-1.08Z" transform="translate(-590.47 -259.74)"/><path class="cls-8" d="M1123.91,307.6a1,1,0,0,0-.36-.06l-.12-1Z" transform="translate(-590.47 -259.74)"/><path class="cls-8" d="M1057.13,305.56c-.17.36-.35.73-.53,1.09C1056.55,306.18,1056.61,305.76,1057.13,305.56Z" transform="translate(-590.47 -259.74)"/><path class="cls-8" d="M1123.32,306.28l-.57-1.22C1123.34,305.28,1123.36,305.77,1123.32,306.28Z" transform="translate(-590.47 -259.74)"/><path class="cls-8" d="M1057.64,304.51c-.18.36-.36.72-.53,1.08C1057.07,305.13,1057.14,304.71,1057.64,304.51Z" transform="translate(-590.47 -259.74)"/><path class="cls-8" d="M1122.78,305.11c-.18-.37-.35-.74-.53-1.1C1122.79,304.2,1122.85,304.62,1122.78,305.11Z" transform="translate(-590.47 -259.74)"/><path class="cls-8" d="M1058.15,303.46c-.17.36-.35.72-.53,1.08A.94.94,0,0,1,1058.15,303.46Z" transform="translate(-590.47 -259.74)"/><path class="cls-8" d="M1122.28,304.05c-.18-.37-.36-.73-.53-1.1C1122.27,303.15,1122.33,303.57,1122.28,304.05Z" transform="translate(-590.47 -259.74)"/><path class="cls-8" d="M1058.67,302.42c-.18.35-.36.71-.53,1.07A1,1,0,0,1,1058.67,302.42Z" transform="translate(-590.47 -259.74)"/><path class="cls-8" d="M1121.77,303l-.54-1.08C1121.74,302.1,1121.8,302.52,1121.77,303Z" transform="translate(-590.47 -259.74)"/><path class="cls-8" d="M1059.19,301.37l-.54,1.07A1,1,0,0,1,1059.19,301.37Z" transform="translate(-590.47 -259.74)"/><path class="cls-8" d="M1121.25,301.94l-.54-1.08C1121.22,301.06,1121.28,301.48,1121.25,301.94Z" transform="translate(-590.47 -259.74)"/><path class="cls-8" d="M1059.71,300.33l-.54,1.06A1,1,0,0,1,1059.71,300.33Z" transform="translate(-590.47 -259.74)"/><path class="cls-8" d="M1120.73,300.89l-.55-1.07C1120.69,300,1120.76,300.43,1120.73,300.89Z" transform="translate(-590.47 -259.74)"/><path class="cls-8" d="M1060.24,299.29l-.54,1.06A1,1,0,0,1,1060.24,299.29Z" transform="translate(-590.47 -259.74)"/><path class="cls-8" d="M1120.21,299.85c-.19-.35-.37-.71-.56-1.07C1120.17,299,1120.24,299.38,1120.21,299.85Z" transform="translate(-590.47 -259.74)"/><path class="cls-8" d="M1060.78,298.25l-.56,1.06C1060.21,298.85,1060.28,298.44,1060.78,298.25Z" transform="translate(-590.47 -259.74)"/><path class="cls-8" d="M1119.68,298.82l-.57-1.08C1119.65,297.92,1119.71,298.34,1119.68,298.82Z" transform="translate(-590.47 -259.74)"/><path class="cls-8" d="M1061.31,297.21l-.55,1.07C1060.73,297.81,1060.8,297.39,1061.31,297.21Z" transform="translate(-590.47 -259.74)"/><path class="cls-8" d="M1119.14,297.79c-.19-.36-.38-.72-.58-1.07C1119.12,296.87,1119.19,297.3,1119.14,297.79Z" transform="translate(-590.47 -259.74)"/><path class="cls-8" d="M1061.86,296.17l-.57,1.08C1061.25,296.77,1061.32,296.35,1061.86,296.17Z" transform="translate(-590.47 -259.74)"/><path class="cls-8" d="M1185,466.77l.57-1A1,1,0,0,1,1185,466.77Z" transform="translate(-590.47 -259.74)"/><path class="cls-8" d="M1118.6,296.76l-.69-1.08C1118.54,295.79,1118.66,296.22,1118.6,296.76Z" transform="translate(-590.47 -259.74)"/><path class="cls-8" d="M1062.35,295.08a1,1,0,0,1-.53,1.13A1,1,0,0,1,1062.35,295.08Z" transform="translate(-590.47 -259.74)"/><path class="cls-8" d="M1184.35,467.77l.62-1C1185,467.22,1184.92,467.64,1184.35,467.77Z" transform="translate(-590.47 -259.74)"/><path class="cls-8" d="M1117.64,295.1l-.54-1Z" transform="translate(-590.47 -259.74)"/><path class="cls-8" d="M1063.36,293.54c-.18.31-.37.62-.56.92C1063,294.16,1063.18,293.85,1063.36,293.54Z" transform="translate(-590.47 -259.74)"/><path class="cls-8" d="M1117.1,294.07l-.57-1C1117,293.22,1117.1,293.62,1117.1,294.07Z" transform="translate(-590.47 -259.74)"/><path class="cls-8" d="M1063.92,292.51l-.57,1.05A.94.94,0,0,1,1063.92,292.51Z" transform="translate(-590.47 -259.74)"/><path class="cls-8" d="M1116.55,293.07l-.69-1C1116.45,292.13,1116.57,292.56,1116.55,293.07Z" transform="translate(-590.47 -259.74)"/><path class="cls-8" d="M1064.43,291.43a1,1,0,0,1-.53,1.12A1,1,0,0,1,1064.43,291.43Z" transform="translate(-590.47 -259.74)"/><path class="cls-8" d="M1115.55,291.45l-.56-1A1,1,0,0,1,1115.55,291.45Z" transform="translate(-590.47 -259.74)"/><path class="cls-8" d="M1065.47,289.9l-.58.92Z" transform="translate(-590.47 -259.74)"/><path class="cls-8" d="M1115,290.44l-.69-1C1114.89,289.52,1115,289.94,1115,290.44Z" transform="translate(-590.47 -259.74)"/><path class="cls-8" d="M1066,288.82a1,1,0,0,1-.55,1.1A1,1,0,0,1,1066,288.82Z" transform="translate(-590.47 -259.74)"/><path class="cls-8" d="M1114,288.83l-.57-1A1,1,0,0,1,1114,288.83Z" transform="translate(-590.47 -259.74)"/><path class="cls-8" d="M1067,287.26a.78.78,0,0,1-.53,1Z" transform="translate(-590.47 -259.74)"/><path class="cls-8" d="M1113.42,287.84l-.72-1C1113.3,286.9,1113.43,287.32,1113.42,287.84Z" transform="translate(-590.47 -259.74)"/><path class="cls-8" d="M1068.09,285.73l-.59.88Z" transform="translate(-590.47 -259.74)"/><path class="cls-8" d="M1112.4,286.28l-.7-1C1112.28,285.35,1112.39,285.78,1112.4,286.28Z" transform="translate(-590.47 -259.74)"/><path class="cls-8" d="M1111.36,284.69l-.7-1C1111.23,283.78,1111.35,284.2,1111.36,284.69Z" transform="translate(-590.47 -259.74)"/><path class="cls-8" d="M1110.31,283.13l-.71-1C1110.18,282.21,1110.3,282.63,1110.31,283.13Z" transform="translate(-590.47 -259.74)"/><path class="cls-8" d="M1071.16,281a.73.73,0,0,1-.52.91C1070.81,281.6,1071,281.3,1071.16,281Z" transform="translate(-590.47 -259.74)"/><path class="cls-8" d="M1109.26,281.59c-.25-.35-.5-.7-.76-1C1109.11,280.63,1109.25,281.06,1109.26,281.59Z" transform="translate(-590.47 -259.74)"/><path class="cls-8" d="M1072.26,279.42a.79.79,0,0,1-.58,1Z" transform="translate(-590.47 -259.74)"/><path class="cls-8" d="M1107.71,279.45l-.7-1C1107.57,278.55,1107.69,279,1107.71,279.45Z" transform="translate(-590.47 -259.74)"/><path class="cls-8" d="M1073.8,277.34a.74.74,0,0,1-.55.91Z" transform="translate(-590.47 -259.74)"/><path class="cls-8" d="M1106.15,277.34l-.7-1C1106,276.46,1106.12,276.87,1106.15,277.34Z" transform="translate(-590.47 -259.74)"/><path class="cls-8" d="M1075.39,275.25a.75.75,0,0,1-.57.92Z" transform="translate(-590.47 -259.74)"/><path class="cls-8" d="M1104.57,275.28l-.76-1C1104.4,274.36,1104.55,274.77,1104.57,275.28Z" transform="translate(-590.47 -259.74)"/><path class="cls-8" d="M1077.49,272.64a.74.74,0,0,1-.59.91Z" transform="translate(-590.47 -259.74)"/><path class="cls-8" d="M1090.45,260.22l-1-.07C1089.83,259.57,1090.16,259.6,1090.45,260.22Z" transform="translate(-590.47 -259.74)"/><path class="cls-8" d="M1000.69,467.27l.48,1.09Z" transform="translate(-590.47 -259.74)"/><path class="cls-8" d="M1194.43,448.53l.5-1.06C1194.76,447.83,1194.59,448.18,1194.43,448.53Z" transform="translate(-590.47 -259.74)"/><path class="cls-8" d="M1190.09,457.33l.57-1.08C1190.74,456.75,1190.69,457.18,1190.09,457.33Z" transform="translate(-590.47 -259.74)"/><path class="cls-8" d="M1182.79,470.38c.2-.34.41-.68.62-1C1183.43,469.83,1183.35,470.25,1182.79,470.38Z" transform="translate(-590.47 -259.74)"/><path class="cls-8" d="M1001.75,469.86l.5,1.1A1,1,0,0,1,1001.75,469.86Z" transform="translate(-590.47 -259.74)"/><path class="cls-8" d="M1194.93,447.47l.5-1.07A1,1,0,0,1,1194.93,447.47Z" transform="translate(-590.47 -259.74)"/><path class="cls-8" d="M1191.68,454.21l.56-1.08C1192.31,453.62,1192.25,454.05,1191.68,454.21Z" transform="translate(-590.47 -259.74)"/><path class="cls-8" d="M1195.42,446.42c.17-.36.34-.73.5-1.09C1196,445.79,1195.91,446.21,1195.42,446.42Z" transform="translate(-590.47 -259.74)"/><path class="cls-8" d="M1002.82,472.45c.17.37.35.74.52,1.1C1002.81,473.35,1002.75,472.93,1002.82,472.45Z" transform="translate(-590.47 -259.74)"/><path class="cls-8" d="M1003.31,473.52c.18.36.35.73.52,1.09A.94.94,0,0,1,1003.31,473.52Z" transform="translate(-590.47 -259.74)"/><path class="cls-8" d="M1180.18,474.55l.63-1C1180.82,474,1180.74,474.44,1180.18,474.55Z" transform="translate(-590.47 -259.74)"/><path class="cls-8" d="M1003.81,474.59l.5,1.07Z" transform="translate(-590.47 -259.74)"/><path class="cls-8" d="M1195.9,445.36l.51-1.11C1196.49,444.73,1196.44,445.16,1195.9,445.36Z" transform="translate(-590.47 -259.74)"/><path class="cls-8" d="M1189.55,458.36l.57-1.08C1190.21,457.79,1190.17,458.23,1189.55,458.36Z" transform="translate(-590.47 -259.74)"/><path class="cls-8" d="M1197,442.78l.48-1.09A1,1,0,0,1,1197,442.78Z" transform="translate(-590.47 -259.74)"/><path class="cls-8" d="M1189.74,747.57c.16-.37.31-.73.46-1.1C1190.05,746.84,1189.89,747.2,1189.74,747.57Z" transform="translate(-590.47 -259.74)"/><path class="cls-8" d="M1004.91,477.15l.54,1.09C1004.9,478.06,1004.84,477.63,1004.91,477.15Z" transform="translate(-590.47 -259.74)"/><path class="cls-8" d="M1197.49,441.72c.17-.37.33-.74.5-1.12C1198.06,441.08,1198,441.5,1197.49,441.72Z" transform="translate(-590.47 -259.74)"/><path class="cls-8" d="M1189.1,749.11c.18-.41.37-.81.55-1.22C1189.7,748.4,1189.68,748.88,1189.1,749.11Z" transform="translate(-590.47 -259.74)"/><path class="cls-8" d="M1188.42,750.13l.71-1.07C1189.17,749.6,1189,750,1188.42,750.13Z" transform="translate(-590.47 -259.74)"/><path class="cls-8" d="M1187.38,751.7l.75-1.06C1188.13,751.17,1188,751.6,1187.38,751.7Z" transform="translate(-590.47 -259.74)"/><path class="cls-8" d="M1005.42,478.2c.17.37.35.73.53,1.1C1005.43,479.1,1005.37,478.68,1005.42,478.2Z" transform="translate(-590.47 -259.74)"/><path class="cls-8" d="M1005.92,479.26l.54,1.08C1006,480.14,1005.89,479.73,1005.92,479.26Z" transform="translate(-590.47 -259.74)"/><path class="cls-8" d="M1198.58,439.12c.16-.37.32-.73.47-1.1A.93.93,0,0,1,1198.58,439.12Z" transform="translate(-590.47 -259.74)"/><path class="cls-8" d="M1006.44,480.31l.53,1.08C1006.48,481.19,1006.41,480.77,1006.44,480.31Z" transform="translate(-590.47 -259.74)"/><path class="cls-8" d="M1007,481.36l.54,1.08A1,1,0,0,1,1007,481.36Z" transform="translate(-590.47 -259.74)"/><path class="cls-8" d="M1174.85,482.39l.74-1C1175.58,481.87,1175.45,482.3,1174.85,482.39Z" transform="translate(-590.47 -259.74)"/><path class="cls-8" d="M1007.47,482.41l.54,1.07A1,1,0,0,1,1007.47,482.41Z" transform="translate(-590.47 -259.74)"/><path class="cls-8" d="M1199.63,436.52c.16-.37.31-.75.46-1.12A1,1,0,0,1,1199.63,436.52Z" transform="translate(-590.47 -259.74)"/><path class="cls-8" d="M1008,483.46l.54,1.06A1,1,0,0,1,1008,483.46Z" transform="translate(-590.47 -259.74)"/><path class="cls-12" d="M1091.54,450.1a11.77,11.77,0,0,1-.86-.87c0-.06.08-.33.19-.4s.4,0,.42.06c.11.4.17.81.24,1.22Z" transform="translate(-590.47 -259.74)"/><path class="cls-17" d="M1088.92,443.83a3.88,3.88,0,0,0,.48,0c0,.39,0,.79,0,1.19H1089Z" transform="translate(-590.47 -259.74)"/><path class="cls-18" d="M1214.44,544.09a3.72,3.72,0,0,1-2.5.45c-2.86,0-5.72,0-8.58,0h-99.54c-1.13,0-2.26,0-3.39,0a3,3,0,0,1,.9-.44,20.63,20.63,0,0,1,2.08,0h108.16C1212.53,544,1213.48,544.07,1214.44,544.09Z" transform="translate(-590.47 -259.74)"/><path class="cls-10" d="M844,641l3.49,2.68v32c-.68,0-1.4-.15-1.79.65l-1.77,1,.08,0-5.58.08c-1.57,0-3.14,0-4.71.11-.93.08-.91.9-.86,1.63-.06,1.08-.13,2.16-.19,3.24a5,5,0,0,1-.63.38c-.52-1.61.25-3.44-.85-5.24-1.56,0-3.12-.09-4.69-.09H742.59c-7.21,0-14.42,0-21.63-.05l0-31.66c0-1.57.12-3.16-.89-4.53l5.08-.35c1.73,0,3.45.11,5.18.11Z" transform="translate(-590.47 -259.74)"/><path class="cls-9" d="M617.93,809.79c0-.52,0-1,0-1.56,0-2.71,0-5.42-.17-8.12a23.72,23.72,0,0,0-.64-3.3l-.06-1.56c0-2.16,0-4.32-.1-6.47-.09-1.4-.45-2.79-.68-4.19l-.09-2.33c0-2.16,0-4.31-.1-6.46-.09-1.41-.45-2.79-.68-4.19l-.08-2.34c0-2.15,0-4.31-.11-6.45-.09-1.41-.45-2.79-.68-4.19l-.08-2.35c0-2.15,0-4.31-.11-6.45a40,40,0,0,0-.68-4.18c0-.49,0-1,0-1.48-.06-3-.08-6-.21-9a12.12,12.12,0,0,0-.61-2.46c0-.5,0-1,0-1.49-.07-3-.09-6-.22-9a12.82,12.82,0,0,0-.61-2.46c0-.5,0-1,0-1.5-.06-3-.08-6-.21-9a12.12,12.12,0,0,0-.61-2.46c0-.5,0-1,0-1.51-.07-3-.09-6-.22-9a12.16,12.16,0,0,0-.6-2.45c0-.51,0-1,0-1.52l.09-6.07H721l0,.1c0,1.44,0,2.88,0,4.32V875.69c-1.59,0-3.17.14-4.76.14q-40.5,0-81,0l-.36-.14-.38,0-2.73-.89,0,0-1.78-.72a13.76,13.76,0,0,1-5.26-4.43,3.31,3.31,0,0,0-1.62-2.69l0,.07c-.29-.67-.58-1.34-.88-2a.47.47,0,0,0-.12-.57c-.27-1.2-.53-2.4-.8-3.6a.72.72,0,0,0,0-.71c-.07-3-.09-6-.22-9a12.73,12.73,0,0,0-.61-2.45c0-.51,0-1,0-1.53-.06-3-.08-6-.21-9a12.55,12.55,0,0,0-.61-2.45c0-.52,0-1,0-1.54,0-2.71,0-5.43-.17-8.14a22.38,22.38,0,0,0-.65-3.3c0-.52,0-1,0-1.55,0-2.71,0-5.42-.17-8.13A22.38,22.38,0,0,0,617.93,809.79Z" transform="translate(-590.47 -259.74)"/><path class="cls-10" d="M721,875.69V690.55c0-1.44,0-2.88,0-4.32,1.88,0,3.75-.07,5.63-.07l105.21,0,.12,5.22-.06,1.54c-1.11,3.76-.76,7.62-.81,11.45l-.06,1.53c-1.11,3.76-.76,7.62-.81,11.46,0,.51,0,1,0,1.52-1.12,3.76-.77,7.63-.82,11.47,0,.5,0,1,0,1.51-1.12,3.77-.78,7.64-.81,11.48l-.06,1.5c-1.12,3.77-.77,7.64-.81,11.49l-.06,1.49c-1.12,3.77-.77,7.65-.81,11.49l-.06,1.49c-1.12,3.78-.76,7.65-.81,11.5l-.06,1.49c-1.12,3.77-.76,7.65-.81,11.5l-.06,1.48c-1.12,3.77-.76,7.66-.81,11.51,0,.49,0,1-.05,1.46-1.13,3.79-.77,7.67-.82,11.53,0,.48,0,1-.05,1.46-1.13,3.78-.77,7.67-.82,11.53,0,.48,0,1-.05,1.44-1.14,3.5-.74,7.1-.78,10.67l-.09,2.32c-1.14,3.49-.74,7.09-.78,10.67,0,.5,0,1-.07,1.52-.27,1.23-.53,2.45-.8,3.67a.35.35,0,0,0-.11.5l-.9,2.06,0-.09-1.91,2.65-3.28,3.13L811.89,874l.05,0c-.59.31-1.19.61-1.79.91l.06,0-2.64.91,0,0c-3.15.06-6.31.16-9.47.16q-36.23,0-72.43,0C724.14,875.84,722.57,875.74,721,875.69Z" transform="translate(-590.47 -259.74)"/><path class="cls-9" d="M720.1,641.24c1,1.37.9,3,.89,4.53l0,31.66.06.1c-.43,0-.86,0-1.3,0H614.62a16.61,16.61,0,0,0-1.73,0c-.82.09-1.64.27-2.55.42-.15,1.75-.29,3.3-.43,4.86a3.55,3.55,0,0,1-.63-.28c-.06-1.11-.11-2.21-.17-3.31.11-1-.18-1.7-1.3-1.7-3,0-6,0-9,0l-.35-.13-.38,0-1.86-.7L593.65,674q0-14.73,0-29.44l0,.06,1-1.74-.08.11,1.33-1,2.08-1,15.56,0h98.14c1.73,0,3.46-.07,5.19-.1Z" transform="translate(-590.47 -259.74)"/><path class="cls-11" d="M720.1,641.24l-3.23-.33a1.74,1.74,0,0,0-.2-.66c.09-5.24.21-10.47.25-15.71,0-1.69-.21-3.38-.32-5.07a1.34,1.34,0,0,0,.06-.74c1-.37,2.4,0,3-1.58-1.73-1.57-3.54-3.17-5.3-4.83q-7.54-7.08-15-14.19-9.37-8.89-18.74-17.81c-7.8-7.43-15.57-14.9-23.39-22.31a18.29,18.29,0,0,0-2.82-1.85,1,1,0,0,1,0-.69,1.45,1.45,0,0,0,.79-.17,3.34,3.34,0,0,0,2.84-.66l1.48-.18c1.85,0,3.7.17,5.42-.7h6.48c1.71.86,3.55.73,5.38.69l1.62.17,2.71.67,1.44.24,2,.68a.67.67,0,0,0,.7.15l1.89.7a.63.63,0,0,0,.68.18l1.92.77,0,0,1.7.78,3.49,1.81,1.69.89h0l1.67,1.11.92.6,1.68,1.2,1.76,1.41,2.56,2.09,4.06,4,2.08,2.56,1.36,1.76c.41.59.81,1.18,1.22,1.76l.49.84,1.21,1.74h0c.17.44.33.88.81,2.16.16-1.34.21-1.8.26-2.25.07-1.28.19-2.56.19-3.84q0-13.7,0-27.4c0-1.42-.18-2.84-.27-4.26l-.13-3.41c1.24.6.92,1.83,1.13,2.84.26.45.44,1.2.8,1.3,1.59.46,3.24.73,4.86,1.07l2.79.62-.79,1c-.07,1.15-.2,2.29-.2,3.43q0,42.26,0,84.5c0,1.29.17,2.57.26,3.85a1.84,1.84,0,0,0-.2.64Z" transform="translate(-590.47 -259.74)"/><path class="cls-12" d="M726.11,547.43l-2.79-.62c-1.62-.34-3.27-.61-4.86-1.07-.36-.1-.54-.85-.8-1.3,2.67-2.4,5.38-4.76,8-7.2q6.33-5.87,12.59-11.8,9.39-8.88,18.76-17.82c4.7-4.44,9.46-8.82,14.11-13.32,3.61-3.49,7.09-7.12,10.63-10.69l1.57.09-.1-.11.93,2.8a.41.41,0,0,0,.11.61l.75,3.78.14,1.42q0,6.06-.07,12.12a.34.34,0,0,0-.07.57l-.9,4.58,0-.07c-.26.9-.53,1.8-.79,2.7h0l-.88,2.59h0l-1,2.55,0-.08-.86,1.83,0,0-.91,1.77,0-.05c-.32.58-.65,1.16-1,1.74l0-.07-1.7,2.7,0,0c-.67.86-1.33,1.73-2,2.59-.2.27-.4.53-.59.8l-7.88,7.9-.82.62-2.57,2h0l-2.64,1.7h0l-1.68.94h0l-3.44,1.72h0l-1.78.79h0a15.51,15.51,0,0,0-2.07.44A56.38,56.38,0,0,1,726.11,547.43Z" transform="translate(-590.47 -259.74)"/><path class="cls-12" d="M654.39,556.16a18.29,18.29,0,0,1,2.82,1.85c7.82,7.41,15.59,14.88,23.39,22.31q9.36,8.92,18.74,17.81,7.5,7.11,15,14.19c1.76,1.66,3.57,3.26,5.3,4.83-.62,1.61-2,1.21-3,1.58l-1.79.66h0a160.19,160.19,0,0,1-18.07,0v0c-1.28-1-2.82-.86-4.3-.95v0l-7.82-2.58h0l-6.94-3.46h0l-1.65-1-.17.19.19-.17c-.72-.89-1.46-1.75-2.78-1.55l-1-.84a7,7,0,0,0-4.24-3.48c-1.13-1.15-2.27-2.29-3.4-3.43a4.66,4.66,0,0,0-2.66-3.38l-.83-1a3.35,3.35,0,0,0-1.62-2.76l0,.06-1-1.69,0,0-.93-1.68v0l-.86-1.69v0l-.83-1.76h0c-.27-.61-.53-1.23-.79-1.84l0,.08-.95-2.64,0,.06c-.29-1-.57-1.94-.86-2.91a.31.31,0,0,0-.11-.52c-.26-1.23-.53-2.45-.79-3.68a.44.44,0,0,0-.08-.65l.06-14.73.19-.21-.14-.25c.28-1.27.57-2.55.85-3.83l0,.06Z" transform="translate(-590.47 -259.74)"/><path class="cls-11" d="M781.76,483.61c-3.54,3.57-7,7.2-10.63,10.69-4.65,4.5-9.41,8.88-14.11,13.32q-9.39,8.91-18.76,17.82-6.27,5.94-12.59,11.8c-2.63,2.44-5.34,4.8-8,7.2-.21-1,.11-2.24-1.13-2.84l-.66-.16,0,.09c-.09-1.86.09-3.76-.87-5.47,0-.48,0-1-.08-1.43,0-2.32,0-4.63,0-7a.54.54,0,0,0,0-.68c.93-1.69.79-3.54.82-5.37a.44.44,0,0,0,.09-.58c.25-1,.51-1.92.77-2.88a.4.4,0,0,0,.1-.55l.72-2a.43.43,0,0,0,.15-.57c.27-.67.53-1.35.8-2v0c.27-.59.54-1.18.8-1.77l0,0c.27-.56.55-1.12.82-1.67l.93-1.94c.32-.5.63-1,.94-1.51l0,0a1.66,1.66,0,0,0,.9-1.82l.78-.92a2.7,2.7,0,0,0,1.75-2.52l7.79-7.81a2.49,2.49,0,0,0,2.41-1.71l1.06-.9a1.09,1.09,0,0,0,1.52-.83l2.81-1.79a1.43,1.43,0,0,0,1.8-.73l0,0,1.92-.87,2.38-1,1.89-.76a.75.75,0,0,0,.73-.18l1.89-.68a.63.63,0,0,0,.69-.14l2.68-.75a.86.86,0,0,0,.79-.13,5,5,0,0,0,3.58-.73l1.63-.15h13.81l1.62.14a5.18,5.18,0,0,0,3.58.73.81.81,0,0,0,.78.13Z" transform="translate(-590.47 -259.74)"/><path class="cls-8" d="M721,875.69c1.58,0,3.15.15,4.73.16q36.21,0,72.43,0c3.16,0,6.32-.1,9.47-.16-.46.3-.9.78-1.4.85a19,19,0,0,1-3,.1q-81.74,0-163.46,0c-1.52,0-3.2.55-4.51-.79q40.5,0,81,0C717.82,875.83,719.4,875.74,721,875.69Z" transform="translate(-590.47 -259.74)"/><path class="cls-8" d="M716.67,640.25a1.74,1.74,0,0,1,.2.66c-1.73,0-3.46.1-5.19.1H613.54L598,641a8.07,8.07,0,0,1,1.94-.74,33.06,33.06,0,0,1,3.45,0Z" transform="translate(-590.47 -259.74)"/><path class="cls-8" d="M725.18,640.89a1.84,1.84,0,0,1,.2-.64q56.83,0,113.67,0c1.66,0,3.48-.61,5,.76l-113.65,0C728.63,641,726.91,640.93,725.18,640.89Z" transform="translate(-590.47 -259.74)"/><path class="cls-8" d="M726.11,547.43a56.38,56.38,0,0,0,25.65-3,15.51,15.51,0,0,1,2.07-.44c-.53,1.19-1.67,1.52-2.75,1.82-5.06,1.43-10.12,2.86-15.48,2.68-3.42-.12-6.85,0-10.28,0Z" transform="translate(-590.47 -259.74)"/><path class="cls-8" d="M593.69,644.6q0,14.71,0,29.44a2.53,2.53,0,0,1-.9-2.29v-24.9A2.37,2.37,0,0,1,593.69,644.6Z" transform="translate(-590.47 -259.74)"/><path class="cls-8" d="M696.8,619.34a160.19,160.19,0,0,0,18.07,0c-.59.31-1.19.89-1.79.9q-7.26.12-14.52,0C698,620.27,697.38,619.67,696.8,619.34Z" transform="translate(-590.47 -259.74)"/><path class="cls-8" d="M766.76,536.28l7.88-7.9c.19,2-1.39,3-2.6,4.09C770.42,533.9,769.44,536.3,766.76,536.28Z" transform="translate(-590.47 -259.74)"/><path class="cls-8" d="M652.59,561.45l-.06,14.73c-.27-.48-.77-.95-.77-1.43q-.09-6,0-11.9C651.78,562.38,652.3,561.92,652.59,561.45Z" transform="translate(-590.47 -259.74)"/><path class="cls-8" d="M774.69,481.73H760.88c.5-.25,1-.7,1.5-.71,3.6-.07,7.21-.06,10.81,0C773.69,481,774.19,481.48,774.69,481.73Z" transform="translate(-590.47 -259.74)"/><path class="cls-8" d="M785.09,504.32q0-6.06.07-12.12c.23.35.66.69.66,1,0,3.37,0,6.73,0,10.09C785.79,503.66,785.33,504,785.09,504.32Z" transform="translate(-590.47 -259.74)"/><path class="cls-8" d="M832.87,679.2c0-.73-.07-1.55.86-1.63,1.57-.12,3.14-.09,4.71-.11l5.58-.08a2.33,2.33,0,0,1-2.25,1c-1.73,0-3.46,0-5.18,0A6.69,6.69,0,0,0,832.87,679.2Z" transform="translate(-590.47 -259.74)"/><path class="cls-8" d="M827.56,756.29c0-3.85-.31-7.72.81-11.49,0,2.94,0,5.88.07,8.82C828.44,754.61,828.48,755.61,827.56,756.29Z" transform="translate(-590.47 -259.74)"/><path class="cls-8" d="M612.75,732.67a12.12,12.12,0,0,1,.61,2.46c.13,3,.15,6,.21,9-.93-.67-.9-1.67-.89-2.66C612.7,738.56,612.73,735.62,612.75,732.67Z" transform="translate(-590.47 -259.74)"/><path class="cls-8" d="M828.43,743.3c0-3.84-.31-7.71.81-11.48l.06,8.82C829.31,741.62,829.35,742.62,828.43,743.3Z" transform="translate(-590.47 -259.74)"/><path class="cls-8" d="M611.88,719.69a12.82,12.82,0,0,1,.61,2.46c.13,3,.15,6,.22,9-.93-.67-.9-1.67-.9-2.66C611.83,725.58,611.86,722.63,611.88,719.69Z" transform="translate(-590.47 -259.74)"/><path class="cls-8" d="M829.29,730.31c.05-3.84-.3-7.71.82-11.47l.06,8.81C830.18,728.63,830.21,729.63,829.29,730.31Z" transform="translate(-590.47 -259.74)"/><path class="cls-8" d="M611,706.71a12.12,12.12,0,0,1,.61,2.46c.13,3,.15,6,.21,9-.92-.67-.89-1.67-.88-2.66Z" transform="translate(-590.47 -259.74)"/><path class="cls-8" d="M830.16,717.32c.05-3.84-.3-7.7.81-11.46q0,4.41.07,8.8C831,715.64,831.08,716.64,830.16,717.32Z" transform="translate(-590.47 -259.74)"/><path class="cls-8" d="M610.15,693.73a12.16,12.16,0,0,1,.6,2.45c.13,3,.15,6,.22,9-.93-.67-.9-1.67-.89-2.65Q610.11,698.14,610.15,693.73Z" transform="translate(-590.47 -259.74)"/><path class="cls-8" d="M831,704.33c.05-3.83-.3-7.69.81-11.45,0,2.93,0,5.86.06,8.79C831.91,702.65,832,703.65,831,704.33Z" transform="translate(-590.47 -259.74)"/><path class="cls-8" d="M598.83,677.53c3,0,6,0,9,0,1.12,0,1.41.71,1.3,1.7-1.81-1.18-3.86-.73-5.83-.86C601.78,678.23,600.11,678.88,598.83,677.53Z" transform="translate(-590.47 -259.74)"/><path class="cls-8" d="M824.08,808.24c0-3.85-.31-7.74.81-11.51,0,2.94.06,5.9.08,8.85C825,806.56,825,807.56,824.08,808.24Z" transform="translate(-590.47 -259.74)"/><path class="cls-8" d="M826.69,769.27c0-3.84-.31-7.72.81-11.49,0,2.94,0,5.89.07,8.83C827.58,767.6,827.61,768.6,826.69,769.27Z" transform="translate(-590.47 -259.74)"/><path class="cls-8" d="M823.21,821.23c0-3.86-.31-7.74.82-11.53,0,3,.05,5.91.07,8.86C824.11,819.55,824.14,820.55,823.21,821.23Z" transform="translate(-590.47 -259.74)"/><path class="cls-8" d="M618.8,822.77a22.38,22.38,0,0,1,.65,3.3c.13,2.71.12,5.43.17,8.14-.92-.68-.88-1.67-.88-2.65Z" transform="translate(-590.47 -259.74)"/><path class="cls-8" d="M822.34,834.22c0-3.86-.31-7.75.82-11.53,0,2.95.05,5.91.08,8.86C823.24,832.54,823.28,833.54,822.34,834.22Z" transform="translate(-590.47 -259.74)"/><path class="cls-8" d="M617.07,796.81a23.72,23.72,0,0,1,.64,3.3c.13,2.7.12,5.41.17,8.12-.91-.68-.87-1.67-.87-2.65Z" transform="translate(-590.47 -259.74)"/><path class="cls-8" d="M619.67,835.75a12.55,12.55,0,0,1,.61,2.45c.13,3,.15,6,.21,9-.92-.68-.88-1.67-.88-2.65Z" transform="translate(-590.47 -259.74)"/><path class="cls-8" d="M825,795.25c0-3.85-.31-7.73.81-11.5q0,4.41.08,8.84C825.84,793.57,825.88,794.58,825,795.25Z" transform="translate(-590.47 -259.74)"/><path class="cls-8" d="M620.54,848.73a12.73,12.73,0,0,1,.61,2.45c.13,3,.15,6,.22,9-.93-.67-.9-1.67-.89-2.65Z" transform="translate(-590.47 -259.74)"/><path class="cls-8" d="M825.82,782.26c0-3.85-.31-7.72.81-11.5,0,3,0,5.89.07,8.84C826.71,780.59,826.74,781.59,825.82,782.26Z" transform="translate(-590.47 -259.74)"/><path class="cls-8" d="M617.93,809.79a22.38,22.38,0,0,1,.65,3.3c.13,2.71.12,5.42.17,8.13-.91-.67-.88-1.67-.87-2.65C617.89,815.64,617.92,812.72,617.93,809.79Z" transform="translate(-590.47 -259.74)"/><path class="cls-8" d="M616.23,784.59c.23,1.4.59,2.79.68,4.19.13,2.15.08,4.31.1,6.47a7.87,7.87,0,0,1-.82-2.25C616.11,790.2,616.2,787.4,616.23,784.59Z" transform="translate(-590.47 -259.74)"/><path class="cls-8" d="M613.62,745.65a40,40,0,0,1,.68,4.18c.13,2.14.08,4.3.11,6.45a7.48,7.48,0,0,1-.82-2.25C613.51,751.24,613.6,748.44,613.62,745.65Z" transform="translate(-590.47 -259.74)"/><path class="cls-8" d="M614.49,758.63c.23,1.4.59,2.78.68,4.19.13,2.14.08,4.3.11,6.45a7.48,7.48,0,0,1-.82-2.25C614.38,764.23,614.46,761.43,614.49,758.63Z" transform="translate(-590.47 -259.74)"/><path class="cls-8" d="M615.36,771.61c.23,1.4.59,2.78.68,4.19.13,2.15.08,4.3.1,6.46a7.87,7.87,0,0,1-.82-2.25C615.25,777.21,615.33,774.41,615.36,771.61Z" transform="translate(-590.47 -259.74)"/><path class="cls-8" d="M821.51,846.33c0-3.57-.36-7.17.78-10.67,0,2.81.11,5.61,0,8.41A7.53,7.53,0,0,1,821.51,846.33Z" transform="translate(-590.47 -259.74)"/><path class="cls-8" d="M820.64,859.32c0-3.58-.36-7.18.78-10.67,0,2.8.12,5.61,0,8.41A7.53,7.53,0,0,1,820.64,859.32Z" transform="translate(-590.47 -259.74)"/><path class="cls-8" d="M684.67,615.9l7.82,2.58A9.27,9.27,0,0,1,684.67,615.9Z" transform="translate(-590.47 -259.74)"/><path class="cls-8" d="M609.28,682.51a3.55,3.55,0,0,0,.63.28c.09,1.12.18,2.23.28,3.35l-.09,6.07a7.49,7.49,0,0,1-.84-2.21C609.17,687.5,609.26,685,609.28,682.51Z" transform="translate(-590.47 -259.74)"/><path class="cls-8" d="M677.73,612.45l6.94,3.46A7.76,7.76,0,0,1,677.73,612.45Z" transform="translate(-590.47 -259.74)"/><path class="cls-8" d="M831.9,691.34l-.12-5.22.27-3.3a5,5,0,0,0,.63-.38c0,2.22.13,4.45,0,6.67A7.65,7.65,0,0,1,831.9,691.34Z" transform="translate(-590.47 -259.74)"/><path class="cls-8" d="M668.13,605.6a7,7,0,0,1,4.24,3.48C670.25,608.78,669.15,607.23,668.13,605.6Z" transform="translate(-590.47 -259.74)"/><path class="cls-8" d="M715,527.68v7A6.47,6.47,0,0,1,715,527.68Z" transform="translate(-590.47 -259.74)"/><path class="cls-8" d="M715,536.06c1,1.71.78,3.61.87,5.47a5.36,5.36,0,0,1-.9-1.74A29,29,0,0,1,715,536.06Z" transform="translate(-590.47 -259.74)"/><path class="cls-8" d="M662.07,598.79a4.66,4.66,0,0,1,2.66,3.38C663.33,601.44,662.18,600.53,662.07,598.79Z" transform="translate(-590.47 -259.74)"/><path class="cls-8" d="M676.77,554.44c-1.83,0-3.67.17-5.38-.69a33.12,33.12,0,0,1,3.45,0A7.71,7.71,0,0,1,676.77,554.44Z" transform="translate(-590.47 -259.74)"/><path class="cls-8" d="M664.91,553.76c-1.72.87-3.57.74-5.42.7a6.35,6.35,0,0,1,1.79-.74A33.85,33.85,0,0,1,664.91,553.76Z" transform="translate(-590.47 -259.74)"/><path class="cls-8" d="M715.8,521.63c0,1.83.11,3.68-.82,5.37a33.81,33.81,0,0,1,0-3.63A6,6,0,0,1,715.8,521.63Z" transform="translate(-590.47 -259.74)"/><path class="cls-8" d="M784.12,509.47l.9-4.58a16.33,16.33,0,0,1,0,2.88A5.7,5.7,0,0,1,784.12,509.47Z" transform="translate(-590.47 -259.74)"/><path class="cls-8" d="M692.49,618.44c1.48.09,3-.06,4.3.95a12.28,12.28,0,0,1-2.57,0A6,6,0,0,1,692.49,618.44Z" transform="translate(-590.47 -259.74)"/><path class="cls-8" d="M755.62,543.21l3.44-1.72C758.47,543.18,757.13,543.37,755.62,543.21Z" transform="translate(-590.47 -259.74)"/><path class="cls-8" d="M759.25,481.87a5,5,0,0,1-3.58.73C756.67,481.4,758,481.91,759.25,481.87Z" transform="translate(-590.47 -259.74)"/><path class="cls-8" d="M673.33,609.92c1.32-.2,2.06.66,2.78,1.55A2.25,2.25,0,0,1,673.33,609.92Z" transform="translate(-590.47 -259.74)"/><path class="cls-8" d="M760.74,540.55l2.64-1.7A2.2,2.2,0,0,1,760.74,540.55Z" transform="translate(-590.47 -259.74)"/><path class="cls-8" d="M653.49,557.16c-.28,1.28-.57,2.56-.85,3.83C652.69,559.67,652,558.17,653.49,557.16Z" transform="translate(-590.47 -259.74)"/><path class="cls-8" d="M705.29,567.92l-2.56-2.09A2.23,2.23,0,0,1,705.29,567.92Z" transform="translate(-590.47 -259.74)"/><path class="cls-8" d="M711.43,574.51,709.35,572A2.26,2.26,0,0,1,711.43,574.51Z" transform="translate(-590.47 -259.74)"/><path class="cls-8" d="M652.61,576.83c.26,1.23.53,2.45.79,3.68C652.11,579.5,652.65,578.1,652.61,576.83Z" transform="translate(-590.47 -259.74)"/><path class="cls-8" d="M763.37,538.86l2.57-2A2.16,2.16,0,0,1,763.37,538.86Z" transform="translate(-590.47 -259.74)"/><path class="cls-8" d="M775.23,527.58c.66-.86,1.32-1.73,2-2.59A2.17,2.17,0,0,1,775.23,527.58Z" transform="translate(-590.47 -259.74)"/><path class="cls-8" d="M777.19,525l1.7-2.7A2.18,2.18,0,0,1,777.19,525Z" transform="translate(-590.47 -259.74)"/><path class="cls-8" d="M715.87,541.44l.66.16c0,1.14.09,2.27.13,3.41C715.37,544.05,715.89,542.68,715.87,541.44Z" transform="translate(-590.47 -259.74)"/><path class="cls-8" d="M725.34,500.85a2.7,2.7,0,0,1-1.75,2.52A2.58,2.58,0,0,1,725.34,500.85Z" transform="translate(-590.47 -259.74)"/><path class="cls-8" d="M735.54,491.33a2.49,2.49,0,0,1-2.41,1.71A2.54,2.54,0,0,1,735.54,491.33Z" transform="translate(-590.47 -259.74)"/><path class="cls-8" d="M785,490.78l-.75-3.78C785.55,488.06,785,489.48,785,490.78Z" transform="translate(-590.47 -259.74)"/><path class="cls-8" d="M659.62,595.07a3.35,3.35,0,0,1,1.62,2.76A2.34,2.34,0,0,1,659.62,595.07Z" transform="translate(-590.47 -259.74)"/><path class="cls-8" d="M621.39,860.9c.27,1.2.53,2.4.8,3.6C620.92,863.52,621.46,862.14,621.39,860.9Z" transform="translate(-590.47 -259.74)"/><path class="cls-8" d="M819.77,864.51c.27-1.22.53-2.44.8-3.67C820.53,862.11,821.07,863.51,819.77,864.51Z" transform="translate(-590.47 -259.74)"/><path class="cls-8" d="M623.15,867a3.31,3.31,0,0,1,1.62,2.69A2.48,2.48,0,0,1,623.15,867Z" transform="translate(-590.47 -259.74)"/><path class="cls-8" d="M816.9,869.63l1.91-2.65A2.22,2.22,0,0,1,816.9,869.63Z" transform="translate(-590.47 -259.74)"/><path class="cls-8" d="M779.89,482.6a5.18,5.18,0,0,1-3.58-.73C777.55,481.91,778.89,481.39,779.89,482.6Z" transform="translate(-590.47 -259.74)"/><path class="cls-8" d="M754.88,482.73l-2.68.75C752.89,482.49,753.91,482.69,754.88,482.73Z" transform="translate(-590.47 -259.74)"/><path class="cls-8" d="M781.76,483.61l-1.09-.88c1,0,2.11-.28,2.66,1Z" transform="translate(-590.47 -259.74)"/><path class="cls-8" d="M784.16,486.39l-.93-2.8C784.5,484.2,784.19,485.34,784.16,486.39Z" transform="translate(-590.47 -259.74)"/><path class="cls-8" d="M783.37,512.1c.26-.9.53-1.8.79-2.7C784.22,510.4,784.43,511.43,783.37,512.1Z" transform="translate(-590.47 -259.74)"/><path class="cls-8" d="M782.49,514.69l.88-2.59C783.35,513.06,783.55,514.08,782.49,514.69Z" transform="translate(-590.47 -259.74)"/><path class="cls-8" d="M781.48,517.24l1-2.55C782.47,515.66,782.7,516.74,781.48,517.24Z" transform="translate(-590.47 -259.74)"/><path class="cls-8" d="M716.66,518.17c-.26,1-.52,1.92-.77,2.88C715.83,520,715.57,518.91,716.66,518.17Z" transform="translate(-590.47 -259.74)"/><path class="cls-8" d="M658,554.64a3.34,3.34,0,0,1-2.84.66C655.94,554.31,657,554.58,658,554.64Z" transform="translate(-590.47 -259.74)"/><path class="cls-8" d="M681.1,555.28l-2.71-.67C679.36,554.56,680.37,554.34,681.1,555.28Z" transform="translate(-590.47 -259.74)"/><path class="cls-8" d="M653.51,581c.29,1,.57,1.94.86,2.91C653.14,583.25,653.46,582.1,653.51,581Z" transform="translate(-590.47 -259.74)"/><path class="cls-8" d="M654.34,583.88l.95,2.64C654.06,586,654.31,584.89,654.34,583.88Z" transform="translate(-590.47 -259.74)"/><path class="cls-8" d="M631.76,874.82l2.73.89C633.48,875.73,632.39,876,631.76,874.82Z" transform="translate(-590.47 -259.74)"/><path class="cls-8" d="M807.57,875.71l2.64-.91C809.63,876,808.56,875.74,807.57,875.71Z" transform="translate(-590.47 -259.74)"/><path class="cls-8" d="M751.51,483.62l-1.89.68Z" transform="translate(-590.47 -259.74)"/><path class="cls-8" d="M748.89,484.48l-1.89.76A1.72,1.72,0,0,1,748.89,484.48Z" transform="translate(-590.47 -259.74)"/><path class="cls-8" d="M744.62,486.23l-1.92.87C743.07,486.22,743.82,486.16,744.62,486.23Z" transform="translate(-590.47 -259.74)"/><path class="cls-8" d="M742.73,487.08a1.43,1.43,0,0,1-1.8.73Z" transform="translate(-590.47 -259.74)"/><path class="cls-8" d="M738.12,489.6a1.09,1.09,0,0,1-1.52.83Z" transform="translate(-590.47 -259.74)"/><path class="cls-8" d="M722.81,504.29a1.66,1.66,0,0,1-.9,1.82A1.66,1.66,0,0,1,722.81,504.29Z" transform="translate(-590.47 -259.74)"/><path class="cls-8" d="M721.93,506.08c-.31.5-.62,1-.94,1.51C721.31,507.09,721.62,506.58,721.93,506.08Z" transform="translate(-590.47 -259.74)"/><path class="cls-8" d="M720.06,509.53c-.27.55-.55,1.11-.82,1.67C719.51,510.64,719.79,510.08,720.06,509.53Z" transform="translate(-590.47 -259.74)"/><path class="cls-8" d="M719.22,511.24c-.26.59-.53,1.18-.8,1.77C718.69,512.42,719,511.83,719.22,511.24Z" transform="translate(-590.47 -259.74)"/><path class="cls-8" d="M718.43,513c-.27.67-.53,1.35-.8,2C717.55,514.2,717.59,513.44,718.43,513Z" transform="translate(-590.47 -259.74)"/><path class="cls-8" d="M717.48,515.58l-.72,2A1.88,1.88,0,0,1,717.48,515.58Z" transform="translate(-590.47 -259.74)"/><path class="cls-8" d="M780.67,519l.86-1.83C781.62,518,781.53,518.65,780.67,519Z" transform="translate(-590.47 -259.74)"/><path class="cls-8" d="M779.79,520.71l.91-1.77C780.75,519.71,780.64,520.4,779.79,520.71Z" transform="translate(-590.47 -259.74)"/><path class="cls-8" d="M778.84,522.4c.33-.58.66-1.16,1-1.74C779.88,521.45,779.77,522.15,778.84,522.4Z" transform="translate(-590.47 -259.74)"/><path class="cls-8" d="M759.08,541.48l1.68-.94C760.49,541.37,759.83,541.51,759.08,541.48Z" transform="translate(-590.47 -259.74)"/><path class="cls-8" d="M753.82,544l1.78-.79A1.48,1.48,0,0,1,753.82,544Z" transform="translate(-590.47 -259.74)"/><path class="cls-8" d="M654.39,556.16l-.92,1.06c0-.76.06-1.45.91-1.75A1,1,0,0,0,654.39,556.16Z" transform="translate(-590.47 -259.74)"/><path class="cls-8" d="M684.58,556.2l-2-.68A1.87,1.87,0,0,1,684.58,556.2Z" transform="translate(-590.47 -259.74)"/><path class="cls-8" d="M687.17,557.05l-1.89-.7Z" transform="translate(-590.47 -259.74)"/><path class="cls-8" d="M689.77,558l-1.92-.77A1.68,1.68,0,0,1,689.77,558Z" transform="translate(-590.47 -259.74)"/><path class="cls-8" d="M691.51,558.8l-1.7-.78Z" transform="translate(-590.47 -259.74)"/><path class="cls-8" d="M696.69,561.5l-1.69-.89Z" transform="translate(-590.47 -259.74)"/><path class="cls-8" d="M698.37,562.62l-1.67-1.11C697.51,561.5,698.19,561.69,698.37,562.62Z" transform="translate(-590.47 -259.74)"/><path class="cls-8" d="M701,564.42l-1.68-1.2C700.12,563.24,700.82,563.45,701,564.42Z" transform="translate(-590.47 -259.74)"/><path class="cls-8" d="M714,578c-.41-.58-.81-1.17-1.22-1.76C713.8,576.44,714,577.16,714,578Z" transform="translate(-590.47 -259.74)"/><path class="cls-8" d="M715.71,580.61l-1.21-1.74C715.52,579,715.75,579.72,715.71,580.61Z" transform="translate(-590.47 -259.74)"/><path class="cls-8" d="M716.74,580.51c0,.45-.1.91-.26,2.25-.48-1.28-.64-1.72-.81-2.16Z" transform="translate(-590.47 -259.74)"/><path class="cls-8" d="M655.25,586.44c.26.61.52,1.23.79,1.84C655.24,587.9,655.16,587.21,655.25,586.44Z" transform="translate(-590.47 -259.74)"/><path class="cls-8" d="M656,588.27l.83,1.76Z" transform="translate(-590.47 -259.74)"/><path class="cls-8" d="M656.87,590.06l.86,1.69Z" transform="translate(-590.47 -259.74)"/><path class="cls-8" d="M657.74,591.78l.93,1.68Z" transform="translate(-590.47 -259.74)"/><path class="cls-8" d="M658.65,593.44l1,1.69C658.77,594.91,658.64,594.22,658.65,593.44Z" transform="translate(-590.47 -259.74)"/><path class="cls-8" d="M676.09,611.45l1.65,1C677,612.5,676.26,612.4,676.09,611.45Z" transform="translate(-590.47 -259.74)"/><path class="cls-8" d="M714.87,619.39l1.79-.66a1.34,1.34,0,0,1-.06.74Z" transform="translate(-590.47 -259.74)"/><path class="cls-8" d="M595.9,642l-1.33,1Z" transform="translate(-590.47 -259.74)"/><path class="cls-8" d="M594.65,642.92l-1,1.74C593.64,643.88,593.76,643.18,594.65,642.92Z" transform="translate(-590.47 -259.74)"/><path class="cls-8" d="M596.24,676.73l1.86.7Z" transform="translate(-590.47 -259.74)"/><path class="cls-8" d="M843.94,677.42l1.77-1C845.45,677.31,844.75,677.46,843.94,677.42Z" transform="translate(-590.47 -259.74)"/><path class="cls-8" d="M622.31,865.07c.3.67.59,1.34.88,2C622.28,866.68,622.24,865.9,622.31,865.07Z" transform="translate(-590.47 -259.74)"/><path class="cls-8" d="M818.76,867.07l.9-2.06C819.74,865.86,819.71,866.67,818.76,867.07Z" transform="translate(-590.47 -259.74)"/><path class="cls-8" d="M811.89,874l1.73-1.21C813.47,873.76,812.76,874,811.89,874Z" transform="translate(-590.47 -259.74)"/><path class="cls-8" d="M630,874.13l1.78.72Z" transform="translate(-590.47 -259.74)"/><path class="cls-8" d="M810.15,874.84c.6-.3,1.2-.6,1.79-.91C811.61,874.76,810.92,874.88,810.15,874.84Z" transform="translate(-590.47 -259.74)"/><path class="cls-15" d="M832.05,682.82l-.27,3.3-105.21,0c-1.88,0-3.75,0-5.63.07l0-.1,0-8.6-.06-.1c7.21,0,14.42.05,21.63.05h83.92c1.57,0,3.13.06,4.69.09C832.3,679.38,831.53,681.21,832.05,682.82Z" transform="translate(-590.47 -259.74)"/><path class="cls-19" d="M721,677.53l0,8.6H610.19c-.1-1.12-.19-2.23-.28-3.35.14-1.56.28-3.11.43-4.86.91-.15,1.73-.33,2.55-.42a16.61,16.61,0,0,1,1.73,0h105.1C720.16,677.5,720.59,677.52,721,677.53Z" transform="translate(-590.47 -259.74)"/></svg>