<svg xmlns="http://www.w3.org/2000/svg" viewBox="0 0 474.13 389.87"><defs><style>.cls-1{isolation:isolate;}.cls-2{fill:#c3dadd;}.cls-3{fill:#2d4c71;}.cls-4{fill:#e3e2d7;}.cls-5,.cls-6{fill:#5282bd;}.cls-12,.cls-14,.cls-20,.cls-29,.cls-35,.cls-6,.cls-9{mix-blend-mode:multiply;}.cls-7{fill:#864e2c;}.cls-8{fill:#b46651;}.cls-9{fill:#9c4e42;}.cls-10{fill:#18534e;}.cls-11{fill:#49a199;}.cls-12{fill:#456ea0;opacity:0.51;}.cls-13{fill:#3b5d6d;}.cls-14,.cls-41{fill:#abac98;}.cls-14{opacity:0.5;}.cls-15{fill:#54564c;}.cls-16{fill:#507147;}.cls-17{fill:#5b895d;}.cls-18{fill:#8ab676;}.cls-19{fill:#edead3;}.cls-20{fill:#e2dfca;}.cls-21{fill:#bdbdac;}.cls-22{fill:#416873;}.cls-23{fill:#5f91a0;}.cls-24{fill:#efcaac;}.cls-25,.cls-29{fill:#f6dfc9;}.cls-26{fill:#1b374f;}.cls-27{fill:#492717;}.cls-28{fill:#fff;}.cls-30{fill:#d2a27c;}.cls-31{fill:#7d8282;}.cls-32{fill:#9ba0a0;}.cls-33{fill:#bec0c2;}.cls-34{fill:#72533d;}.cls-36{fill:#a4775a;}.cls-37{fill:#fffae3;}.cls-38{fill:#231f20;}.cls-39{fill:#3e6b3e;}.cls-40{fill:#808285;}.cls-42{fill:#a6d17a;}.cls-43{fill:#976b51;}</style></defs><g class="cls-1"><g id="Layer_1" data-name="Layer 1"><path class="cls-2" d="M352.21,150.31h-175a27.48,27.48,0,0,1-27.48-27.48h0a27.48,27.48,0,0,1,27.48-27.49h175a27.49,27.49,0,0,1,27.49,27.49h0A27.48,27.48,0,0,1,352.21,150.31Z" transform="translate(-0.47 -0.38)"/><path class="cls-2" d="M390.54,287.34H129.4a27.48,27.48,0,0,1-27.48-27.49h0a27.48,27.48,0,0,1,27.48-27.49H390.54A27.49,27.49,0,0,1,418,259.85h0A27.49,27.49,0,0,1,390.54,287.34Z" transform="translate(-0.47 -0.38)"/><rect class="cls-2" y="327.17" width="474.13" height="54.97" rx="27.49"/><rect class="cls-2" x="48.3" y="201.37" width="327.19" height="24.21" rx="12.01"/><rect class="cls-2" x="180.88" y="62.49" width="93.07" height="24.21" rx="12.01"/><rect class="cls-2" x="174.59" y="291.21" width="270.98" height="30.31" rx="15.16"/><rect class="cls-2" x="25.22" y="291.21" width="143.52" height="30.31" rx="15.16"/><circle class="cls-2" cx="391" cy="213.48" r="12.49"/><circle class="cls-2" cx="229.96" cy="42.13" r="12.49" transform="translate(168.57 267.46) rotate(-85.28)"/><circle class="cls-2" cx="115.24" cy="122.83" r="23.91" transform="translate(-38.3 52.19) rotate(-22.17)"/><circle class="cls-2" cx="69.38" cy="260.83" r="24.44" transform="translate(-200.89 267.4) rotate(-76.58)"/><path class="cls-2" d="M333.56,196.91H114.09a20.28,20.28,0,0,1-20.28-20.28h0a20.28,20.28,0,0,1,20.28-20.27H333.56a20.28,20.28,0,0,1,20.27,20.27h0A20.28,20.28,0,0,1,333.56,196.91Z" transform="translate(-0.47 -0.38)"/><circle class="cls-2" cx="71.56" cy="177.35" r="10.22" transform="translate(-104.92 102.16) rotate(-45)"/><circle class="cls-2" cx="374.98" cy="177.35" r="17.5" transform="translate(139.67 518.9) rotate(-80.83)"/><path class="cls-2" d="M308.76,75A13.86,13.86,0,1,1,294.9,61.12,13.86,13.86,0,0,1,308.76,75Z" transform="translate(-0.47 -0.38)"/><rect class="cls-3" x="371.6" y="306.58" width="9.82" height="61.33"/><rect class="cls-4" x="372.4" y="306.58" width="8.34" height="3.32"/><rect class="cls-5" x="371.6" y="310.27" width="9.82" height="61.33"/><rect class="cls-6" x="380.31" y="310.27" width="1.11" height="61.33"/><rect class="cls-7" x="381.42" y="306.58" width="9.82" height="61.33"/><rect class="cls-4" x="382.22" y="306.58" width="8.34" height="3.32"/><rect class="cls-8" x="381.42" y="310.27" width="9.82" height="61.33"/><rect class="cls-9" x="390.13" y="310.27" width="1.11" height="61.33"/><rect class="cls-10" x="391.25" y="312.84" width="8.88" height="55.42"/><rect class="cls-4" x="391.97" y="312.84" width="7.54" height="3"/><rect class="cls-11" x="391.25" y="316.18" width="8.88" height="55.42"/><rect class="cls-12" x="399.12" y="316.18" width="1.01" height="55.42"/><rect class="cls-3" x="400.12" y="311.11" width="9.14" height="57.06"/><rect class="cls-4" x="400.87" y="311.11" width="7.76" height="3.09"/><rect class="cls-5" x="400.12" y="314.55" width="9.14" height="57.06"/><rect class="cls-6" x="408.23" y="314.55" width="1.04" height="57.06"/><rect class="cls-7" x="409.26" y="311.11" width="9.14" height="57.06"/><rect class="cls-4" x="410.01" y="311.11" width="7.76" height="3.09"/><rect class="cls-8" x="409.26" y="314.55" width="9.14" height="57.06"/><rect class="cls-9" x="417.37" y="314.55" width="1.04" height="57.06"/><rect class="cls-10" x="418.4" y="316.94" width="8.26" height="51.56"/><rect class="cls-4" x="419.07" y="316.94" width="7.01" height="2.79"/><rect class="cls-11" x="418.4" y="320.05" width="8.26" height="51.56"/><rect class="cls-12" x="425.72" y="320.05" width="0.94" height="51.56"/><path class="cls-13" d="M76.14,331.66H59.45l3.15,39.53c0,.67,6.06,1.22,13.54,1.22s13.54-.55,13.54-1.22l3.15-39.53Z" transform="translate(-0.47 -0.38)"/><path class="cls-14" d="M83.35,331.66c-.31,3-1.08,24-1.18,31.52,0,3-.11,6.08-.22,9.11,4.57-.19,7.73-.62,7.73-1.1l3.15-39.53Z" transform="translate(-0.47 -0.38)"/><path class="cls-15" d="M92.83,331.66c0,.65-7.47,1.18-16.69,1.18s-16.69-.53-16.69-1.18,7.47-1.17,16.69-1.17S92.83,331,92.83,331.66Z" transform="translate(-0.47 -0.38)"/><polygon class="cls-16" points="77.56 332.43 76.43 259.67 75.24 257.78 75.19 332.43 77.56 332.43"/><path class="cls-17" d="M56.4,315.18A21.78,21.78,0,0,1,61.93,314c1.73-.2,3.49-.27,5.21-.57A20.17,20.17,0,0,0,70,312.7a14.06,14.06,0,0,0,3.45-1.6c2-1.31,3.75-3.7,2.91-6.19-.74-2.23-3.15-3.6-5.33-4a14.36,14.36,0,0,0-14,5.72,18.93,18.93,0,0,0-3,6.6,12.4,12.4,0,0,0-.39,3.85A6.62,6.62,0,0,1,56.4,315.18Z" transform="translate(-0.47 -0.38)"/><path class="cls-18" d="M74.12,302.17q-.8,0-1.59.09a24.22,24.22,0,0,0-12.86,5.23c-2.94,2.39-5.43,5.67-6,9.47a6.72,6.72,0,0,1,2.68-1.78A21.78,21.78,0,0,1,61.93,314c1.73-.2,3.49-.27,5.21-.57A20.17,20.17,0,0,0,70,312.7a14.06,14.06,0,0,0,3.45-1.6c2-1.31,3.75-3.7,2.91-6.19A5.43,5.43,0,0,0,74.12,302.17Z" transform="translate(-0.47 -0.38)"/><path class="cls-17" d="M93.4,325.6a21.36,21.36,0,0,0-5.53-1.15c-1.74-.2-3.49-.27-5.21-.57a19.82,19.82,0,0,1-2.84-.76,14.44,14.44,0,0,1-3.45-1.6c-2-1.32-3.75-3.7-2.92-6.19.75-2.23,3.16-3.6,5.34-4a14.34,14.34,0,0,1,14,5.72,18.93,18.93,0,0,1,3,6.6,12.37,12.37,0,0,1,.39,3.85A6.53,6.53,0,0,0,93.4,325.6Z" transform="translate(-0.47 -0.38)"/><path class="cls-18" d="M75.67,312.58c.54,0,1.07.05,1.6.1a24.29,24.29,0,0,1,12.86,5.22c2.94,2.39,5.43,5.67,6,9.48a6.72,6.72,0,0,0-2.68-1.78,21.36,21.36,0,0,0-5.53-1.15c-1.74-.2-3.49-.27-5.21-.57a19.82,19.82,0,0,1-2.84-.76,14.44,14.44,0,0,1-3.45-1.6c-2-1.32-3.75-3.7-2.92-6.19A5.5,5.5,0,0,1,75.67,312.58Z" transform="translate(-0.47 -0.38)"/><path class="cls-17" d="M60.36,295.24a18.55,18.55,0,0,1,4.72-1c1.48-.16,3-.23,4.44-.48a16.15,16.15,0,0,0,2.43-.65,12.2,12.2,0,0,0,2.93-1.36c1.71-1.12,3.2-3.16,2.49-5.28-.64-1.9-2.69-3.07-4.55-3.44a12.22,12.22,0,0,0-11.91,4.88,16.09,16.09,0,0,0-2.57,5.63,10.59,10.59,0,0,0-.33,3.28A5.56,5.56,0,0,1,60.36,295.24Z" transform="translate(-0.47 -0.38)"/><path class="cls-18" d="M75.48,284.14c-.46,0-.91,0-1.36.08a20.66,20.66,0,0,0-11,4.45c-2.51,2-4.63,4.84-5.07,8.09a5.56,5.56,0,0,1,2.28-1.52,18.55,18.55,0,0,1,4.72-1c1.48-.16,3-.23,4.44-.48a16.15,16.15,0,0,0,2.43-.65,12.2,12.2,0,0,0,2.93-1.36c1.71-1.12,3.2-3.16,2.49-5.28A4.67,4.67,0,0,0,75.48,284.14Z" transform="translate(-0.47 -0.38)"/><path class="cls-17" d="M91.92,305.44a19,19,0,0,0-4.72-1c-1.48-.17-3-.23-4.44-.49a17,17,0,0,1-2.43-.64A12.3,12.3,0,0,1,77.39,302c-1.7-1.12-3.19-3.15-2.48-5.28.63-1.9,2.68-3.06,4.55-3.43a12.22,12.22,0,0,1,11.91,4.88,16.22,16.22,0,0,1,2.57,5.62,10.93,10.93,0,0,1,.33,3.28A5.71,5.71,0,0,0,91.92,305.44Z" transform="translate(-0.47 -0.38)"/><path class="cls-18" d="M76.8,294.34c.45,0,.91,0,1.36.08a20.6,20.6,0,0,1,11,4.46c2.52,2,4.64,4.83,5.08,8.08a5.83,5.83,0,0,0-2.28-1.52,19,19,0,0,0-4.72-1c-1.48-.17-3-.23-4.44-.49a17,17,0,0,1-2.43-.64A12.3,12.3,0,0,1,77.39,302c-1.7-1.12-3.19-3.15-2.48-5.28A4.62,4.62,0,0,1,76.8,294.34Z" transform="translate(-0.47 -0.38)"/><path class="cls-17" d="M63.82,276.44a14.43,14.43,0,0,1,3.69-.77c1.15-.13,2.32-.18,3.46-.38a14,14,0,0,0,1.9-.5,9.75,9.75,0,0,0,2.29-1.07c1.33-.87,2.5-2.46,1.94-4.12a4.62,4.62,0,0,0-3.55-2.68,9.53,9.53,0,0,0-9.3,3.81,12.7,12.7,0,0,0-2,4.39,8.74,8.74,0,0,0-.26,2.56A4.42,4.42,0,0,1,63.82,276.44Z" transform="translate(-0.47 -0.38)"/><path class="cls-18" d="M75.62,267.77c-.35,0-.71,0-1.06.07A16.11,16.11,0,0,0,66,271.31a10.26,10.26,0,0,0-4,6.31,4.49,4.49,0,0,1,1.78-1.18,14.43,14.43,0,0,1,3.69-.77c1.15-.13,2.32-.18,3.46-.38a14,14,0,0,0,1.9-.5,9.75,9.75,0,0,0,2.29-1.07c1.33-.87,2.5-2.46,1.94-4.12A3.73,3.73,0,0,0,75.62,267.77Z" transform="translate(-0.47 -0.38)"/><path class="cls-17" d="M88.45,285.44a14.89,14.89,0,0,0-3.68-.77c-1.15-.12-2.32-.18-3.46-.38a12.35,12.35,0,0,1-1.9-.5,9.54,9.54,0,0,1-2.29-1.06c-1.33-.88-2.5-2.47-1.94-4.13a4.59,4.59,0,0,1,3.55-2.68,9.55,9.55,0,0,1,9.3,3.81,12.68,12.68,0,0,1,2,4.39,8.15,8.15,0,0,1,.26,2.56A4.42,4.42,0,0,0,88.45,285.44Z" transform="translate(-0.47 -0.38)"/><path class="cls-18" d="M76.65,276.78c.36,0,.71,0,1.07.06a16.15,16.15,0,0,1,8.56,3.48,10.25,10.25,0,0,1,4,6.31,4.47,4.47,0,0,0-1.79-1.19,14.89,14.89,0,0,0-3.68-.77c-1.15-.12-2.32-.18-3.46-.38a12.35,12.35,0,0,1-1.9-.5,9.54,9.54,0,0,1-2.29-1.06c-1.33-.88-2.5-2.47-1.94-4.13A3.6,3.6,0,0,1,76.65,276.78Z" transform="translate(-0.47 -0.38)"/><path class="cls-17" d="M88.7,254.06a14.79,14.79,0,0,0-2.32,3c-.62,1-1.18,2-1.87,2.94a12.11,12.11,0,0,1-1.29,1.48,9.74,9.74,0,0,1-2,1.59c-1.37.8-3.31,1.15-4.55-.09a4.61,4.61,0,0,1-.84-4.37,9.54,9.54,0,0,1,7.53-6.65,12.66,12.66,0,0,1,4.83.14,8.28,8.28,0,0,1,2.41.9A4.4,4.4,0,0,0,88.7,254.06Z" transform="translate(-0.47 -0.38)"/><path class="cls-18" d="M75.71,260.81c.17-.31.34-.62.53-.92a16.08,16.08,0,0,1,6.9-6.14,10.23,10.23,0,0,1,7.41-.77,4.46,4.46,0,0,0-1.85,1.08,14.79,14.79,0,0,0-2.32,3c-.62,1-1.18,2-1.87,2.94a12.11,12.11,0,0,1-1.29,1.48,9.74,9.74,0,0,1-2,1.59c-1.37.8-3.31,1.15-4.55-.09A3.65,3.65,0,0,1,75.71,260.81Z" transform="translate(-0.47 -0.38)"/><path class="cls-17" d="M67,252.28a10.89,10.89,0,0,1,1.73,2.21c.46.73.89,1.5,1.4,2.2a9.21,9.21,0,0,0,1,1.11A7.25,7.25,0,0,0,72.56,259a2.83,2.83,0,0,0,3.41-.06,3.43,3.43,0,0,0,.62-3.27,7.12,7.12,0,0,0-5.62-5,9.33,9.33,0,0,0-3.61.1,6.41,6.41,0,0,0-1.81.68A3.29,3.29,0,0,1,67,252.28Z" transform="translate(-0.47 -0.38)"/><path class="cls-18" d="M76.71,257.33c-.13-.24-.26-.47-.4-.7a12,12,0,0,0-5.16-4.58,7.69,7.69,0,0,0-5.54-.58,3.38,3.38,0,0,1,1.39.81,10.89,10.89,0,0,1,1.73,2.21c.46.73.89,1.5,1.4,2.2a9.21,9.21,0,0,0,1,1.11A7.25,7.25,0,0,0,72.56,259a2.83,2.83,0,0,0,3.41-.06A2.74,2.74,0,0,0,76.71,257.33Z" transform="translate(-0.47 -0.38)"/><path class="cls-19" d="M126.88,352.06s1.42-3.72,7.44-2.79,5.63,10.45-.12,14.51c-4.85,3.44-14.2,5-14.2,5v-2.43s7-.19,11.92-3.87c5.26-3.91,4.4-9.51,1.34-10.31-4.24-1.1-6.81,4.56-6.81,4.56Z" transform="translate(-0.47 -0.38)"/><path class="cls-20" d="M125.12,365.57a25.76,25.76,0,0,1-5.12.79v2.43s1.66-.28,3.94-.86C124.34,367.15,124.74,366.36,125.12,365.57Z" transform="translate(-0.47 -0.38)"/><path class="cls-20" d="M128.77,353.55c.29-1.29.56-2.59.74-3.89a4.77,4.77,0,0,0-2.63,2.4l-.43,4.68A11.24,11.24,0,0,1,128.77,353.55Z" transform="translate(-0.47 -0.38)"/><path class="cls-19" d="M128.6,347.65,111,347.42h-.52l-17.62.23s.76,12.21,7.11,23v0h0c.6,1,5.19,1.74,10.76,1.74s10.26-.78,10.78-1.77C127.83,359.86,128.6,347.65,128.6,347.65Z" transform="translate(-0.47 -0.38)"/><ellipse class="cls-21" cx="110.24" cy="347.27" rx="17.89" ry="1.62"/><path class="cls-22" d="M224.81,263.88s-36.11,7.56-45.81,30c-8.76,20.22-24,76.48-24,76.48h35.78s14.16-60.13,16.77-69.89S224.81,263.88,224.81,263.88Z" transform="translate(-0.47 -0.38)"/><path class="cls-22" d="M281.3,267.29s29.24,4.15,38.95,26.56c8.75,20.22,24,76.48,24,76.48H308.51s-14.17-60.13-16.78-69.89S281.3,267.29,281.3,267.29Z" transform="translate(-0.47 -0.38)"/><path class="cls-23" d="M294.61,293.37a163.73,163.73,0,0,0-3.93-23.21c-11.89-6.94-33.5-8.51-33.5-8.51H240.32s-20.62,1.1-32.75,7.91a173.69,173.69,0,0,0-4.68,23.81c-1.65,15.19-1,30.57.58,45.72,1.11,10.47,2.68,20.86,4.31,31.24h81.94c1.63-10.38,3.2-20.77,4.31-31.24C295.63,323.94,296.26,308.56,294.61,293.37Z" transform="translate(-0.47 -0.38)"/><path class="cls-24" d="M266.88,265.4c-4.55-2.38-2.44-25.92-2.44-25.92H234.71s2.11,23.54-2.44,25.92-6.76,1.73-4.54,8.9c1.81,5.83,8.62,8.71,18.31,9.38,0,0,2.37.15,3.53.14s3.53-.14,3.53-.14c9.7-.67,16.51-3.55,18.32-9.38C273.64,267.13,271.43,267.78,266.88,265.4Z" transform="translate(-0.47 -0.38)"/><path class="cls-24" d="M291.83,215.76a8.17,8.17,0,0,0-4.76-2.79c-4.07-.82-6.29,4.61-7.37,7.58A87.64,87.64,0,0,0,275.65,236a2.37,2.37,0,0,0,.39,2.21,2.1,2.1,0,0,0,1.48.36c8.2-.3,11.65-10.47,14.33-16.69a9.56,9.56,0,0,0,.91-3.12A4.28,4.28,0,0,0,291.83,215.76Z" transform="translate(-0.47 -0.38)"/><path class="cls-24" d="M206.82,218.72a9.82,9.82,0,0,0,.91,3.12c2.69,6.22,6.14,16.39,14.34,16.69a2.08,2.08,0,0,0,1.47-.36,2.37,2.37,0,0,0,.4-2.21,87.67,87.67,0,0,0-4.06-15.41c-1.08-3-3.29-8.4-7.37-7.58a8.23,8.23,0,0,0-4.76,2.79A4.38,4.38,0,0,0,206.82,218.72Z" transform="translate(-0.47 -0.38)"/><path class="cls-25" d="M286.12,181.79c-2.19-9.23-6.86-17.59-15.16-22.59-15.86-9.56-43.75-5.43-53.18,11.63a61.17,61.17,0,0,0-4.85,10.92c-4.74,14.95.18,33.23,4.6,47.74,3.44,11.29,9.63,22.3,21.17,26.8,26.53,10.36,42.49-16.72,46.63-38.66C287.52,206,288.87,193.37,286.12,181.79Z" transform="translate(-0.47 -0.38)"/><path class="cls-26" d="M274.66,214a9.69,9.69,0,0,0-10.44-2.33A11.41,11.41,0,0,0,257.7,219a.62.62,0,0,0,.25-.23,11.89,11.89,0,0,1,8.11-5.43,11.11,11.11,0,0,1,5.62.9,18.23,18.23,0,0,1,2.8,1.3,28,28,0,0,1,2.52,1.84h0A11.43,11.43,0,0,0,274.66,214Z" transform="translate(-0.47 -0.38)"/><path class="cls-26" d="M239.44,214A9.69,9.69,0,0,0,229,211.64a11.37,11.37,0,0,0-6.51,7.35.66.66,0,0,0,.24-.23,11.89,11.89,0,0,1,8.11-5.43,11.11,11.11,0,0,1,5.62.9,18.78,18.78,0,0,1,2.81,1.3,29.31,29.31,0,0,1,2.51,1.84h0A11.43,11.43,0,0,0,239.44,214Z" transform="translate(-0.47 -0.38)"/><path class="cls-27" d="M268.56,221.52c0,2.38-1,4.32-2.27,4.32S264,223.9,264,221.52s1-4.32,2.27-4.32S268.56,219.13,268.56,221.52Z" transform="translate(-0.47 -0.38)"/><path class="cls-28" d="M267.89,219.83c0,.46-.2.84-.45.84s-.44-.38-.44-.84.2-.85.44-.85S267.89,219.36,267.89,219.83Z" transform="translate(-0.47 -0.38)"/><path class="cls-27" d="M235.61,221.52c0,2.38-1,4.32-2.27,4.32s-2.27-1.94-2.27-4.32,1-4.32,2.27-4.32S235.61,219.13,235.61,221.52Z" transform="translate(-0.47 -0.38)"/><path class="cls-28" d="M234.94,219.83c0,.46-.2.84-.45.84s-.44-.38-.44-.84.2-.85.44-.85S234.94,219.36,234.94,219.83Z" transform="translate(-0.47 -0.38)"/><path class="cls-29" d="M252.43,237.15a5.05,5.05,0,0,1-2.39,1.26,3.59,3.59,0,0,1-.47.12,3.9,3.9,0,0,1-.46-.12,5,5,0,0,1-2.39-1.26,15,15,0,0,0-1.86-.86,13.55,13.55,0,0,0,1.87,2.25,4.3,4.3,0,0,0,2.65,1h.39a4.3,4.3,0,0,0,2.65-1,13.55,13.55,0,0,0,1.87-2.25A15,15,0,0,0,252.43,237.15Z" transform="translate(-0.47 -0.38)"/><path class="cls-28" d="M239,243.92a108,108,0,0,0,19.48,3s-2.1,1.33-8.82.62A23.12,23.12,0,0,1,239,243.92Z" transform="translate(-0.47 -0.38)"/><path class="cls-24" d="M205.94,370.44a1.4,1.4,0,0,0,.31-1.14c-.18-.94-1.34-1.33-2.08-1.73a39.49,39.49,0,0,1-8.62-6,29.62,29.62,0,0,0-3.37-3.26c-1.3-.9-3.14-1-4.64-1.29-3.68-.8-7.34-1.59-11.07-2.16-3.14-.48-6.45-1.25-9.56-.26s-5.51,3.34-7.76,5.59a22.92,22.92,0,0,0-5.65,8,19.4,19.4,0,0,0-1,2.2Z" transform="translate(-0.47 -0.38)"/><path class="cls-30" d="M172.23,370.44a22.74,22.74,0,0,1,1.56-2.54,20.83,20.83,0,0,1,4.62-7.21,12,12,0,0,1,6.37-3.28,12.13,12.13,0,0,1,4.12-.05,14,14,0,0,1,3,1c.06,0,.14,0,.12-.1-.32-1-1.61-1.27-2.5-1.48a11.75,11.75,0,0,0-4-.19,12.9,12.9,0,0,0-6.91,3.06,21.91,21.91,0,0,0-6.38,10.75Z" transform="translate(-0.47 -0.38)"/><path class="cls-30" d="M182.49,370.44l.22-.28a30,30,0,0,1,2-2.41,21.32,21.32,0,0,1,2.24-2c.74-.55,1.91-1.33,2.89-1.14.13,0,.35-.21.16-.26a2.7,2.7,0,0,0-1.29-.12,4.84,4.84,0,0,0-1.46.62,14.23,14.23,0,0,0-2.58,2.06,21.28,21.28,0,0,0-2,2.27c-.25.31-.5.61-.76.91,0,.11,0,.23-.08.35Z" transform="translate(-0.47 -0.38)"/><path class="cls-30" d="M157.37,370.44a16.18,16.18,0,0,1,.72-2.92c0-.08,0-.15,0-.19a16.46,16.46,0,0,1,2.8-6.83,14.06,14.06,0,0,1,7.1-5.69c3.34-1,6.39.25,9.68.64a17.42,17.42,0,0,0-6.76,3.5,19.69,19.69,0,0,0-7.33,11.49h.28c.11-.28.2-.57.3-.84a14.61,14.61,0,0,1,1.15-2.6,20.22,20.22,0,0,1,5.56-7.24,17.73,17.73,0,0,1,6.25-3.54,12.13,12.13,0,0,1,8,.71c.08,0,.29-.07.2-.17a5.92,5.92,0,0,0-3.09-1.28,10.41,10.41,0,0,0-4.16-.13l-.11,0c0-.05,0-.1,0-.14a14.18,14.18,0,0,0-8.13-1.61,12.72,12.72,0,0,0-7,3.49A18.41,18.41,0,0,0,157,368.85c0,.29-.12.92-.15,1.59Z" transform="translate(-0.47 -0.38)"/><path class="cls-24" d="M293.3,370.44a1.36,1.36,0,0,1-.3-1.14c.18-.94,1.33-1.33,2.08-1.73a39.67,39.67,0,0,0,8.61-6,31.37,31.37,0,0,1,3.37-3.26c1.31-.9,3.14-1,4.64-1.29,3.68-.8,7.35-1.59,11.08-2.16,3.13-.48,6.45-1.25,9.55-.26s5.52,3.34,7.76,5.59a22.79,22.79,0,0,1,5.65,8,17.66,17.66,0,0,1,1,2.2Z" transform="translate(-0.47 -0.38)"/><path class="cls-30" d="M327,370.44a22.74,22.74,0,0,0-1.56-2.54,20.83,20.83,0,0,0-4.62-7.21,11.94,11.94,0,0,0-6.37-3.28,12.07,12.07,0,0,0-4.11-.05,13.85,13.85,0,0,0-3,1c-.05,0-.14,0-.12-.1.33-1,1.61-1.27,2.5-1.48a11.75,11.75,0,0,1,4-.19,12.9,12.9,0,0,1,6.91,3.06A21.93,21.93,0,0,1,327,370.44Z" transform="translate(-0.47 -0.38)"/><path class="cls-30" d="M316.76,370.44l-.23-.28c-.65-.8-1.23-1.67-2-2.41a22.48,22.48,0,0,0-2.25-2c-.74-.55-1.9-1.33-2.88-1.14-.14,0-.35-.21-.17-.26a2.7,2.7,0,0,1,1.29-.12,5,5,0,0,1,1.47.62,14.17,14.17,0,0,1,2.57,2.06,20.29,20.29,0,0,1,2,2.27c.24.31.5.61.75.91,0,.11.05.23.08.35Z" transform="translate(-0.47 -0.38)"/><path class="cls-30" d="M341.88,370.44a18.05,18.05,0,0,0-.72-2.92c0-.08,0-.15,0-.19a16.58,16.58,0,0,0-2.79-6.83,14.13,14.13,0,0,0-7.11-5.69c-3.34-1-6.38.25-9.67.64a17.38,17.38,0,0,1,6.75,3.5,19.66,19.66,0,0,1,7.34,11.49h-.29c-.1-.28-.2-.57-.3-.84a14.61,14.61,0,0,0-1.15-2.6,20.11,20.11,0,0,0-5.56-7.24,17.78,17.78,0,0,0-6.24-3.54,12.16,12.16,0,0,0-8,.71c-.08,0-.29-.07-.19-.17a5.89,5.89,0,0,1,3.08-1.28,10.41,10.41,0,0,1,4.16-.13l.12,0c0-.05,0-.1,0-.14a14.16,14.16,0,0,1,8.13-1.61,12.69,12.69,0,0,1,7,3.49,18.41,18.41,0,0,1,5.79,11.73c0,.29.12.92.15,1.59Z" transform="translate(-0.47 -0.38)"/><path class="cls-26" d="M301.17,183c-3.82-1.78-6.76-4.76-9.5-7.88-2.93-3.34-5.61-6.88-8.56-10.19-4.95-5.54-11.4-10.86-19.1-11.51a10.17,10.17,0,0,0-5.61.88,9.62,9.62,0,0,0-4.5-2.52c-5.81-1.61-12.17-.12-17.58,2.16-12.7,5.35-23.11,14.86-30.58,26.35-1.69,2.6-3.29,5.3-4.76,8-1.25,2.32-2.75,5.1-2.46,7.83.06.52.84.23,1,0s.43-.47.64-.72a13.51,13.51,0,0,0,.07,3,1.85,1.85,0,0,0,0,.23,9.89,9.89,0,0,0,.29,1.31c.77,2.56,2.85,4.26,4.77,6a18.53,18.53,0,0,1,4.72,6.59,68.79,68.79,0,0,1,2.53,7.71c.44,1.46.92,2.91,1.4,4.36a15.57,15.57,0,0,0,1.95,4.22c.32.44,1.11,0,1.12-.5,0-1.66-.13-3.3-.16-4.95a16.76,16.76,0,0,1,.61-4.83s0-.06,0-.08a6,6,0,0,0,.73-.07s.07,0,.13,0a22.17,22.17,0,0,0,6.5-2.28,33.28,33.28,0,0,0,4.4-2.64,30.59,30.59,0,0,0,14.3-11,34.58,34.58,0,0,0,4.55-8.81,31.89,31.89,0,0,0,1.08-4,43.5,43.5,0,0,1-1.55,6.22,37.18,37.18,0,0,1-9.38,15.13,57.45,57.45,0,0,1-8.17,6.4c-.37.24-.08.61.28.41a40.8,40.8,0,0,0,12.83-11.23,38.34,38.34,0,0,0,6.88-17.19,19.72,19.72,0,0,0,.27-5.08s0-.07,0-.1c.63-.18,1.27-.33,1.91-.45l1-.06a14.62,14.62,0,0,1,4.21.49l.1,0c.13,10,6.26,19.35,14.65,24.75a20.38,20.38,0,0,0,8.22,3.26c.26,0,.62-.47.27-.55-5.3-1.21-9.87-4.37-13.63-8.21a30.29,30.29,0,0,1-7.92-13.74c-.24-1-.41-1.93-.56-2.91.06.25.1.5.17.75a32.79,32.79,0,0,0,1.63,4c2.79,5.92,7.11,11.56,12.69,15.09a20.62,20.62,0,0,0,3,1.54c1.09.85,2.21,1.65,3.34,2.42s2.33,1.42,3.52,2.08a7.77,7.77,0,0,0,1.57.72c0,.61-.08,1.22-.14,1.81-.24,2.33-1.17,4.62-1,7,0,.54.75.37.94,0,1.31-2.42,2.24-5,3.34-7.48l.67-1.42.48-.81h.11c.41,0,1.15-.85.48-1,2-3.29,4-6.58,6-9.83,1.73-2.73,5.86-6.05,3-9.41a11,11,0,0,0-2-1.7,14.42,14.42,0,0,1,3,1.65c.51.37,1.26-.3,1.18-.83-.41-3.08-2.68-5.31-5-7.22a13.72,13.72,0,0,0,5.11-.13C300.94,184.08,301.79,183.32,301.17,183Z" transform="translate(-0.47 -0.38)"/><path class="cls-31" d="M173.57,287.39a4.52,4.52,0,0,0-4.5,4.89l6.81,83.2H315.73l6.82-83.2a4.52,4.52,0,0,0-4.51-4.89Z" transform="translate(-0.47 -0.38)"/><path class="cls-32" d="M176.5,288.36a4.4,4.4,0,0,0-4.32,4.79l6.54,81.62H312.89l6.54-81.62a4.39,4.39,0,0,0-4.32-4.79Z" transform="translate(-0.47 -0.38)"/><circle class="cls-31" cx="245.34" cy="333.18" r="8.26"/><circle class="cls-33" cx="245.81" cy="333.07" r="7.76" transform="translate(-163.99 270.98) rotate(-45)"/><path class="cls-33" d="M313.56,289.73h-137c-4.36.49-3,6.72-3,6.72.28-5,4.11-5.11,4.11-5.11H312.44s3.82.13,4.1,5.11C316.54,296.45,317.91,290.22,313.56,289.73Z" transform="translate(-0.47 -0.38)"/><rect class="cls-34" x="52.05" y="370.28" width="394.21" height="19.59"/><g class="cls-35"><rect class="cls-34" x="52.05" y="370.28" width="394.21" height="11.73"/></g><rect class="cls-36" x="40.1" y="369.28" width="415.33" height="9.93"/><path class="cls-37" d="M354.15,126.19c.78,9.75,8.94,9.75,8.94,9.75h0s8.17,0,8.95-9.75a56.11,56.11,0,0,0-17.92,0Z" transform="translate(-0.47 -0.38)"/><rect class="cls-38" x="361.79" width="1.66" height="94.73"/><path class="cls-39" d="M394.73,128.17C392,93.75,363.16,93.76,363.16,93.76h-.1s-28.82,0-31.58,34.41a207.37,207.37,0,0,0,31.63,2.53A207.32,207.32,0,0,0,394.73,128.17Z" transform="translate(-0.47 -0.38)"/><rect class="cls-40" x="357.81" y="91.29" width="9.56" height="2.73"/><path class="cls-41" d="M117.35,90.23h-14l2.64,33.2c0,.57,5.09,1,11.38,1s11.37-.46,11.37-1l2.64-33.2Z" transform="translate(-0.47 -0.38)"/><path class="cls-14" d="M123.71,90.23c0,.66,0,1.32,0,2-.07,6.63,0,13.26-.12,19.89-.08,4.08-.25,8.15-.59,12.21,3.43-.17,5.74-.51,5.74-.89l2.64-33.2Z" transform="translate(-0.47 -0.38)"/><path class="cls-15" d="M131.36,90.23c0,.55-6.27,1-14,1s-14-.44-14-1,6.27-1,14-1S131.36,89.69,131.36,90.23Z" transform="translate(-0.47 -0.38)"/><path class="cls-18" d="M89.79,102.41s0,0,0,0a4.68,4.68,0,0,0,1.52-1.48.68.68,0,0,0,0-.77.61.61,0,0,0-.62-.21,1.85,1.85,0,0,0-.88.47v-.06c0-.72,0-1.43.08-2.15a6.67,6.67,0,0,1,1.48-1.52c.5-.37,1-.71,1.49-1.1A3.44,3.44,0,0,0,94,94.26a.93.93,0,0,0-.45-1.07,1.16,1.16,0,0,0-1.13,0,4.36,4.36,0,0,0-1.22,1,14.06,14.06,0,0,0-1.14,1.39c.07-.77.15-1.53.24-2.29a8.76,8.76,0,0,1,1.12-1.63,12.93,12.93,0,0,1,2.13-1.92c.34-.25.68-.51,1-.73s.6-.36.89-.57a1.91,1.91,0,0,0,1-1.53.76.76,0,0,0-.68-.81,2.93,2.93,0,0,0-1.42.27A8,8,0,0,0,93,87a8.66,8.66,0,0,0-1.93,1.59c.15-.71.3-1.42.48-2.12a11,11,0,0,1,1.74-2.07,13.23,13.23,0,0,1,2.55-1.84c.5-.28,1-.54,1.53-.8.34-.17.7-.26,1-.4.63-.25,1.29-.61,1.4-1.35a.82.82,0,0,0-.61-1,3.46,3.46,0,0,0-1.6,0,7.66,7.66,0,0,0-1.4.39A13.61,13.61,0,0,0,93.33,81c.32-.79.67-1.57,1.06-2.33a11.16,11.16,0,0,1,2.47-2,12.9,12.9,0,0,1,1.75-.86,5.52,5.52,0,0,1,1.25-.4c.91-.15,1.84-.25,2.74-.44a7.83,7.83,0,0,0,1.34-.37,2.08,2.08,0,0,0,.9-.56,1.07,1.07,0,0,0-.27-1.57,3.35,3.35,0,0,0-2.19-.11,16.63,16.63,0,0,0-2.48.7A13,13,0,0,0,97,74.59a17.18,17.18,0,0,1,9.1-6,8.37,8.37,0,0,1,6.23.66,6.44,6.44,0,0,1,2.32,2.51,3.66,3.66,0,0,1,.48,1.7,5.22,5.22,0,0,1-.23,1.3,13.12,13.12,0,0,1,6.33-2,8,8,0,0,1,6.14,2.48,9.53,9.53,0,0,1,2.08,5.45c0,.22,0,.45.05.67a17.05,17.05,0,0,1-.49,3.33,7.38,7.38,0,0,0-3.69-5.06,11.34,11.34,0,0,0-2.89-1,3,3,0,0,0-2.52.34,1.17,1.17,0,0,0-.48,1,1,1,0,0,0,.64.76,11.45,11.45,0,0,0,2.5.69,5.12,5.12,0,0,1,1.33.65,7.2,7.2,0,0,1,1.36,1.16,7.53,7.53,0,0,1,1.67,3,8.61,8.61,0,0,1,.3,3.07,19.57,19.57,0,0,1-1.7,2.62,9.31,9.31,0,0,0-.59-3.19,8.94,8.94,0,0,0-3.33-4.52,3.89,3.89,0,0,0-2.43-.63,1.07,1.07,0,0,0-.93.48,1,1,0,0,0,.18.92,16.3,16.3,0,0,0,1.89,2,9.27,9.27,0,0,1,1.84,3.21A7.8,7.8,0,0,1,122,95.6c-.3.25-.61.49-.92.73a21.69,21.69,0,0,1-2.85,1.8,7.18,7.18,0,0,0,.62-2.58,8.68,8.68,0,0,0-.26-2.83,12,12,0,0,0-.69-1.93,2.69,2.69,0,0,0-1.19-1.42,1,1,0,0,0-1.37.52,3.41,3.41,0,0,0,.1,2.07c.18.74.46,1.45.61,2.19a4.9,4.9,0,0,1,0,1.27,8,8,0,0,1-.29,1.53,7.39,7.39,0,0,1-1.6,2.89c-1,.34-2.1.63-3.17.87a9.89,9.89,0,0,0,1-4,5.92,5.92,0,0,0-.11-1.51,1.92,1.92,0,0,0-.65-1.27,1,1,0,0,0-1.23.39,3.7,3.7,0,0,0-.43,1.82c0,.66,0,1.33-.09,2a3.82,3.82,0,0,1-.33,1,8.91,8.91,0,0,1-.63,1.18,8.15,8.15,0,0,1-.75,1c-1.14.18-2.28.3-3.42.41.11-.17.21-.34.31-.52a9,9,0,0,0,1-3.39,1.49,1.49,0,0,0-.23-1.15.74.74,0,0,0-1,.08,2.74,2.74,0,0,0-.63,1.29c-.13.51-.21,1-.34,1.53a5.17,5.17,0,0,1-.78,1.62,6.16,6.16,0,0,1-.6.75q-1.34.12-2.67.3a3.68,3.68,0,0,0,.8-2.78.22.22,0,0,0-.26-.14c-1.24.44-1.79,1.82-2.56,2.78a6.55,6.55,0,0,1-.49.56c-2.61.54-5.43,1.49-7.27,3.48,0-.07,0-.15,0-.21a14.42,14.42,0,0,1,.09-2.37C89.76,103.18,89.78,102.79,89.79,102.41Z" transform="translate(-0.47 -0.38)"/><path class="cls-17" d="M157.28,100.13l-.06,0a6.36,6.36,0,0,1-2-1.94.89.89,0,0,1,.05-1,.84.84,0,0,1,.81-.29,2.52,2.52,0,0,1,1.15.63v-.09c0-.94-.06-1.87-.11-2.8a8.38,8.38,0,0,0-1.94-2c-.66-.48-1.33-.94-2-1.45a4.28,4.28,0,0,1-1.48-1.68,1.2,1.2,0,0,1,.59-1.4,1.53,1.53,0,0,1,1.48,0,5.71,5.71,0,0,1,1.59,1.26,17.38,17.38,0,0,1,1.49,1.82c-.09-1-.19-2-.31-3A11.38,11.38,0,0,0,155.12,86a17.08,17.08,0,0,0-2.79-2.51c-.44-.33-.88-.66-1.35-1s-.79-.48-1.16-.75a2.53,2.53,0,0,1-1.26-2,1,1,0,0,1,.89-1.07,3.86,3.86,0,0,1,1.86.35,12.06,12.06,0,0,1,1.73.85A11,11,0,0,1,155.57,82c-.19-.93-.4-1.86-.63-2.78a14,14,0,0,0-2.28-2.71,17.62,17.62,0,0,0-3.34-2.41c-.66-.37-1.33-.71-2-1-.45-.22-.92-.34-1.37-.52-.84-.33-1.7-.8-1.85-1.76a1.09,1.09,0,0,1,.81-1.26,4.47,4.47,0,0,1,2.09,0,9.14,9.14,0,0,1,1.84.51,18.17,18.17,0,0,1,3.8,2.06c-.43-1-.89-2-1.4-3A14.67,14.67,0,0,0,148,66.44a18.78,18.78,0,0,0-2.29-1.14,8,8,0,0,0-1.64-.52c-1.2-.2-2.4-.32-3.59-.57a10.54,10.54,0,0,1-1.75-.48,2.85,2.85,0,0,1-1.18-.74,1.4,1.4,0,0,1,.35-2.06,4.34,4.34,0,0,1,2.87-.14,20.36,20.36,0,0,1,3.25.91,17.6,17.6,0,0,1,3.77,2,22.53,22.53,0,0,0-11.92-7.88,10.91,10.91,0,0,0-8.16.87,8.49,8.49,0,0,0-3,3.28,4.86,4.86,0,0,0-.63,2.23,7,7,0,0,0,.31,1.7,17.31,17.31,0,0,0-8.29-2.66A10.5,10.5,0,0,0,108,64.47a12.57,12.57,0,0,0-2.71,7.14c0,.29,0,.58-.07.88a22.94,22.94,0,0,0,.64,4.36,9.62,9.62,0,0,1,4.83-6.62,14.34,14.34,0,0,1,3.79-1.37,4,4,0,0,1,3.31.44,1.56,1.56,0,0,1,.62,1.25,1.41,1.41,0,0,1-.84,1,15.31,15.31,0,0,1-3.28.9,6.05,6.05,0,0,0-1.73.85,9.3,9.3,0,0,0-1.79,1.52,9.77,9.77,0,0,0-2.18,4,11.44,11.44,0,0,0-.4,4,26.5,26.5,0,0,0,2.23,3.43,13.05,13.05,0,0,1,5.14-10.1,5,5,0,0,1,3.18-.82c.45.05,1,.16,1.22.62a1.3,1.3,0,0,1-.23,1.21,22.93,22.93,0,0,1-2.48,2.64,11.75,11.75,0,0,0-2.41,4.2,10.25,10.25,0,0,0,.3,7.22c.39.32.79.64,1.2,1a27.9,27.9,0,0,0,3.73,2.36,9.4,9.4,0,0,1-.8-3.39,11.27,11.27,0,0,1,.33-3.7,16.24,16.24,0,0,1,.91-2.53A3.56,3.56,0,0,1,122.07,83a1.38,1.38,0,0,1,1.8.69,4.49,4.49,0,0,1-.13,2.71c-.24,1-.6,1.9-.8,2.87a6.07,6.07,0,0,0,0,1.65,9.84,9.84,0,0,0,2.47,5.8c1.36.45,2.75.82,4.15,1.14a13.09,13.09,0,0,1-1.35-5.26,7.75,7.75,0,0,1,.15-2,2.51,2.51,0,0,1,.85-1.67,1.25,1.25,0,0,1,1.61.52,5,5,0,0,1,.56,2.37c.06.87,0,1.74.12,2.6a5.46,5.46,0,0,0,.43,1.37,11.36,11.36,0,0,0,.82,1.54,11.53,11.53,0,0,0,1,1.31c1.49.23,3,.38,4.48.53-.14-.22-.27-.45-.4-.68a11,11,0,0,1-1.06-2.67,11.7,11.7,0,0,1-.31-1.77,2,2,0,0,1,.3-1.5,1,1,0,0,1,1.31.1,3.56,3.56,0,0,1,.82,1.7c.18.66.29,1.33.45,2a6.57,6.57,0,0,0,1,2.13,8.1,8.1,0,0,0,.77,1c1.17.11,2.34.23,3.5.39a4.8,4.8,0,0,1-1-3.64.27.27,0,0,1,.33-.19c1.63.58,2.35,2.39,3.35,3.65a7.53,7.53,0,0,0,.65.73c3.42.71,7.11,2,9.52,4.56a1.39,1.39,0,0,0,0-.27,17.94,17.94,0,0,0-.11-3.11C157.31,101.13,157.29,100.63,157.28,100.13Z" transform="translate(-0.47 -0.38)"/><path class="cls-42" d="M102.62,80.64l0,0a4.87,4.87,0,0,0,1.27-1.7.67.67,0,0,0-.16-.76.65.65,0,0,0-.64-.12,1.86,1.86,0,0,0-.79.61v-.06c-.1-.71-.18-1.42-.26-2.13a6.52,6.52,0,0,1,1.23-1.74c.44-.44.89-.86,1.3-1.32a3.39,3.39,0,0,0,.92-1.45.9.9,0,0,0-.61-1,1.15,1.15,0,0,0-1.11.19,4.23,4.23,0,0,0-1.05,1.14,11.44,11.44,0,0,0-.91,1.55c0-.77-.1-1.53-.12-2.3a8.56,8.56,0,0,1,.84-1.79,13.8,13.8,0,0,1,1.81-2.23c.29-.3.59-.6.9-.88s.54-.45.79-.7a1.92,1.92,0,0,0,.71-1.66.77.77,0,0,0-.79-.7,2.94,2.94,0,0,0-1.37.49,8.4,8.4,0,0,0-1.2.85,8.17,8.17,0,0,0-1.66,1.86c0-.72.08-1.44.14-2.16a11.46,11.46,0,0,1,1.4-2.32,13,13,0,0,1,2.23-2.21c.45-.36.92-.7,1.38-1s.65-.37,1-.56a1.9,1.9,0,0,0,1.18-1.54.85.85,0,0,0-.76-.86,3.42,3.42,0,0,0-1.58.26,7.13,7.13,0,0,0-1.32.6,13.82,13.82,0,0,0-2.62,2c.19-.83.42-1.65.68-2.46a11.62,11.62,0,0,1,2.13-2.36A14.76,14.76,0,0,1,107.17,53a5.87,5.87,0,0,1,1.18-.58c.88-.3,1.77-.54,2.64-.87a8.39,8.39,0,0,0,1.26-.57,2.32,2.32,0,0,0,.8-.69,1.08,1.08,0,0,0-.51-1.52,3.3,3.3,0,0,0-2.18.24A14.57,14.57,0,0,0,108,50.09,12.47,12.47,0,0,0,105.41,52a17.23,17.23,0,0,1,8-7.37,8.34,8.34,0,0,1,6.26-.32,6.58,6.58,0,0,1,2.68,2.11,3.83,3.83,0,0,1,.74,1.61,5.3,5.3,0,0,1,0,1.32,13.33,13.33,0,0,1,5.93-3,8,8,0,0,1,6.46,1.49,9.61,9.61,0,0,1,2.91,5.06l.15.65a18.07,18.07,0,0,1,0,3.37,7.37,7.37,0,0,0-4.43-4.42,10.76,10.76,0,0,0-3-.57,3.06,3.06,0,0,0-2.44.72,1.24,1.24,0,0,0-.32,1,1.07,1.07,0,0,0,.76.65,11.71,11.71,0,0,0,2.57.29,4.88,4.88,0,0,1,1.41.43,7.19,7.19,0,0,1,1.53.93,7.53,7.53,0,0,1,2.12,2.73,9.2,9.2,0,0,1,.79,3,21.52,21.52,0,0,1-1.28,2.86,9.14,9.14,0,0,0-1.08-3.06,8.89,8.89,0,0,0-4-4,3.76,3.76,0,0,0-2.49-.23c-.34.08-.75.24-.85.61a1,1,0,0,0,.32.88,16.28,16.28,0,0,0,2.18,1.69,9.11,9.11,0,0,1,2.32,2.88,7.76,7.76,0,0,1,.63,5.48c-.25.3-.52.59-.79.87A20.52,20.52,0,0,1,130,72a7.15,7.15,0,0,0,.21-2.65,8.7,8.7,0,0,0-.7-2.75,11.7,11.7,0,0,0-1-1.8,2.72,2.72,0,0,0-1.39-1.22,1.05,1.05,0,0,0-1.27.74,3.39,3.39,0,0,0,.42,2c.29.69.68,1.35.94,2.06a4.44,4.44,0,0,1,.22,1.25,8.14,8.14,0,0,1,0,1.56,7.53,7.53,0,0,1-1.13,3.1c-1,.5-2,.95-3,1.36a10.13,10.13,0,0,0,.38-4.13,6.16,6.16,0,0,0-.34-1.47,2,2,0,0,0-.84-1.16,1,1,0,0,0-1.16.58,3.67,3.67,0,0,0-.13,1.86c0,.66.18,1.31.21,2a3.56,3.56,0,0,1-.16,1.07,8.9,8.9,0,0,1-.43,1.26,8.38,8.38,0,0,1-.59,1.11c-1.1.35-2.2.65-3.31.93.07-.18.15-.36.21-.55a8,8,0,0,0,.48-2.14,7.85,7.85,0,0,0,0-1.37,1.45,1.45,0,0,0-.4-1.1.74.74,0,0,0-1,.23,2.78,2.78,0,0,0-.41,1.38c-.06.52-.06,1-.1,1.56a5.27,5.27,0,0,1-.52,1.72,7.42,7.42,0,0,1-.47.83c-.87.23-1.73.46-2.59.72a3.72,3.72,0,0,0,.35-2.87.2.2,0,0,0-.28-.1c-1.16.63-1.48,2.08-2.09,3.15a6.57,6.57,0,0,1-.4.62c-2.5.95-5.13,2.33-6.64,4.58l-.06-.2a14.35,14.35,0,0,1-.28-2.36Q102.7,81.21,102.62,80.64Z" transform="translate(-0.47 -0.38)"/><path class="cls-41" d="M237.53,90.23h-14l2.64,33.2c0,.57,5.09,1,11.37,1s11.38-.46,11.38-1l2.64-33.2Z" transform="translate(-0.47 -0.38)"/><path class="cls-14" d="M243.9,90.23l0,2c-.07,6.63,0,13.26-.11,19.89-.08,4.08-.25,8.15-.59,12.21,3.42-.17,5.74-.51,5.74-.89l2.64-33.2Z" transform="translate(-0.47 -0.38)"/><path class="cls-15" d="M251.55,90.23c0,.55-6.28,1-14,1s-14-.44-14-1,6.27-1,14-1S251.55,89.69,251.55,90.23Z" transform="translate(-0.47 -0.38)"/><path class="cls-18" d="M210,102.41l.05,0a4.88,4.88,0,0,0,1.52-1.48.7.7,0,0,0,0-.77.62.62,0,0,0-.62-.21,1.81,1.81,0,0,0-.88.47v-.06c0-.72.05-1.43.08-2.15a6.72,6.72,0,0,1,1.49-1.52c.5-.37,1-.71,1.49-1.1a3.53,3.53,0,0,0,1.14-1.29.94.94,0,0,0-.46-1.07,1.17,1.17,0,0,0-1.13,0,4.31,4.31,0,0,0-1.21,1,11.7,11.7,0,0,0-1.14,1.39c.07-.77.14-1.53.24-2.29a8.76,8.76,0,0,1,1.12-1.63,12.93,12.93,0,0,1,2.13-1.92c.34-.25.67-.51,1-.73s.6-.36.89-.57a1.9,1.9,0,0,0,1-1.53.75.75,0,0,0-.67-.81,3,3,0,0,0-1.43.27,8.35,8.35,0,0,0-1.31.64,8.23,8.23,0,0,0-1.93,1.59c.14-.71.3-1.42.47-2.12a11.1,11.1,0,0,1,1.75-2.07,13.23,13.23,0,0,1,2.55-1.84c.5-.28,1-.54,1.53-.8.33-.17.69-.26,1-.4.64-.25,1.3-.61,1.41-1.35a.83.83,0,0,0-.62-1,3.42,3.42,0,0,0-1.59,0,7.24,7.24,0,0,0-1.4.39A13.68,13.68,0,0,0,213.51,81c.33-.79.68-1.57,1.07-2.33a11.16,11.16,0,0,1,2.47-2,12.34,12.34,0,0,1,1.75-.86,5.52,5.52,0,0,1,1.25-.4c.91-.15,1.83-.25,2.74-.44a7.72,7.72,0,0,0,1.33-.37,2.05,2.05,0,0,0,.91-.56,1.07,1.07,0,0,0-.27-1.57,3.35,3.35,0,0,0-2.19-.11,16,16,0,0,0-2.48.7,12.75,12.75,0,0,0-2.88,1.51,17.14,17.14,0,0,1,9.1-6,8.37,8.37,0,0,1,6.23.66,6.52,6.52,0,0,1,2.32,2.51,3.78,3.78,0,0,1,.48,1.7,5.23,5.23,0,0,1-.24,1.3,13.18,13.18,0,0,1,6.33-2,8,8,0,0,1,6.15,2.48,9.53,9.53,0,0,1,2.08,5.45c0,.22,0,.45.05.67a17.84,17.84,0,0,1-.49,3.33,7.38,7.38,0,0,0-3.69-5.06,11.41,11.41,0,0,0-2.9-1,3,3,0,0,0-2.52.34,1.19,1.19,0,0,0-.47,1,1,1,0,0,0,.64.76,11.45,11.45,0,0,0,2.5.69,4.91,4.91,0,0,1,1.32.65,7,7,0,0,1,1.37,1.16,7.53,7.53,0,0,1,1.67,3,9.1,9.1,0,0,1,.3,3.07,20.6,20.6,0,0,1-1.7,2.62,9.09,9.09,0,0,0-.6-3.19,8.83,8.83,0,0,0-3.33-4.52,3.84,3.84,0,0,0-2.42-.63,1.1,1.1,0,0,0-.94.48,1,1,0,0,0,.18.92,18,18,0,0,0,1.89,2,9,9,0,0,1,1.84,3.21,7.8,7.8,0,0,1-.23,5.51l-.91.73a22.37,22.37,0,0,1-2.85,1.8,7.17,7.17,0,0,0,.61-2.58,8.67,8.67,0,0,0-.25-2.83,11.13,11.13,0,0,0-.7-1.93,2.68,2.68,0,0,0-1.18-1.42,1,1,0,0,0-1.37.52,3.49,3.49,0,0,0,.09,2.07c.19.74.46,1.45.62,2.19a4.91,4.91,0,0,1,0,1.27,7.93,7.93,0,0,1-.28,1.53,7.29,7.29,0,0,1-1.61,2.89c-1,.34-2.09.63-3.16.87a10,10,0,0,0,1-4,5.5,5.5,0,0,0-.11-1.51,1.86,1.86,0,0,0-.64-1.27,1,1,0,0,0-1.24.39,3.81,3.81,0,0,0-.42,1.82c0,.66,0,1.33-.1,2a3.5,3.5,0,0,1-.33,1,7.82,7.82,0,0,1-.62,1.18,8.23,8.23,0,0,1-.76,1c-1.13.18-2.27.3-3.41.41.1-.17.21-.34.3-.52a8.35,8.35,0,0,0,.81-2,8.67,8.67,0,0,0,.24-1.35,1.54,1.54,0,0,0-.23-1.15.74.74,0,0,0-1,.08A2.74,2.74,0,0,0,224,98c-.14.51-.22,1-.34,1.53a5,5,0,0,1-.79,1.62,5.26,5.26,0,0,1-.59.75q-1.34.12-2.67.3a3.67,3.67,0,0,0,.79-2.78.21.21,0,0,0-.26-.14c-1.24.44-1.78,1.82-2.55,2.78-.16.2-.32.38-.49.56-2.62.54-5.44,1.49-7.28,3.48a1.65,1.65,0,0,1,0-.21,14.41,14.41,0,0,1,.08-2.37C210,103.18,210,102.79,210,102.41Z" transform="translate(-0.47 -0.38)"/><path class="cls-17" d="M277.46,100.13l0,0a6.29,6.29,0,0,1-2-1.94.9.9,0,0,1,.06-1,.83.83,0,0,1,.81-.29,2.57,2.57,0,0,1,1.15.63.28.28,0,0,0,0-.09c0-.94-.05-1.87-.1-2.8a8.62,8.62,0,0,0-1.95-2c-.65-.48-1.32-.94-1.95-1.45a4.31,4.31,0,0,1-1.49-1.68,1.22,1.22,0,0,1,.59-1.4,1.53,1.53,0,0,1,1.48,0,5.71,5.71,0,0,1,1.59,1.26,17.47,17.47,0,0,1,1.5,1.82c-.09-1-.19-2-.31-3A11.87,11.87,0,0,0,275.31,86a17.5,17.5,0,0,0-2.79-2.51c-.44-.33-.89-.66-1.35-1s-.79-.48-1.16-.75a2.51,2.51,0,0,1-1.26-2,1,1,0,0,1,.88-1.07,3.9,3.9,0,0,1,1.87.35,12.06,12.06,0,0,1,1.73.85A11,11,0,0,1,275.76,82c-.2-.93-.4-1.86-.63-2.78a14.38,14.38,0,0,0-2.28-2.71,17.62,17.62,0,0,0-3.34-2.41c-.66-.37-1.33-.71-2-1-.44-.22-.91-.34-1.37-.52-.83-.33-1.69-.8-1.84-1.76a1.08,1.08,0,0,1,.81-1.26,4.47,4.47,0,0,1,2.09,0A8.87,8.87,0,0,1,269,70a18,18,0,0,1,3.81,2.06c-.43-1-.89-2-1.4-3a14.67,14.67,0,0,0-3.23-2.61,20.34,20.34,0,0,0-2.29-1.14,8,8,0,0,0-1.64-.52c-1.2-.2-2.41-.32-3.6-.57a10.42,10.42,0,0,1-1.74-.48,3,3,0,0,1-1.19-.74,1.42,1.42,0,0,1,.35-2.06,4.35,4.35,0,0,1,2.87-.14,20.48,20.48,0,0,1,3.26.91,17.6,17.6,0,0,1,3.77,2,22.56,22.56,0,0,0-11.93-7.88,10.91,10.91,0,0,0-8.16.87,8.57,8.57,0,0,0-3,3.28,4.85,4.85,0,0,0-.62,2.23,6.54,6.54,0,0,0,.31,1.7,17.38,17.38,0,0,0-8.3-2.66,10.48,10.48,0,0,0-8.05,3.25,12.51,12.51,0,0,0-2.72,7.14c0,.29,0,.58-.06.88a22.17,22.17,0,0,0,.64,4.36,9.6,9.6,0,0,1,4.82-6.62,14.41,14.41,0,0,1,3.8-1.37,4,4,0,0,1,3.3.44,1.6,1.6,0,0,1,.63,1.25,1.4,1.4,0,0,1-.85,1,15.23,15.23,0,0,1-3.27.9,6.05,6.05,0,0,0-1.73.85,9.67,9.67,0,0,0-1.8,1.52,9.88,9.88,0,0,0-2.18,4,11.93,11.93,0,0,0-.4,4,28.78,28.78,0,0,0,2.23,3.43,12.16,12.16,0,0,1,.78-4.17,11.62,11.62,0,0,1,4.37-5.93,5,5,0,0,1,3.17-.82,1.42,1.42,0,0,1,1.23.62,1.3,1.3,0,0,1-.24,1.21,22.84,22.84,0,0,1-2.47,2.64A11.75,11.75,0,0,0,235,84a10.14,10.14,0,0,0,.3,7.22c.39.32.79.64,1.2,1a27.9,27.9,0,0,0,3.73,2.36,9.41,9.41,0,0,1-.81-3.39,11.27,11.27,0,0,1,.34-3.7,15.27,15.27,0,0,1,.91-2.53A3.51,3.51,0,0,1,242.26,83a1.39,1.39,0,0,1,1.8.69,4.57,4.57,0,0,1-.13,2.71c-.24,1-.6,1.9-.8,2.87a5.7,5.7,0,0,0,0,1.65,9.84,9.84,0,0,0,2.47,5.8c1.36.45,2.75.82,4.14,1.14a13.25,13.25,0,0,1-1.34-5.26,7.75,7.75,0,0,1,.15-2,2.5,2.5,0,0,1,.84-1.67,1.26,1.26,0,0,1,1.62.52,4.84,4.84,0,0,1,.55,2.37c.06.87,0,1.74.13,2.6a5.08,5.08,0,0,0,.43,1.37,10.35,10.35,0,0,0,.82,1.54,10.47,10.47,0,0,0,1,1.31c1.49.23,3,.38,4.47.53-.13-.22-.27-.45-.39-.68a11,11,0,0,1-1.06-2.67,10.58,10.58,0,0,1-.31-1.77,1.93,1.93,0,0,1,.3-1.5,1,1,0,0,1,1.31.1,3.56,3.56,0,0,1,.82,1.7c.18.66.28,1.33.44,2a7,7,0,0,0,1,2.13,9.31,9.31,0,0,0,.78,1c1.17.11,2.34.23,3.5.39a4.81,4.81,0,0,1-1-3.64.28.28,0,0,1,.34-.19c1.62.58,2.34,2.39,3.35,3.65a9,9,0,0,0,.64.73c3.43.71,7.12,2,9.53,4.56q0-.15,0-.27a17.94,17.94,0,0,0-.11-3.11C277.5,101.13,277.48,100.63,277.46,100.13Z" transform="translate(-0.47 -0.38)"/><path class="cls-42" d="M222.8,80.64l0,0a4.87,4.87,0,0,0,1.27-1.7.71.71,0,0,0-.16-.76.66.66,0,0,0-.65-.12,2,2,0,0,0-.79.61v-.06c-.09-.71-.18-1.42-.25-2.13a6.52,6.52,0,0,1,1.23-1.74c.44-.44.89-.86,1.3-1.32a3.49,3.49,0,0,0,.92-1.45.9.9,0,0,0-.61-1,1.16,1.16,0,0,0-1.12.19,4.39,4.39,0,0,0-1.05,1.14,14,14,0,0,0-.91,1.55c0-.77-.09-1.53-.12-2.3a9.14,9.14,0,0,1,.85-1.79,13.8,13.8,0,0,1,1.81-2.23c.29-.3.58-.6.9-.88s.54-.45.79-.7a2,2,0,0,0,.71-1.66.78.78,0,0,0-.8-.7,2.91,2.91,0,0,0-1.36.49,7.87,7.87,0,0,0-1.2.85,8.17,8.17,0,0,0-1.66,1.86c0-.72.07-1.44.14-2.16a11,11,0,0,1,1.39-2.32,13,13,0,0,1,2.24-2.21c.45-.36.91-.7,1.38-1,.31-.22.65-.37,1-.56a1.9,1.9,0,0,0,1.18-1.54.83.83,0,0,0-.76-.86,3.4,3.4,0,0,0-1.57.26,7.22,7.22,0,0,0-1.33.6A14.14,14.14,0,0,0,223,59q.3-1.25.69-2.46a11.06,11.06,0,0,1,2.13-2.36A13.83,13.83,0,0,1,227.36,53a5.8,5.8,0,0,1,1.17-.58c.88-.3,1.78-.54,2.64-.87a8.39,8.39,0,0,0,1.26-.57,2.35,2.35,0,0,0,.81-.69,1.09,1.09,0,0,0-.51-1.52,3.3,3.3,0,0,0-2.18.24,14.67,14.67,0,0,0-2.35,1.08A12.67,12.67,0,0,0,225.6,52a17.16,17.16,0,0,1,8-7.37,8.34,8.34,0,0,1,6.26-.32,6.45,6.45,0,0,1,2.68,2.11,3.73,3.73,0,0,1,.75,1.61,5.83,5.83,0,0,1,0,1.32,13.27,13.27,0,0,1,5.93-3,8,8,0,0,1,6.46,1.49,9.59,9.59,0,0,1,2.9,5.06c.06.21.11.43.16.65a18.07,18.07,0,0,1,0,3.37,7.36,7.36,0,0,0-4.44-4.42,10.76,10.76,0,0,0-3-.57,3,3,0,0,0-2.44.72,1.21,1.21,0,0,0-.32,1,1,1,0,0,0,.76.65,11.57,11.57,0,0,0,2.57.29,4.88,4.88,0,0,1,1.41.43,7.44,7.44,0,0,1,1.53.93A7.64,7.64,0,0,1,257,58.73a8.94,8.94,0,0,1,.78,3,21.46,21.46,0,0,1-1.27,2.86,10,10,0,0,0-5.08-7,3.78,3.78,0,0,0-2.5-.23A1.07,1.07,0,0,0,248,58a1,1,0,0,0,.33.88,16.28,16.28,0,0,0,2.18,1.69,9.11,9.11,0,0,1,2.32,2.88,7.87,7.87,0,0,1,.63,5.48c-.26.3-.52.59-.79.87A20.52,20.52,0,0,1,250.18,72a7.15,7.15,0,0,0,.2-2.65,8.69,8.69,0,0,0-.69-2.75,12.61,12.61,0,0,0-1-1.8,2.8,2.8,0,0,0-1.39-1.22,1.06,1.06,0,0,0-1.28.74,3.47,3.47,0,0,0,.43,2c.29.69.67,1.35.94,2.06a4.42,4.42,0,0,1,.21,1.25,7.35,7.35,0,0,1-1.17,4.66c-1,.5-2,.95-3,1.36a10,10,0,0,0,.39-4.13,5.73,5.73,0,0,0-.35-1.47,1.88,1.88,0,0,0-.84-1.16,1,1,0,0,0-1.15.58,3.78,3.78,0,0,0-.14,1.86c.06.66.19,1.31.22,2a4.33,4.33,0,0,1-.16,1.07,7.83,7.83,0,0,1-.44,1.26,6.55,6.55,0,0,1-.59,1.11c-1.09.35-2.2.65-3.31.93.08-.18.15-.36.22-.55a8.83,8.83,0,0,0,.48-2.14,7.85,7.85,0,0,0,0-1.37,1.45,1.45,0,0,0-.41-1.1.73.73,0,0,0-1,.23,2.79,2.79,0,0,0-.42,1.38c-.05.52-.05,1-.09,1.56a5.05,5.05,0,0,1-.53,1.72,6.07,6.07,0,0,1-.46.83c-.87.23-1.74.46-2.6.72a3.63,3.63,0,0,0,.35-2.87.2.2,0,0,0-.27-.1c-1.16.63-1.49,2.08-2.09,3.15-.13.22-.26.42-.4.62-2.5.95-5.14,2.33-6.64,4.58l-.06-.2a14.36,14.36,0,0,1-.29-2.36C222.9,81.4,222.85,81,222.8,80.64Z" transform="translate(-0.47 -0.38)"/><path class="cls-41" d="M180.63,90.23h-14l2.64,33.2c0,.57,5.1,1,11.38,1s11.37-.46,11.37-1l2.65-33.2Z" transform="translate(-0.47 -0.38)"/><path class="cls-14" d="M186.69,90.23c-.26,2.51-.91,20.17-1,26.47q0,3.84-.18,7.66c3.84-.17,6.49-.52,6.49-.93l2.65-33.2Z" transform="translate(-0.47 -0.38)"/><path class="cls-15" d="M194.65,90.23c0,.55-6.28,1-14,1s-14-.44-14-1,6.28-1,14-1S194.65,89.69,194.65,90.23Z" transform="translate(-0.47 -0.38)"/><polygon class="cls-16" points="181.75 90.82 180.8 29.7 179.8 28.12 179.76 90.82 181.75 90.82"/><path class="cls-17" d="M164.05,76.39a18,18,0,0,1,4.65-1c1.45-.16,2.93-.23,4.37-.48a16.49,16.49,0,0,0,2.39-.63A12.28,12.28,0,0,0,178.35,73c1.68-1.1,3.15-3.11,2.45-5.2-.62-1.87-2.64-3-4.48-3.38a12,12,0,0,0-11.73,4.8,16,16,0,0,0-2.53,5.54,10.64,10.64,0,0,0-.33,3.24A5.48,5.48,0,0,1,164.05,76.39Z" transform="translate(-0.47 -0.38)"/><path class="cls-18" d="M178.94,65.46c-.45,0-.9,0-1.34.08a20.23,20.23,0,0,0-10.8,4.39c-2.47,2-4.57,4.76-5,7.95a5.66,5.66,0,0,1,2.25-1.49,18,18,0,0,1,4.65-1c1.45-.16,2.93-.23,4.37-.48a16.49,16.49,0,0,0,2.39-.63A12.28,12.28,0,0,0,178.35,73c1.68-1.1,3.15-3.11,2.45-5.2A4.56,4.56,0,0,0,178.94,65.46Z" transform="translate(-0.47 -0.38)"/><path class="cls-17" d="M195.13,85.14a18,18,0,0,0-4.65-1c-1.45-.16-2.93-.23-4.37-.48a16.49,16.49,0,0,1-2.39-.63,12.54,12.54,0,0,1-2.9-1.35c-1.67-1.1-3.14-3.11-2.44-5.2.62-1.87,2.64-3,4.48-3.38a12,12,0,0,1,11.73,4.8,16,16,0,0,1,2.53,5.54,10.64,10.64,0,0,1,.33,3.24A5.48,5.48,0,0,0,195.13,85.14Z" transform="translate(-0.47 -0.38)"/><path class="cls-18" d="M180.24,74.21c.45,0,.89,0,1.34.08a20.23,20.23,0,0,1,10.8,4.39,12.94,12.94,0,0,1,5,7.95,5.66,5.66,0,0,0-2.25-1.49,18,18,0,0,0-4.65-1c-1.45-.16-2.93-.23-4.37-.48a16.49,16.49,0,0,1-2.39-.63,12.54,12.54,0,0,1-2.9-1.35c-1.67-1.1-3.14-3.11-2.44-5.2A4.56,4.56,0,0,1,180.24,74.21Z" transform="translate(-0.47 -0.38)"/><path class="cls-17" d="M167.38,59.64a15.78,15.78,0,0,1,4-.83c1.24-.14,2.5-.19,3.73-.41a14.6,14.6,0,0,0,2-.54,10.25,10.25,0,0,0,2.47-1.14c1.42-.95,2.68-2.66,2.08-4.44a4.92,4.92,0,0,0-3.82-2.88,10.27,10.27,0,0,0-10,4.09,13.55,13.55,0,0,0-2.16,4.73A9,9,0,0,0,165.4,61,4.69,4.69,0,0,1,167.38,59.64Z" transform="translate(-0.47 -0.38)"/><path class="cls-18" d="M180.08,50.31c-.39,0-.77,0-1.15.07a17.4,17.4,0,0,0-9.21,3.74,11.06,11.06,0,0,0-4.26,6.79,4.75,4.75,0,0,1,1.92-1.27,15.78,15.78,0,0,1,4-.83c1.24-.14,2.5-.19,3.73-.41a14.6,14.6,0,0,0,2-.54,10.25,10.25,0,0,0,2.47-1.14c1.42-.95,2.68-2.66,2.08-4.44A3.92,3.92,0,0,0,180.08,50.31Z" transform="translate(-0.47 -0.38)"/><path class="cls-17" d="M193.88,68.21a15.78,15.78,0,0,0-4-.83c-1.24-.14-2.5-.19-3.73-.4a16.17,16.17,0,0,1-2-.55,10.25,10.25,0,0,1-2.47-1.14c-1.43-1-2.68-2.66-2.08-4.44A4.94,4.94,0,0,1,183.42,58a10.27,10.27,0,0,1,10,4.09,13.64,13.64,0,0,1,2.16,4.73,9.1,9.1,0,0,1,.28,2.76A4.63,4.63,0,0,0,193.88,68.21Z" transform="translate(-0.47 -0.38)"/><path class="cls-18" d="M181.18,58.89c.39,0,.77,0,1.15.06a17.33,17.33,0,0,1,9.21,3.75,11,11,0,0,1,4.26,6.78,4.75,4.75,0,0,0-1.92-1.27,15.78,15.78,0,0,0-4-.83c-1.24-.14-2.5-.19-3.73-.4a16.17,16.17,0,0,1-2-.55,10.25,10.25,0,0,1-2.47-1.14c-1.43-1-2.68-2.66-2.08-4.44A3.85,3.85,0,0,1,181.18,58.89Z" transform="translate(-0.47 -0.38)"/><path class="cls-17" d="M170.29,43.85a12.07,12.07,0,0,1,3.09-.65c1-.11,2-.15,2.91-.32a11,11,0,0,0,1.59-.42,8.23,8.23,0,0,0,1.93-.89c1.11-.74,2.09-2.07,1.63-3.47a3.87,3.87,0,0,0-3-2.25,8,8,0,0,0-7.81,3.2A10.66,10.66,0,0,0,169,42.74a7,7,0,0,0-.22,2.15A3.7,3.7,0,0,1,170.29,43.85Z" transform="translate(-0.47 -0.38)"/><path class="cls-18" d="M180.2,36.57c-.3,0-.6,0-.9,0a13.53,13.53,0,0,0-7.18,2.92,8.6,8.6,0,0,0-3.33,5.3,3.75,3.75,0,0,1,1.5-1,12.07,12.07,0,0,1,3.09-.65c1-.11,2-.15,2.91-.32a11,11,0,0,0,1.59-.42,8.23,8.23,0,0,0,1.93-.89c1.11-.74,2.09-2.07,1.63-3.47A3.1,3.1,0,0,0,180.2,36.57Z" transform="translate(-0.47 -0.38)"/><path class="cls-17" d="M191,51.41a12.51,12.51,0,0,0-3.09-.65c-1-.1-1.95-.15-2.91-.31a11,11,0,0,1-1.59-.43,8.23,8.23,0,0,1-1.93-.89c-1.11-.74-2.09-2.07-1.63-3.46a3.88,3.88,0,0,1,3-2.26,8,8,0,0,1,7.81,3.2,10.74,10.74,0,0,1,1.68,3.69,7,7,0,0,1,.22,2.15A3.76,3.76,0,0,0,191,51.41Z" transform="translate(-0.47 -0.38)"/><path class="cls-18" d="M181.06,44.13l.9,0a13.47,13.47,0,0,1,7.18,2.93,8.58,8.58,0,0,1,3.33,5.29,3.75,3.75,0,0,0-1.5-1,12.51,12.51,0,0,0-3.09-.65c-1-.1-1.95-.15-2.91-.31a11,11,0,0,1-1.59-.43,8.23,8.23,0,0,1-1.93-.89c-1.11-.74-2.09-2.07-1.63-3.46A3.08,3.08,0,0,1,181.06,44.13Z" transform="translate(-0.47 -0.38)"/><path class="cls-17" d="M191.18,25.05a12.39,12.39,0,0,0-2,2.49c-.52.82-1,1.68-1.57,2.47a11.56,11.56,0,0,1-1.08,1.24,8.09,8.09,0,0,1-1.65,1.33c-1.16.68-2.79,1-3.83-.07a3.87,3.87,0,0,1-.7-3.67,8,8,0,0,1,6.32-5.59,10.61,10.61,0,0,1,4.05.12,6.84,6.84,0,0,1,2,.76A3.66,3.66,0,0,0,191.18,25.05Z" transform="translate(-0.47 -0.38)"/><path class="cls-18" d="M180.27,30.72c.14-.26.29-.52.44-.78a13.57,13.57,0,0,1,5.8-5.15,8.61,8.61,0,0,1,6.23-.64,3.78,3.78,0,0,0-1.56.9,12.39,12.39,0,0,0-2,2.49c-.52.82-1,1.68-1.57,2.47a11.56,11.56,0,0,1-1.08,1.24,8.09,8.09,0,0,1-1.65,1.33c-1.16.68-2.79,1-3.83-.07A3,3,0,0,1,180.27,30.72Z" transform="translate(-0.47 -0.38)"/><path class="cls-17" d="M173,23.55a9.5,9.5,0,0,1,1.46,1.87c.39.61.74,1.25,1.17,1.84a7.94,7.94,0,0,0,.81.93,6,6,0,0,0,1.24,1,2.37,2.37,0,0,0,2.86-.06,2.9,2.9,0,0,0,.52-2.74,6,6,0,0,0-4.72-4.18,7.92,7.92,0,0,0-3,.09,5.26,5.26,0,0,0-1.52.56A2.83,2.83,0,0,1,173,23.55Z" transform="translate(-0.47 -0.38)"/><path class="cls-18" d="M181.11,27.79l-.33-.58a10.17,10.17,0,0,0-4.34-3.85,6.43,6.43,0,0,0-4.65-.48,2.83,2.83,0,0,1,1.16.67,9.5,9.5,0,0,1,1.46,1.87c.39.61.74,1.25,1.17,1.84a7.94,7.94,0,0,0,.81.93,6,6,0,0,0,1.24,1,2.37,2.37,0,0,0,2.86-.06A2.26,2.26,0,0,0,181.11,27.79Z" transform="translate(-0.47 -0.38)"/><rect class="cls-43" x="68.72" y="123.26" width="218" height="7.4"/></g></g></svg>