<svg id="Layer_1" data-name="Layer 1" xmlns="http://www.w3.org/2000/svg" viewBox="0 0 4340.25 1631.56"><defs><style>.cls-1{fill:#bebcc0;}.cls-2{fill:#e3e3e4;}.cls-3{fill:#efefef;}.cls-4{fill:#fefefe;}.cls-5{fill:#e5e4e5;}.cls-6{fill:#f6f6f7;}.cls-7{fill:#edeced;}.cls-8{fill:#dcdbdd;}.cls-9{fill:#dfba2d;}.cls-10{fill:#a59153;}.cls-11{fill:#f6d25d;}.cls-12{fill:#f6d25e;}.cls-13{fill:#a79354;}.cls-14{fill:#a69254;}.cls-15{fill:#373737;}</style></defs><path class="cls-1" d="M8292.63-1484.52c-.46,20.66-6.24,40.29-11.89,59.9-6.91,24-16.23,47.13-26.37,69.94-1.62,3.64-2.92,7.43-4.28,11.18-11,30.35-28.57,56-55.63,74-7.82,5.22-10.28,11.11-9.94,19.83.86,22.09-2.67,43.62-8.38,65a218.69,218.69,0,0,1-21.51,52.43c-1.66,2.89-2.25,6.41-3.32,9.64l-56.62-.06c19.94-26.85,33.43-56.52,38-89.76,1.4-10.16,2.05-20.7-1.21-31.6-9.77-.45-19.27,0-28.42-1.57s-18-5.24-27.81-8.26c-4.26,4.58-9,9-12.95,14-25.09,32.43-45.64,67.64-63.08,104.69-1.86,3.93-2.45,8.45-3.63,12.71-1.33,2-3.23,3.89-3.92,6.13-5.48,17.86-11.63,35.6-11.58,54.64-.74,1.79-2.08,3.56-2.12,5.36-.28,14.78-1.29,29.63-.16,44.32,1.18,15.39,6.27,29.82,18.21,40.78,2.35,1.63,4.74,3.21,7,4.91,1.51,1.12,2.89,2.41,4.33,3.62-5,17-13.67,24-30.38,24.32-6.37.15-12.72.29-19-2-1.92-.7-4.62.74-7,1.2-1.08-2.19-1.62-5-3.33-6.44-7.75-6.33-11.47-14.85-14.35-24a211.54,211.54,0,0,1-9.82-58.77c-.23-11-.17-22-.24-33,.87-3.34,2.32-6.65,2.52-10,.91-15.32,4.41-30.2,7.18-45.2.32-1.78-.3-3.72-.48-5.59a20.18,20.18,0,0,0,0-2.2l0-.08c2.7-1.16,3-3.54,3-6l-.06.09c3.89-3.29,2.8-7.86,3.14-12.07l-.08.12c3.28-2.3,2.91-5.8,3-9.15l-.06.1c3.22-2.3,2.94-5.76,3-9.11l0,.07c3.19-2.29,3-5.73,3-9.07l-.05.07c3.21-2.28,3-5.72,3.1-9.06l-.06.1c3.23-2.26,3-5.72,3.14-9.06l-.08.12,2.9-6.18,0,0c3.2-2.24,3.07-5.66,3.19-9l-.08.12c1-2,2-4.1,3-6.16l0,.07a20.78,20.78,0,0,0,6.2-15l-.09.13,3.07-6.13-.08.12,3.09-6.12-.09.12,3.1-6.11-.08.13a10.45,10.45,0,0,0,5.88-9.2l0,0,3.17-6-.08.12a10.82,10.82,0,0,0,6-9.14l-.06.07,3.12-6.19,2.8-3a9.23,9.23,0,0,0,6.06-8.94l2.94-3.13c4.92-2.53,8.55-6.08,9.19-11.91l5.81-5.92c3.58-2,3-4.07.16-6.22l.08.13c-.12-3.34,0-6.75-3.21-9l0,0-2.9-6.18.08.13c-.1-3.35.08-6.8-3.14-9.07l.06.1c-.09-3.35.16-6.8-3.06-9.1l.06.1c-.09-3.35.22-6.83-3-9.13l.07.12c-.32-4.2.7-8.76-3.15-12l0,.06c-.27-4.21.79-8.75-3-12.06l0,.06c-.27-4.22.91-8.8-3-12.14l.06.12c-.42-5.26,1.16-10.9-3-15.43a4.78,4.78,0,0,0-.07-2.49c-.12-4.91,0-9.84-.46-14.71-.22-2.28-1.65-4.45-2.53-6.66a5.61,5.61,0,0,0,0-2.64v-72.09a5.66,5.66,0,0,0,.05-2.62c4.53-5.56,2.35-12.17,2.89-18.35a5.89,5.89,0,0,0,.12-2.64c4.18-4.47,2.59-10.1,3.05-15.31l-.08.11c3.91-3.31,2.75-7.9,3.06-12.12l-.06.11c3.19-2.33,2.89-5.79,2.93-9.14l0,0c3.85-3.24,2.91-7.77,3.23-12l-.08.12a20.71,20.71,0,0,0,6-15.15l-.07.1a20.93,20.93,0,0,0,6.16-15.06l-.08.13,3.06-6.14-.09.12c1-2,2-4.08,3.07-6.13l-.08.12,3.11-6.1-.08.13a10.59,10.59,0,0,0,5.89-9.2l0,0,3.2-6-.08.12a10.64,10.64,0,0,0,6-9.12l-.08.11c3.71-2,5.91-4.88,5.94-9.2l2.94-3.18a9.13,9.13,0,0,0,6.11-8.84l5.89-6.18a175.08,175.08,0,0,0,29.76-29.78l3.24-3.07c5.89-.39,9.25-4.29,12.18-8.8l-.11.08a10.79,10.79,0,0,0,9.09-6.09l-.1.08c4.13-.35,7.28-2.2,9.15-6l-.12.07,6.09-3.11-.11.08,6.11-3.07-.13.08c3.34-.12,6.76,0,9-3.22l-.05,0,6.19-2.9-.14.08c4.21-.35,8.78.72,12.07-3.15l-.11.06,47.93,0-.12-.07c2.3,3.22,5.77,3,9.11,3.06l-.11-.07,6.14,3,0,0,6,3.1-.08-.06,5.92,3.7,2.82,2.36,15.26,15.17,2.46,2.86c1,3.88,2.66,7.23,6.48,9l-.08-.13,3.14,6.07-.07-.11,3.07,6.11-.07-.11,3,6.15-.08-.13c.11,3.35-.06,6.8,3.15,9.06l-.06-.1c.12,3.34-.19,6.82,3,9.13l-.07-.12c.34,4.21-.75,8.77,3.13,12.06l0-.08c.23,4.32-.8,8.93,2.94,12.42a5.25,5.25,0,0,0,.13,2.55c.39,5.2-1.23,10.78,2.95,15.24.07,2.93.13,5.85.19,8.78l0,6-.06,6c.27,4.18-1.33,8.82,2.93,12v93l-2.82,6.11Q8292.61-1487.52,8292.63-1484.52Zm-117.86,169.36c1.68-1.34,3.3-2.42,4.67-3.75,10.52-10.2,18-22.6,25.12-35.23,11.86-21.07,18.33-44.23,24.62-67.31,7.33-26.9,11.89-54.38,15.93-82,2.53-17.33,2.67-34.74,4.54-52.06,2.58-23.83-.95-47.81-5.62-71.3-3.53-17.78-10.72-34.46-22.11-48.69-9.65-12.06-21.79-19.67-38.46-19.69-16.93,0-31.43,6-44.57,15.23-33.08,23.3-56.57,54.71-73,91.3a295.46,295.46,0,0,0-21.1,65.34,357.45,357.45,0,0,0-6.94,66.74c0,6.92,2,13.82,2.16,20.76.48,18.1,4.12,35.55,9.33,52.8,4.08,13.5,10.58,25.81,18,37.66,1,1.55,3,2.45,4.48,3.64a67.37,67.37,0,0,0,7.2-3.29c10.59-6.52,22-8.55,34.38-8C8140.68-1351.65,8162.46-1341.77,8174.77-1315.16Z" transform="translate(-3955.15 1745.48)"/><path class="cls-1" d="M4077.83-1122.09c4.11-24.75,13-47.86,25.21-70.48-5.67-5-10.68-9.68-16-14a374.45,374.45,0,0,1-62.43-64.07c-21.17-27.5-36.94-58-49.26-90.22a266.46,266.46,0,0,1-14.45-57.79c.68-6.82.08-13.24-5.73-18v-30c5.8-4.8,6.44-11.23,5.73-18.09l.39-11.88-.05.07c4.26-4.35,2.6-9.93,3.12-15.06l-.07.12c3.21-2.35,2.88-5.82,2.91-9.17a4.78,4.78,0,0,0,.18-2.46,23.16,23.16,0,0,0,6.06-15.44l-.08.14a10.62,10.62,0,0,0,6-9.16l-.07.1c3.71-2,5.95-4.89,6.07-9.23l8.79-8.9c5.87-.5,9.22-4.44,12.18-8.93l-.1.08a10.81,10.81,0,0,0,9.13-6l-.13.08,6.1-3.1-.11.08,6.13-3-.12.08c3.34-.12,6.77,0,9-3.17l-.08,0c3.34-.11,6.8.17,9.12-3l-.11.06c5.19-.5,10.79,1,15.27-3.06a5.74,5.74,0,0,0,2.67-.06h21a5.74,5.74,0,0,0,2.67.06c4.48,4.12,10.08,2.55,15.28,3l-.09,0c3.28,3.87,7.85,2.82,12.06,3.14l-.13-.08c2.28,3.27,5.75,3,9.1,3.12l-.12-.09,6.16,3-.08-.06,24.07,12.06-.07-.06,6,3.17-.13-.08c1.82,3.83,5.17,5.52,9,6.5l2.93,2.42a13.33,13.33,0,0,0,9.07,6.55l2.82,2.49,27.24,27.17,2.53,2.85a19.45,19.45,0,0,0,9.41,12.07l-.08-.13,3.18,6.09,2.27,3,3.66,6-.08-.11,3.1,6.09-.07-.11,3.07,6.11-.07-.11c1,2,2,4.09,3,6.14l-.08-.12,3,6.15-.08-.13c.09,3.35,0,6.78,3.19,9l-.05-.08,2.94,6.18-.08-.13c.08,3.36-.16,6.83,3.12,9.1l-.08-.13c.12,3.35-.23,6.86,3.07,9.13l-.08-.12c.33,4.2-.69,8.76,3.18,12l0-.07c0,3.46-.16,7,2.89,9.5a4.77,4.77,0,0,0,.15,2.46c.26,4.23-.88,8.8,3,12.14l-.06-.09c.43,5.22-1.16,10.83,3,15.32a5.8,5.8,0,0,0,.11,2.65c.54,6.2-1.65,12.82,2.87,18.4a5.16,5.16,0,0,0,0,2.56v72.11c-.95,3.82-2.28,7.58-2.77,11.45-1.29,10.31-1.37,20.85-3.48,31-4.3,20.68-12.79,39.59-27.18,55.44-3.65,4-7.48,7.87-11.55,12.14,2.32,8.73,4.8,17.21,6.8,25.8s3.54,17.43,5.27,26.15c0,1.61.07,3.23.11,4.85l-30.09,0c1-15.23-3-29.28-9.39-43.64-3.9,0-7.59-.86-10.68.15-9.93,3.26-19.66,1.08-29.36-.4-6.79-1-13.4-3.25-20.08-4.93-6.73,10-13,31.87-14.23,49.2-3.79,16.93-3.19,34.12-3.22,51.28,0,7.45.75,14.69,3.43,21.67.75,3.87,1.11,7.86,2.31,11.58a464.17,464.17,0,0,0,55.75,115.27A217.82,217.82,0,0,0,4218-881.16c12.22,11,26.2,18,43.12,17.75.06.76.11,1.53.15,2.29-5.7.3-7,5-8.73,9-4.45,10.43-12.91,14.59-23.49,15.54-3.47.31-7,.25-10.45.36-10.08.29-18.09-4.7-25.86-10.23-14.73-10.48-26.65-23.68-38-37.68-38.93-48-66.44-101.29-77.11-162.63-.81-8.33-2.09-16.66-2.35-25C4074.78-1088.58,4074.56-1105.44,4077.83-1122.09Zm129.11-89.31c6.91-4.43,10.17-9.35,13.34-14.5,11.61-18.82,16.13-39.58,16.41-61.3.12-8.9-1.76-17.8-2.24-26.73-.59-10.93-1.42-21.78-2.73-32.7-3.21-26.85-8.83-53-18.44-78.26-11.28-29.64-26.43-56.89-50.28-78.69a207.6,207.6,0,0,0-45.34-31.41c-15.55-8-32.06-14.3-50.11-12.48-23.77,2.39-43.42,12.44-54.12,34.67-9.4,19.54-12.56,41-12.56,62.48,0,14.29,2.55,28.72,5.21,42.85,8.41,44.8,26.71,85.41,53.7,122.09,6.49,8.81,13.23,17.5,20.49,25.67a266.86,266.86,0,0,0,43.11,39.3c5.93-4.61,11.36-8.89,16.85-13.09,2-1.5,4-3.73,6.16-4.06,12.34-1.87,24.75-3.54,36.34,3.4C4192.21-1228.48,4200-1220.9,4206.94-1211.4Zm-43.61-2.94c-7.21,2.33-10.26,7.4-11.92,14.39,7.72,5.21,15.85,6.65,24.48,6.21,2.49-.13,5.06-.18,6-3.81C4177.94-1205.22,4169.23-1208,4163.33-1214.34Z" transform="translate(-3955.15 1745.48)"/><path class="cls-2" d="M3960.88-1484.71c.71,6.86.07,13.29-5.73,18.09v-12Z" transform="translate(-3955.15 1745.48)"/><path class="cls-3" d="M3955.15-1436.61c5.81,4.75,6.41,11.17,5.73,18l-5.73-9Z" transform="translate(-3955.15 1745.48)"/><path class="cls-4" d="M3960.88-1484.71l-5.73,6.09v-9l6.12-9Z" transform="translate(-3955.15 1745.48)"/><path class="cls-5" d="M8295.4-1589.62c-4.26-3.21-2.66-7.85-2.94-12l1.47,0h1.47Z" transform="translate(-3955.15 1745.48)"/><path class="cls-6" d="M8295.4-1601.62h-1.47l-1.47,0q0-3,.06-6l2.88,0Z" transform="translate(-3955.15 1745.48)"/><path class="cls-4" d="M8295.4-1607.62l-2.88,0c0-2,0-4,0-6h2.9Z" transform="translate(-3955.15 1745.48)"/><path class="cls-7" d="M8292.63-1484.52q0-3,0-6c.94,0,1.88-.08,2.82-.11v6C8294.48-1484.6,8293.55-1484.57,8292.63-1484.52Z" transform="translate(-3955.15 1745.48)"/><path class="cls-8" d="M8295.4-1490.62c-.94,0-1.88.06-2.82.11l2.82-6.11Z" transform="translate(-3955.15 1745.48)"/><path class="cls-4" d="M4270-1289.55v-72.11c1,2.13,2.9,4.26,2.92,6.41q.35,29.64,0,59.29C4272.88-1293.81,4271-1291.69,4270-1289.55Z" transform="translate(-3955.15 1745.48)"/><path class="cls-4" d="M7992.53-1502.66v72.09c-1-2.14-2.87-4.27-2.89-6.43q-.35-29.61,0-59.23C7989.66-1498.39,7991.52-1500.52,7992.53-1502.66Z" transform="translate(-3955.15 1745.48)"/><path class="cls-4" d="M8094.21-1703.62a175.08,175.08,0,0,1-29.76,29.78C8068.63-1684.08,8084-1699.41,8094.21-1703.62Z" transform="translate(-3955.15 1745.48)"/><path class="cls-4" d="M4210-1523.32l-27.24-27.17c1.48.21,3.47-.12,4.34.72q11.28,10.83,22.14,22.11C4210.08-1526.78,4209.77-1524.8,4210-1523.32Z" transform="translate(-3955.15 1745.48)"/><path class="cls-4" d="M8214.38-1742.44l-47.93,0c1.61-1,3.21-2.8,4.84-2.83q19.13-.36,38.26,0C8211.18-1745.27,8212.77-1743.44,8214.38-1742.44Z" transform="translate(-3955.15 1745.48)"/><path class="cls-4" d="M4153.07-1571.48,4129-1583.54C4138.87-1583.21,4147.1-1579.6,4153.07-1571.48Z" transform="translate(-3955.15 1745.48)"/><path class="cls-4" d="M8259.29-1712.32,8244-1727.49C8252.9-1726.24,8257.92-1721.12,8259.29-1712.32Z" transform="translate(-3955.15 1745.48)"/><path class="cls-4" d="M4084.15-1595.57h-21C4071.23-1599.74,4076-1599.74,4084.15-1595.57Z" transform="translate(-3955.15 1745.48)"/><path class="cls-4" d="M7992.57-1427.93c.88,2.21,2.31,4.38,2.53,6.66.48,4.87.34,9.8.46,14.71-1-2.15-2.74-4.24-2.93-6.46C7992.21-1417.95,7992.55-1423,7992.57-1427.93Z" transform="translate(-3955.15 1745.48)"/><path class="cls-4" d="M4221.94-1508.4a19.45,19.45,0,0,1-9.41-12.07C4218-1518.26,4221.94-1514.88,4221.94-1508.4Z" transform="translate(-3955.15 1745.48)"/><path class="cls-4" d="M8109.63-1715.49c-2.93,4.51-6.29,8.41-12.18,8.8C8100.17-1711.47,8103.35-1715.63,8109.63-1715.49Z" transform="translate(-3955.15 1745.48)"/><path class="cls-4" d="M8019.71-1604.54a20.93,20.93,0,0,1-6.16,15.06C8013.28-1595.45,8014.41-1600.85,8019.71-1604.54Z" transform="translate(-3955.15 1745.48)"/><path class="cls-4" d="M8016.64-1298.66c-.64,5.83-4.27,9.38-9.19,11.91C8007.71-1292.88,8011.77-1296.09,8016.64-1298.66Z" transform="translate(-3955.15 1745.48)"/><path class="cls-4" d="M4269.94-1364.22c-4.52-5.58-2.33-12.2-2.87-18.4,1,2.15,2.6,4.24,2.85,6.48C4270.37-1372.21,4270-1368.19,4269.94-1364.22Z" transform="translate(-3955.15 1745.48)"/><path class="cls-4" d="M8013.62-1589.58a20.71,20.71,0,0,1-6,15.15C8007.18-1580.44,8008.5-1585.77,8013.62-1589.58Z" transform="translate(-3955.15 1745.48)"/><path class="cls-4" d="M7968.72-1223.52a20.78,20.78,0,0,1-6.2,15C7962.31-1214.45,7963.43-1219.84,7968.72-1223.52Z" transform="translate(-3955.15 1745.48)"/><path class="cls-4" d="M7995.47-1523.63c-.54,6.18,1.64,12.79-2.89,18.35,0-4-.41-8,0-11.89C7992.88-1519.4,7994.48-1521.48,7995.47-1523.63Z" transform="translate(-3955.15 1745.48)"/><path class="cls-4" d="M4006.31-1574.51c-3,4.49-6.31,8.43-12.18,8.93C3996.81-1570.43,4000-1574.58,4006.31-1574.51Z" transform="translate(-3955.15 1745.48)"/><path class="cls-4" d="M3973.42-1538.53a23.16,23.16,0,0,1-6.06,15.44C3966.88-1529.21,3968-1534.72,3973.42-1538.53Z" transform="translate(-3955.15 1745.48)"/><path class="cls-4" d="M8292.31-1622.4c-4.18-4.46-2.56-10-2.95-15.24C8294.38-1633.34,8291.73-1627.56,8292.31-1622.4Z" transform="translate(-3955.15 1745.48)"/><path class="cls-4" d="M4060.44-1595.51c-4.48,4.1-10.08,2.56-15.27,3.06,2.11-1,4.13-2.61,6.35-3C4054.41-1596,4057.46-1595.53,4060.44-1595.51Z" transform="translate(-3955.15 1745.48)"/><path class="cls-4" d="M7995.63-1404.07c4.15,4.53,2.57,10.17,3,15.43C7993.3-1392.94,7996.19-1398.84,7995.63-1404.07Z" transform="translate(-3955.15 1745.48)"/><path class="cls-4" d="M3964.34-1511.58c-.52,5.13,1.14,10.71-3.12,15.06,0-2.94-.42-6,.1-8.81C3961.72-1507.52,3963.29-1509.5,3964.34-1511.58Z" transform="translate(-3955.15 1745.48)"/><path class="cls-4" d="M4102.1-1592.49c-5.2-.47-10.8,1.1-15.28-3C4092-1594.94,4097.83-1597.68,4102.1-1592.49Z" transform="translate(-3955.15 1745.48)"/><path class="cls-4" d="M4267-1385.27c-4.16-4.49-2.57-10.1-3-15.32C4269.15-1396.3,4266.42-1390.46,4267-1385.27Z" transform="translate(-3955.15 1745.48)"/><path class="cls-4" d="M7998.64-1541.58c-.46,5.21,1.13,10.84-3.05,15.31,0-3-.47-6,0-8.94C7996-1537.44,7997.59-1539.47,7998.64-1541.58Z" transform="translate(-3955.15 1745.48)"/><path class="cls-4" d="M8166.56-1742.53c-3.29,3.87-7.86,2.8-12.07,3.15C8157.53-1744.19,8162.35-1742.19,8166.56-1742.53Z" transform="translate(-3955.15 1745.48)"/><path class="cls-4" d="M8001.49-1376.68c3.83,3.31,2.77,7.85,3,12.06C8000-1367.75,8001.88-1372.5,8001.49-1376.68Z" transform="translate(-3955.15 1745.48)"/><path class="cls-4" d="M4167.94-1561.95c-3.87-1-7.22-2.67-9-6.5C4163.6-1568.63,4166.73-1566.63,4167.94-1561.95Z" transform="translate(-3955.15 1745.48)"/><path class="cls-4" d="M4179.94-1553a13.33,13.33,0,0,1-9.07-6.55C4175.53-1559.6,4178.73-1557.66,4179.94-1553Z" transform="translate(-3955.15 1745.48)"/><path class="cls-4" d="M8001.62-1553.59c-.31,4.22.85,8.81-3.06,12.12C7998.87-1545.69,7996.94-1550.47,8001.62-1553.59Z" transform="translate(-3955.15 1745.48)"/><path class="cls-4" d="M8004.51-1283.62a9.23,9.23,0,0,1-6.06,8.94A9,9,0,0,1,8004.51-1283.62Z" transform="translate(-3955.15 1745.48)"/><path class="cls-4" d="M3979.34-1547.55a10.62,10.62,0,0,1-6,9.16C3973.06-1542.94,3975.09-1546,3979.34-1547.55Z" transform="translate(-3955.15 1745.48)"/><path class="cls-4" d="M8127.66-1727.42c-1.87,3.8-5,5.65-9.15,6C8120.07-1725.69,8123.1-1727.72,8127.66-1727.42Z" transform="translate(-3955.15 1745.48)"/><path class="cls-4" d="M8118.61-1721.5a10.79,10.79,0,0,1-9.09,6.09C8111-1719.69,8114.1-1721.67,8118.61-1721.5Z" transform="translate(-3955.15 1745.48)"/><path class="cls-4" d="M8268.23-1700.41c-3.82-1.82-5.52-5.17-6.48-9C8266.42-1708.24,8268.42-1705.11,8268.23-1700.41Z" transform="translate(-3955.15 1745.48)"/><path class="cls-4" d="M7938.69-1142.54c-.34,4.21.75,8.78-3.14,12.07C7935.9-1134.68,7933.92-1139.49,7938.69-1142.54Z" transform="translate(-3955.15 1745.48)"/><path class="cls-4" d="M7992.59-1265.56a10.82,10.82,0,0,1-6,9.14C7986.39-1260.91,7988.41-1263.95,7992.59-1265.56Z" transform="translate(-3955.15 1745.48)"/><path class="cls-4" d="M8289.23-1640.19c-3.74-3.49-2.71-8.1-2.94-12.42C8290.91-1649.33,8289-1644.51,8289.23-1640.19Z" transform="translate(-3955.15 1745.48)"/><path class="cls-4" d="M8049.51-1655.64c0,4.32-2.23,7.24-5.94,9.2C8043.36-1650.93,8045.43-1653.93,8049.51-1655.64Z" transform="translate(-3955.15 1745.48)"/><path class="cls-4" d="M8286.34-1652.53c-3.88-3.29-2.79-7.85-3.13-12.06C8287.92-1661.52,8286-1656.72,8286.34-1652.53Z" transform="translate(-3955.15 1745.48)"/><path class="cls-4" d="M8034.51-1631.61a10.59,10.59,0,0,1-5.89,9.2C8028.34-1626.91,8030.4-1629.92,8034.51-1631.61Z" transform="translate(-3955.15 1745.48)"/><path class="cls-4" d="M8058.56-1667.66a9.13,9.13,0,0,1-6.11,8.84C8052.49-1663.14,8054.59-1666,8058.56-1667.66Z" transform="translate(-3955.15 1745.48)"/><path class="cls-4" d="M4258-1424.53c-3.87-3.26-2.85-7.82-3.18-12C4259.64-1433.53,4257.64-1428.71,4258-1424.53Z" transform="translate(-3955.15 1745.48)"/><path class="cls-4" d="M4114.07-1589.4c-4.21-.32-8.78.73-12.06-3.14C4106.21-1592.18,4111-1594.16,4114.07-1589.4Z" transform="translate(-3955.15 1745.48)"/><path class="cls-4" d="M7983.52-1250.58a10.45,10.45,0,0,1-5.88,9.2C7977.35-1245.89,7979.41-1248.89,7983.52-1250.58Z" transform="translate(-3955.15 1745.48)"/><path class="cls-4" d="M4264-1400.5c-3.86-3.34-2.72-7.91-3-12.14C4265.52-1409.44,4263.7-1404.71,4264-1400.5Z" transform="translate(-3955.15 1745.48)"/><path class="cls-4" d="M3985.34-1556.68c-.12,4.34-2.36,7.27-6.07,9.23C3979.07-1552,3981.2-1555,3985.34-1556.68Z" transform="translate(-3955.15 1745.48)"/><path class="cls-4" d="M8007.7-1574.55c-.32,4.19.62,8.72-3.23,12C8004.92-1566.75,8002.9-1571.57,8007.7-1574.55Z" transform="translate(-3955.15 1745.48)"/><path class="cls-4" d="M8004.5-1364.68c3.85,3.27,2.83,7.83,3.15,12C8002.93-1355.7,8004.9-1360.5,8004.5-1364.68Z" transform="translate(-3955.15 1745.48)"/><path class="cls-4" d="M7998.56-1388.76c3.87,3.34,2.69,7.92,3,12.14C7997-1379.8,7998.85-1384.54,7998.56-1388.76Z" transform="translate(-3955.15 1745.48)"/><path class="cls-4" d="M4015.34-1580.47a10.81,10.81,0,0,1-9.13,6Q4008.57-1580.8,4015.34-1580.47Z" transform="translate(-3955.15 1745.48)"/><path class="cls-4" d="M8043.65-1646.55a10.64,10.64,0,0,1-6,9.12C8037.38-1641.95,8039.39-1645,8043.65-1646.55Z" transform="translate(-3955.15 1745.48)"/><path class="cls-4" d="M8280.31-1673.5c-3.21-2.26-3-5.71-3.15-9.06C8281-1680.52,8280.29-1676.88,8280.31-1673.5Z" transform="translate(-3955.15 1745.48)"/><path class="cls-4" d="M8283.28-1664.47c-3.22-2.31-2.91-5.79-3-9.13C8284-1671.47,8283.31-1667.86,8283.28-1664.47Z" transform="translate(-3955.15 1745.48)"/><path class="cls-4" d="M4045.28-1592.51c-2.32,3.18-5.78,2.9-9.12,3C4038.3-1593.22,4041.9-1592.53,4045.28-1592.51Z" transform="translate(-3955.15 1745.48)"/><path class="cls-4" d="M4036.24-1589.55c-2.26,3.18-5.69,3-9,3.17C4029.23-1590.24,4032.87-1589.51,4036.24-1589.55Z" transform="translate(-3955.15 1745.48)"/><path class="cls-4" d="M4123-1586.36c-3.35-.1-6.82.15-9.1-3.12C4117.35-1589.52,4121-1590.27,4123-1586.36Z" transform="translate(-3955.15 1745.48)"/><path class="cls-4" d="M4246-1460.5c-3.22-2.25-3.1-5.68-3.19-9C4246.73-1467.52,4246-1463.87,4246-1460.5Z" transform="translate(-3955.15 1745.48)"/><path class="cls-4" d="M4252-1445.43c-3.28-2.27-3-5.74-3.12-9.1C4252.74-1452.48,4252-1448.84,4252-1445.43Z" transform="translate(-3955.15 1745.48)"/><path class="cls-4" d="M4254.94-1436.43c-3.3-2.27-2.95-5.78-3.07-9.13C4255.73-1443.47,4255-1439.83,4254.94-1436.43Z" transform="translate(-3955.15 1745.48)"/><path class="cls-4" d="M7947.56-1169.58c-.08,3.34.15,6.78-3,9.07C7944.56-1163.86,7943.88-1167.45,7947.56-1169.58Z" transform="translate(-3955.15 1745.48)"/><path class="cls-4" d="M4260.89-1415.1c-3.05-2.53-2.89-6-2.89-9.5C4261.8-1422.29,4261-1418.59,4260.89-1415.1Z" transform="translate(-3955.15 1745.48)"/><path class="cls-4" d="M8007.58-1352.77c3.24,2.3,2.93,5.78,3,9.13C8006.84-1345.77,8007.54-1349.38,8007.58-1352.77Z" transform="translate(-3955.15 1745.48)"/><path class="cls-4" d="M3967.18-1520.63c0,3.35.3,6.82-2.91,9.17C3964.22-1514.84,3963.58-1518.41,3967.18-1520.63Z" transform="translate(-3955.15 1745.48)"/><path class="cls-4" d="M8010.54-1343.74c3.22,2.3,3,5.75,3.06,9.1C8009.85-1336.75,8010.55-1340.36,8010.54-1343.74Z" transform="translate(-3955.15 1745.48)"/><path class="cls-4" d="M8019.48-1319.66c3.19,2.24,3.09,5.65,3.21,9C8018.84-1312.68,8019.57-1316.31,8019.48-1319.66Z" transform="translate(-3955.15 1745.48)"/><path class="cls-4" d="M7959.68-1202.54c-.12,3.33,0,6.75-3.19,9C7956.58-1196.89,7955.86-1200.52,7959.68-1202.54Z" transform="translate(-3955.15 1745.48)"/><path class="cls-4" d="M7953.69-1187.53c-.1,3.34.09,6.8-3.14,9.06C7950.57-1181.85,7949.84-1185.49,7953.69-1187.53Z" transform="translate(-3955.15 1745.48)"/><path class="cls-4" d="M7950.61-1178.57c-.1,3.34.11,6.78-3.1,9.06C7947.56-1172.87,7946.87-1176.48,7950.61-1178.57Z" transform="translate(-3955.15 1745.48)"/><path class="cls-4" d="M7944.56-1160.58c-.07,3.35.21,6.81-3,9.11C7941.55-1154.84,7940.87-1158.43,7944.56-1160.58Z" transform="translate(-3955.15 1745.48)"/><path class="cls-4" d="M7941.61-1151.57c-.09,3.35.28,6.85-3,9.15C7938.55-1145.81,7937.85-1149.42,7941.61-1151.57Z" transform="translate(-3955.15 1745.48)"/><path class="cls-4" d="M8004.49-1562.62c0,3.35.26,6.81-2.93,9.14C8001.54-1556.84,8000.87-1560.41,8004.49-1562.62Z" transform="translate(-3955.15 1745.48)"/><path class="cls-4" d="M8223.37-1739.45c-3.34-.11-6.81.16-9.11-3.06C8217.64-1742.53,8221.26-1743.25,8223.37-1739.45Z" transform="translate(-3955.15 1745.48)"/><path class="cls-4" d="M8148.49-1736.59c-2.23,3.21-5.65,3.1-9,3.22C8141.5-1737.25,8145.14-1736.51,8148.49-1736.59Z" transform="translate(-3955.15 1745.48)"/><path class="cls-4" d="M8013.54-1334.74c3.22,2.27,3,5.72,3.14,9.07C8012.83-1327.72,8013.56-1331.36,8013.54-1334.74Z" transform="translate(-3955.15 1745.48)"/><path class="cls-4" d="M4240-1475.43c-1-2-2-4.09-3-6.14C4239.54-1480.32,4240-1478,4240-1475.43Z" transform="translate(-3955.15 1745.48)"/><path class="cls-4" d="M8022.61-1310.8c2.81,2.15,3.42,4.24-.16,6.22C8022.5-1306.65,8022.56-1308.73,8022.61-1310.8Z" transform="translate(-3955.15 1745.48)"/><path class="cls-4" d="M8022.69-1610.55l-3.06,6.14C8019.51-1607,8020-1609.33,8022.69-1610.55Z" transform="translate(-3955.15 1745.48)"/><path class="cls-4" d="M7995.65-1271.68l-3.12,6.19Z" transform="translate(-3955.15 1745.48)"/><path class="cls-4" d="M7986.66-1256.54l-3.17,6Z" transform="translate(-3955.15 1745.48)"/><path class="cls-4" d="M8025.67-1616.56c-1,2-2.05,4.09-3.07,6.13C8022.51-1613,8023-1615.33,8025.67-1616.56Z" transform="translate(-3955.15 1745.48)"/><path class="cls-4" d="M8028.7-1622.54l-3.11,6.1C8025.51-1619,8026-1621.35,8028.7-1622.54Z" transform="translate(-3955.15 1745.48)"/><path class="cls-4" d="M7977.72-1241.51l-3.1,6.11C7974.52-1238,7975-1240.32,7977.72-1241.51Z" transform="translate(-3955.15 1745.48)"/><path class="cls-4" d="M8037.68-1637.55l-3.2,6C8034.51-1634.11,8035.05-1636.39,8037.68-1637.55Z" transform="translate(-3955.15 1745.48)"/><path class="cls-4" d="M8277.24-1682.43l-3-6.15C8276.85-1687.32,8277.34-1685,8277.24-1682.43Z" transform="translate(-3955.15 1745.48)"/><path class="cls-4" d="M7971.7-1229.52l-3.07,6.13C7968.52-1226,7969-1228.31,7971.7-1229.52Z" transform="translate(-3955.15 1745.48)"/><path class="cls-4" d="M8274.29-1688.47l-3.07-6.11C8273.84-1693.35,8274.34-1691,8274.29-1688.47Z" transform="translate(-3955.15 1745.48)"/><path class="cls-4" d="M8133.63-1730.46l-6.09,3.11C8128.71-1730.06,8131-1730.56,8133.63-1730.46Z" transform="translate(-3955.15 1745.48)"/><path class="cls-4" d="M7962.56-1208.58c-1,2.06-2,4.11-3,6.16C7960.59-1204.47,7961.57-1206.52,7962.56-1208.58Z" transform="translate(-3955.15 1745.48)"/><path class="cls-4" d="M4225-1502.44l-3.18-6.09C4224.53-1507.35,4225-1505,4225-1502.44Z" transform="translate(-3955.15 1745.48)"/><path class="cls-4" d="M7956.51-1193.59l-2.9,6.18Z" transform="translate(-3955.15 1745.48)"/><path class="cls-4" d="M4237-1481.46l-3.07-6.11C4236.54-1486.33,4237-1484,4237-1481.46Z" transform="translate(-3955.15 1745.48)"/><path class="cls-4" d="M8241.21-1729.85l-5.92-3.7C8238-1733.53,8240.44-1733,8241.21-1729.85Z" transform="translate(-3955.15 1745.48)"/><path class="cls-4" d="M8139.63-1733.45l-6.11,3.07C8134.72-1733.07,8137-1733.57,8139.63-1733.45Z" transform="translate(-3955.15 1745.48)"/><path class="cls-4" d="M4231-1493.44l-3.66-6C4230.49-1498.63,4231-1496.2,4231-1493.44Z" transform="translate(-3955.15 1745.48)"/><path class="cls-4" d="M8271.29-1694.47l-3.14-6.07C8270.83-1699.36,8271.34-1697.06,8271.29-1694.47Z" transform="translate(-3955.15 1745.48)"/><path class="cls-4" d="M7935.61-1130.56c0,2.49-.3,4.87-3,6C7932.52-1127.08,7933.05-1129.32,7935.61-1130.56Z" transform="translate(-3955.15 1745.48)"/><path class="cls-4" d="M8235.37-1733.49l-6-3.11Z" transform="translate(-3955.15 1745.48)"/><path class="cls-4" d="M8229.4-1736.56l-6.14-3Z" transform="translate(-3955.15 1745.48)"/><path class="cls-4" d="M4248.91-1454.4l-2.94-6.18C4248.55-1459.29,4249-1457,4248.91-1454.4Z" transform="translate(-3955.15 1745.48)"/><path class="cls-4" d="M8154.63-1739.46l-6.19,2.9Z" transform="translate(-3955.15 1745.48)"/><path class="cls-4" d="M4159-1568.37l-6-3.17C4155.57-1571.55,4157.86-1571,4159-1568.37Z" transform="translate(-3955.15 1745.48)"/><path class="cls-4" d="M4242.91-1469.4l-3-6.15C4242.54-1474.32,4243-1472,4242.91-1469.4Z" transform="translate(-3955.15 1745.48)"/><path class="cls-4" d="M4234-1487.46l-3.1-6.09C4233.53-1492.34,4234-1490,4234-1487.46Z" transform="translate(-3955.15 1745.48)"/><path class="cls-4" d="M4021.31-1583.49l-6.1,3.1C4016.42-1583,4018.72-1583.56,4021.31-1583.49Z" transform="translate(-3955.15 1745.48)"/><path class="cls-4" d="M4129.08-1583.48l-6.16-3C4125.5-1586.57,4127.8-1586.07,4129.08-1583.48Z" transform="translate(-3955.15 1745.48)"/><path class="cls-4" d="M4027.33-1586.46l-6.13,3C4022.43-1586.06,4024.73-1586.56,4027.33-1586.46Z" transform="translate(-3955.15 1745.48)"/><path class="cls-4" d="M8016.6-1325.8l2.9,6.18Z" transform="translate(-3955.15 1745.48)"/><path class="cls-4" d="M7974.71-1235.52l-3.09,6.12C7971.52-1232,7972-1234.31,7974.71-1235.52Z" transform="translate(-3955.15 1745.48)"/><path class="cls-9" d="M4261.15-863.41c-16.92.29-30.9-6.79-43.12-17.75a217.82,217.82,0,0,1-36.41-41.39,464.17,464.17,0,0,1-55.75-115.27c-1.2-3.72-1.56-7.71-2.31-11.58,6-.06,12-.18,18-.18q248.16-.08,496.32-.14c5.49,0,11.28.71,16.39-.76,7.44-2.13,14.81-2,22.27-2q148.44-.09,296.89-.09,338.88-.08,677.75-.17c5.49,0,11.28.77,16.4-.68,7.93-2.25,15.81-2.06,23.76-2.06q212.93-.09,425.85-.1,274.4-.06,548.8-.17c5.48,0,11.23.55,16.38-.87,6.94-1.92,13.82-1.86,20.78-1.86q149.19-.09,298.39-.09,338.88-.08,677.75-.19c6,0,11.94-.48,17.9-1,5.43-.44,10.84-1.69,16.26-1.7q105-.15,209.93,0c.07,11,0,22,.24,33a211.54,211.54,0,0,0,9.82,58.77c2.88,9.19,6.6,17.71,14.35,24,1.71,1.41,2.25,4.25,3.33,6.45-.32,5.41-.88,10.82-.91,16.23-.08,15.63,14.74,38.62,33.72,39.57,4.15,2.71,8.59,2,12.94.87,25.8-6.71,38.08-24,43.14-49.65,2.88-14.58-9.4-32.18-23.49-35.76-6.67-1.69-13.64-2.25-20.47-3.32-11.95-11-17-25.39-18.22-40.78-1.13-14.69-.12-29.54.16-44.32,0-1.8,1.38-3.57,2.13-5.36q100.86.06,201.73.07a73.43,73.43,0,0,0,9.4-1.1c.91-1.84,1.7-2.71,1.71-3.58.21-18.42.33-36.84.47-55.26,5.43-.8,10.86-1.46,16.66.69.38,1.78,1.14,3.68,1.14,5.58q.08,499.42.05,999.49c-3.44.71-6.21,1.58-9,1.78-4,.29-8,.09-12,.09Q6144-114,4097.87-114c-6.47,0-12.94-.55-19.41-.85q-.24-36-.48-71.95c0-4,.65-8.22-.41-11.94-3.09-10.81-2.17-21.8-2.31-32.74-.22-17.48-.19-35-.29-52.46,0-3.5.59-7.2-.33-10.45-3.34-11.79-2.22-23.8-2.39-35.73-.24-17-.18-34-.29-51,0-3.49.5-7.21-.49-10.43-2.88-9.32-2.11-18.8-2.2-28.25-.19-18-.19-36-.3-54,0-3.49.52-7.19-.44-10.44-2.88-9.81-2.17-19.79-2.27-29.74-.17-18.49-.18-37-.29-55.46,0-3.5.55-7.2-.39-10.45-3.15-10.79-2.19-21.79-2.32-32.73-.21-17.49-.19-35-.29-52.47,0-3.49.58-7.2-.35-10.45-3.39-11.78-2.19-23.79-2.37-35.73-.25-16-.18-32-.28-48,0-3.5.49-7.22-.5-10.44-2.87-9.31-2.1-18.8-2.19-28.25-.2-19-.2-38-.31-57,0-3.5.51-7.2-.46-10.44-2.91-9.81-2.15-19.8-2.25-29.74-.18-17.49-.14-35-.31-52.47,0-4.48-.43-9-.83-13.42-.52-5.93-1.65-11.84-1.74-17.77-.36-23.48-.41-47-.57-70.45,9,0,18.25-2.41,26.83,2.39,10.68,61.34,38.19,114.62,77.12,162.63,11.36,14,23.28,27.2,38,37.68,7.77,5.53,15.78,10.52,25.86,10.22-6.22,15.74-7.13,31.81-3.74,48.38,4.31,21,16.5,33.42,37.85,36.57,12.87,4,23.39-1.34,32.66-9.22,22.51-19.14,27.14-57.3,14.27-80.54C4291.12-856.45,4279-864.63,4261.15-863.41Zm3519.79-92.25c-3.69-.35-6.6-.88-9.52-.88q-47.23,0-94.47.19c-3,0-6,.28-9,.55-6.92.64-13.83,1.91-20.74,1.94-59,.28-118,.32-176.94.48-5,0-10.24-.61-14.91.7-7.43,2.07-14.83,1.87-22.29,1.89q-87.72.24-175.44.4c-5,0-10.24-.64-14.91.66-7.92,2.19-15.83,1.92-23.79,1.94q-87.72.24-175.44.41c-5,0-10,.34-14.94.73-6.43.51-12.84,1.76-19.26,1.79q-90.72.39-181.44.48c-5,0-10,.27-15,.65-6.93.53-13.83,1.84-20.75,1.87-60,.27-120,.32-179.94.48-5,0-10,.19-15,.57-6.93.54-13.83,1.92-20.74,1.95-58,.28-116,.32-173.94.47-5,0-10.24-.61-14.91.68-7.43,2.05-14.83,1.9-22.29,1.92q-89.22.22-178.44.4c-5,0-10.24-.65-14.92.65-7.91,2.19-15.82,1.93-23.78,2q-89.22.24-178.44.42c-5,0-10,.31-14.94.71-6.43.51-12.84,1.78-19.27,1.8-59.47.27-118.95.32-178.43.48-5,0-10,.24-14.95.62-6.93.54-13.84,1.87-20.76,1.9-59,.28-117.95.32-176.93.48-5,0-10.24-.6-14.91.71-7.43,2.09-14.83,1.85-22.3,1.87q-87.72.25-175.43.41c-5,0-10.25-.63-14.92.67-7.91,2.2-15.83,1.9-23.79,1.92q-89.21.25-178.43.43c-5,0-10,.37-14.93.76-6.44.51-12.85,1.73-19.28,1.76-60.48.26-121,.31-181.43.48-5,0-10,.28-14.95.68-6.42.51-12.81,1.8-19.22,1.83-59.48.27-119,.32-178.44.48-5,0-10,.2-15,.58-6.92.54-13.83,1.91-20.74,1.94q-89.22.42-178.44.42c-11.43,0-22.46,2-33.64,4.62-.29,3.26-.71,5.7-.7,8.15q.06,57,.25,114c0,3,.36,6,.65,8.95.61,6.42,1.82,12.84,1.85,19.26.28,50.49.32,101,.48,151.48,0,5,.22,10,.6,15,.54,6.93,1.88,13.83,1.92,20.75.29,50,.3,100,.49,150,0,5.48.48,10.95.92,16.41s1.53,10.87,1.6,16.31c.24,19.49.09,39,.31,58.49,0,3.25,1.22,6.48,1.85,9.62,3,.34,5,.76,6.95.76q45.73,0,91.46-.08c2.5,0,5.18.29,7.45-.49,7.79-2.69,15.8-2,23.76-2q176.94-.26,353.88-.45c5,0,10.23.69,14.92-.57,8.41-2.28,16.82-2,25.28-2q176.19-.24,352.38-.44c5,0,10.24.74,14.92-.53,9.4-2.54,18.83-2,28.28-2q174.69-.27,349.38-.45c5.49,0,11.23.66,16.41-.71,7.44-2,14.83-1.83,22.29-1.84q177.69-.26,355.38-.45c5,0,10.24.65,14.91-.64,7.92-2.18,15.83-1.9,23.79-1.92q176.94-.24,353.88-.44c5,0,10.24.69,14.92-.59,8.41-2.3,16.83-2,25.28-2q174.69-.24,349.38-.43c5,0,10.24.71,14.93-.55,8.9-2.39,17.82-2,26.78-2q175.43-.24,350.87-.44c5.49,0,11.24.64,16.41-.72,7.45-2,14.84-1.82,22.3-1.83q177.69-.26,355.37-.47c5.48,0,11-.41,16.42-.83,5.94-.45,11.85-1.57,17.79-1.64,19-.24,38,0,57-.23,3.28,0,6.55-1.1,9.53-1.64C7783.1-360.72,7782.92-942.48,7780.94-955.66Z" transform="translate(-3955.15 1745.48)"/><path class="cls-10" d="M4050.81-1049.13c.16,23.49.21,47,.57,70.45.09,5.93,1.22,11.84,1.74,17.77.4,4.47.79,8.94.83,13.42.17,17.49.13,35,.31,52.47.1,9.94-.66,19.93,2.25,29.74,1,3.24.44,6.94.46,10.44.11,19,.11,38,.31,57,.09,9.45-.68,18.94,2.19,28.25,1,3.22.47,6.94.5,10.44.1,16,0,32,.28,48,.18,11.94-1,24,2.37,35.73.93,3.25.33,7,.35,10.45.1,17.49.08,35,.29,52.47.13,10.94-.83,21.94,2.32,32.73.94,3.25.37,7,.39,10.45.11,18.49.12,37,.29,55.46.1,10-.61,19.93,2.27,29.74,1,3.25.42,6.95.44,10.44.11,18,.11,36,.3,54,.09,9.45-.68,18.93,2.2,28.25,1,3.22.47,6.94.49,10.43.11,17,.05,34,.29,51,.17,11.93-.95,23.94,2.39,35.73.92,3.25.31,7,.33,10.45.1,17.49.07,35,.29,52.46.14,10.94-.78,21.93,2.31,32.74,1.06,3.72.39,7.95.41,11.94q.26,36,.48,71.95l-15.19.85c-.94-3.74-1.79-6.49-2.28-9.3a41.11,41.11,0,0,1-.23-6q-2.09-77.2-4.19-154.41c-1-35-2.14-69.94-3.23-104.91q-1.4-44.21-2.83-88.42-1.58-50.2-3.14-100.41-1.42-45-2.87-89.92-1.61-51-3.18-101.91-1.35-42.72-2.76-85.42-1.65-52.47-3.26-104.92c-.8-25-1.73-49.94-2.48-74.92-.15-5,.21-10,.34-15Z" transform="translate(-3955.15 1745.48)"/><path class="cls-11" d="M8193.41-1121.61c-.14,18.42-.26,36.84-.47,55.26,0,.87-.8,1.74-1.71,3.58a73.43,73.43,0,0,1-9.4,1.1q-100.86,0-201.73-.07c-.06-19,6.09-36.78,11.57-54.64.69-2.24,2.59-4.1,3.93-6.13,15.28.13,30.57.38,45.86.34,17.74,0,35.49-.36,53.23-.55l56.62.06Z" transform="translate(-3955.15 1745.48)"/><path class="cls-12" d="M4050.81-1049.13l-17.65-.38c-3.8-23.19-2.51-46.54-3.11-70.53,3.48-.81,6.22-2,9-2,12.94-.18,25.88-.06,38.82-.06-3.28,16.65-3.06,33.51-2.54,50.33.26,8.36,1.54,16.69,2.35,25C4069.06-1051.54,4059.82-1049.1,4050.81-1049.13Z" transform="translate(-3955.15 1745.48)"/><path class="cls-11" d="M7923.36-1061.43q-105,0-209.93,0c-5.42,0-10.83,1.26-16.26,1.7-6,.48-11.93,1-17.9,1q-338.88.15-677.75.19-149.2,0-298.39.09c-7,0-13.84-.06-20.78,1.86-5.15,1.42-10.9.87-16.38.87q-274.41.13-548.8.17-212.92.06-425.85.1c-7.95,0-15.83-.19-23.76,2.06-5.12,1.45-10.91.68-16.4.68q-338.86.1-677.75.17-148.44,0-296.89.09c-7.46,0-14.83-.15-22.27,2-5.11,1.47-10.9.76-16.39.76q-248.16.09-496.32.14c-6,0-12,.12-18,.18-2.68-7-3.45-14.22-3.43-21.67,0-17.16-.57-34.35,3.22-51.27l83.74-.39,30.09,0c5.48.2,11,.59,16.45.59q1832.73,0,3665.46,0c4.49,0,9-.07,13.49-.11.18,1.87.8,3.81.48,5.59-2.77,15-6.27,29.88-7.18,45.2C7925.68-1068.08,7924.23-1064.77,7923.36-1061.43Z" transform="translate(-3955.15 1745.48)"/><path class="cls-13" d="M7983.91-883.42c6.32-3.81,13.25-6.88,18.82-11.57,9.71-8.16,15.42-19.12,18.07-31.56,3.17-14.87-.23-27.36-13.4-36.2-1.44-1.21-2.82-2.5-4.33-3.62-2.31-1.7-4.7-3.28-7-4.91,6.84,1.07,13.81,1.63,20.48,3.32,14.09,3.58,26.37,21.18,23.49,35.76-5.06,25.65-17.34,42.94-43.14,49.65C7992.5-881.41,7988.06-880.71,7983.91-883.42Z" transform="translate(-3955.15 1745.48)"/><path class="cls-14" d="M4252.74-751.26c23.27-10.73,33.59-30.09,35.74-54.55a68.21,68.21,0,0,0-.82-19.36c-3.25-15.84-11-28.78-26.36-36,0-.76-.09-1.53-.15-2.29,17.89-1.22,30,7,38.52,22.39,12.87,23.24,8.24,61.4-14.27,80.54C4276.13-752.6,4265.61-747.26,4252.74-751.26Z" transform="translate(-3955.15 1745.48)"/><path class="cls-10" d="M7780.94-955.66c2,13.18,2.16,594.94.3,609.53-3,.54-6.25,1.61-9.53,1.64-19,.19-38,0-57,.23-5.94.07-11.85,1.19-17.79,1.64-5.46.42-10.94.82-16.42.83q-177.69.29-355.37.47c-7.46,0-14.85-.14-22.3,1.83-5.17,1.36-10.92.71-16.41.72q-175.44.24-350.87.44c-9,0-17.88-.37-26.78,2-4.69,1.26-9.94.54-14.93.55q-174.69.22-349.38.43c-8.45,0-16.87-.33-25.28,2-4.68,1.28-9.93.58-14.92.59q-176.94.24-353.88.44c-8,0-15.87-.26-23.79,1.92-4.67,1.29-9.92.63-14.91.64q-177.69.24-355.38.45c-7.46,0-14.85-.12-22.29,1.84-5.18,1.37-10.92.7-16.41.71q-174.69.24-349.38.45c-9.45,0-18.88-.52-28.28,2-4.68,1.27-9.93.53-14.92.53q-176.19.24-352.38.44c-8.46,0-16.87-.29-25.28,2-4.69,1.26-9.93.57-14.92.57q-176.94.24-353.88.45c-8,0-16-.65-23.76,2-2.27.78-4.95.49-7.45.49q-45.73.09-91.46.08c-2,0-3.95-.42-6.95-.76-.63-3.14-1.81-6.37-1.85-9.62-.22-19.5-.07-39-.31-58.49-.07-5.44-1.16-10.86-1.6-16.31s-.9-10.93-.92-16.41c-.19-50-.2-100-.49-150,0-6.92-1.38-13.82-1.92-20.75-.38-5-.59-10-.6-15-.16-50.49-.2-101-.48-151.48,0-6.42-1.24-12.84-1.85-19.26-.29-3-.64-6-.65-8.95q-.18-57-.25-114c0-2.45.41-4.89.7-8.15,11.18-2.64,22.21-4.61,33.64-4.62q89.22-.06,178.44-.42c6.91,0,13.82-1.4,20.74-1.94,5-.38,10-.56,15-.58,59.48-.16,119-.21,178.44-.48,6.41,0,12.8-1.32,19.22-1.83,5-.4,10-.66,14.95-.68,60.48-.17,120.95-.22,181.43-.48,6.43,0,12.84-1.25,19.28-1.76,5-.39,9.95-.74,14.93-.76q89.22-.25,178.43-.43c8,0,15.88.28,23.79-1.92,4.67-1.3,9.93-.66,14.92-.67q87.72-.23,175.43-.41c7.47,0,14.87.22,22.3-1.87,4.67-1.31,9.92-.7,14.91-.71,59-.16,118-.2,176.93-.48,6.92,0,13.83-1.36,20.76-1.9,5-.38,10-.6,14.95-.62,59.48-.16,119-.21,178.43-.48,6.43,0,12.84-1.29,19.27-1.8,5-.4,10-.69,14.94-.71q89.22-.25,178.44-.42c8,0,15.87.24,23.78-2,4.68-1.3,9.93-.63,14.92-.65q89.22-.23,178.44-.4c7.46,0,14.86.13,22.29-1.92,4.67-1.29,9.92-.67,14.91-.68,58-.15,116-.19,173.94-.47,6.91,0,13.81-1.41,20.74-1.95,5-.38,10-.55,15-.57,60-.16,120-.21,179.94-.48,6.92,0,13.82-1.34,20.75-1.87,5-.38,10-.63,15-.65q90.72-.24,181.44-.48c6.42,0,12.83-1.28,19.26-1.79,5-.39,10-.71,14.94-.73q87.72-.24,175.44-.41c8,0,15.87.25,23.79-1.94,4.67-1.3,9.92-.64,14.91-.66q87.72-.23,175.44-.4c7.46,0,14.86.18,22.29-1.89,4.67-1.31,9.92-.69,14.91-.7,59-.16,118-.2,176.94-.48,6.91,0,13.82-1.3,20.74-1.94,3-.27,6-.54,9-.55q47.23-.17,94.47-.19C7774.34-956.54,7777.25-956,7780.94-955.66Zm-46.59,30.37c-5.36-.4-8.76-1-12.13-.86-13.95.57-27.89,1.66-41.84,2-52.93,1.38-105.87,0-158.83,2.7-54.35,2.75-108.85.28-163.3,3-52.36,2.66-104.86.34-157.32,3-54.35,2.71-108.86.28-163.3,3.06-52.36,2.67-104.86.23-157.32,2.94-53.35,2.77-106.85.31-160.3,3-53.86,2.72-107.86.3-161.81,3-52.86,2.67-105.86.32-158.81,3-53.86,2.7-107.86.3-161.81,3-52.86,2.69-105.86.22-158.81,3-53.86,2.79-107.86.24-161.81,3-52.86,2.72-105.86.33-158.81,3-53.36,2.67-106.86.33-160.31,3s-106.86.27-160.31,3c-53.86,2.71-107.86.38-161.81,3.06-52.86,2.62-105.86.32-158.81,3-53.86,2.69-107.86.3-161.81,3-52.86,2.69-105.86.28-158.81,2.94-54.36,2.72-108.87,0-163.31,3.1-30.41,1.73-61,.42-91.46,1-25,.44-49.89,1.56-74.83,2.46a36.21,36.21,0,0,0-5.93,1.22c-2.43,6-1.47,12.09-1.48,18q-.07,240.75,0,481.52c0,3-.15,6,.06,9s.82,5.69,1.39,9.51c6,.13,11.44.42,16.83.34,80.43-1.21,160.86,0,241.32-2.25,107.38-3,214.85-.15,322.29-3.08,106.39-2.91,212.86-.11,319.3-3,107.89-2.91,215.86-.14,323.8-3,105.89-2.84,211.85-.14,317.79-3,108.89-2.9,217.86-.12,326.8-3,105.89-2.85,211.85-.14,317.8-3,108.88-2.9,217.85-.08,326.79-3.05,104.89-2.85,209.86-.2,314.8-2.93,110.39-2.86,220.87.58,331.29-3.24,33.46-1.16,67-.34,100.48-.57,4.32,0,9,1.31,14.37-3.23Z" transform="translate(-3955.15 1745.48)"/><path class="cls-15" d="M7734.35-925.29v547.6c-5.35,4.54-10.05,3.2-14.37,3.23-33.5.23-67-.59-100.48.57-110.42,3.82-220.9.38-331.29,3.24-104.94,2.73-209.91.08-314.8,2.93-108.94,3-217.91.15-326.79,3.05-105.95,2.82-211.91.11-317.8,3-108.94,2.93-217.91.15-326.8,3-105.94,2.82-211.9.12-317.79,3-107.94,2.9-215.91.13-323.8,3-106.44,2.86-212.91.06-319.3,3-107.44,2.93-214.91.07-322.29,3.08-80.46,2.25-160.89,1-241.32,2.25-5.39.08-10.79-.21-16.83-.34-.57-3.82-1.18-6.65-1.39-9.51s-.06-6-.06-9q0-240.77,0-481.52c0-5.87-.95-11.92,1.48-18a36.21,36.21,0,0,1,5.93-1.22c24.94-.9,49.88-2,74.83-2.46,30.49-.54,61,.77,91.46-1,54.44-3.1,109-.38,163.31-3.1,52.95-2.66,105.95-.25,158.81-2.94,53.95-2.75,107.95-.36,161.81-3,52.95-2.63,105.95-.33,158.81-3,53.95-2.68,107.95-.35,161.81-3.06,53.45-2.69,106.95-.26,160.31-3s106.95-.36,160.31-3c53-2.65,106-.26,158.81-3,53.95-2.78,107.95-.23,161.81-3,52.95-2.74,105.95-.27,158.81-3,53.95-2.74,107.95-.34,161.81-3,52.95-2.65,105.95-.3,158.81-3,53.95-2.73,107.95-.31,161.81-3,53.45-2.7,106.95-.24,160.3-3,52.46-2.71,105-.27,157.32-2.94,54.44-2.78,108.95-.35,163.3-3.06,52.46-2.61,105-.29,157.32-3,54.45-2.77,108.95-.3,163.3-3,53-2.68,105.9-1.32,158.83-2.7,13.95-.36,27.89-1.45,41.84-2C7725.59-926.28,7729-925.69,7734.35-925.29Z" transform="translate(-3955.15 1745.48)"/></svg>