<svg id="Layer_1" data-name="Layer 1" xmlns="http://www.w3.org/2000/svg" xmlns:xlink="http://www.w3.org/1999/xlink" viewBox="0 0 3673.35 816.79"><defs><style>.cls-1{fill:#2b318b;}.cls-2{fill:#eaf3fb;}.cls-3{fill:#4f8072;}.cls-4{fill:#bf66a8;}.cls-41,.cls-42,.cls-43,.cls-44,.cls-45,.cls-5,.cls-55,.cls-9{fill:#dfd0a7;stroke-miterlimit:10;stroke-width:2px;}.cls-5{stroke:#fbb040;}.cls-6{fill:#f2f6da;}.cls-7{fill:#5b4a9e;}.cls-8{fill:#d4e490;}.cls-9{stroke:#be1e2d;}.cls-10{fill:#30b44a;}.cls-11{fill:#d68d56;}.cls-12{fill:#e7a370;}.cls-13{fill:#2b753a;}.cls-14{fill:#e7a371;}.cls-15{fill:#e6a371;}.cls-16{fill:#d78d57;}.cls-17{fill:#e6a370;}.cls-18{fill:#e6a270;}.cls-19{fill:#8a8d5f;}.cls-20{fill:#d78e57;}.cls-21{fill:#e5a26f;}.cls-22{fill:#e5a270;}.cls-23{fill:#d58f58;}.cls-24{fill:#e4a26f;}.cls-25{fill:#e6a26f;}.cls-26{fill:#e7a270;}.cls-27{fill:#e6a16f;}.cls-28{fill:#e5a16e;}.cls-29{fill:#e6a16e;}.cls-30{fill:#f4b72b;}.cls-31{fill:#d95044;}.cls-32{fill:#66ac85;}.cls-33{fill:#34409a;}.cls-34{fill:#f3d3c7;}.cls-35{fill:#e2eef0;}.cls-36{fill:#8d8a72;}.cls-37{fill:#8c8971;}.cls-38{fill:#4a5c5c;}.cls-39{fill:#ee1d46;}.cls-40{fill:#4cbbec;}.cls-41{stroke:#2e3192;}.cls-42{stroke:url(#Orange_Yellow);}.cls-43{stroke:url(#Orange_Yellow-2);}.cls-44{stroke:url(#Orange_Yellow-3);}.cls-45{stroke:url(#Orange_Yellow-4);}.cls-46{fill:#ee976b;}.cls-47{fill:#d58860;}.cls-48{fill:#186031;}.cls-49{fill:#87b271;}.cls-50{fill:#e0cbc3;}.cls-51{fill:#f7e0d7;}.cls-52{fill:#799c63;}.cls-53{fill:#9b8579;}.cls-54{fill:#fff200;}.cls-55{stroke:#faf066;}.cls-56{fill:#e6e7e8;}</style><linearGradient id="Orange_Yellow" x1="-703.12" y1="969.54" x2="-701.12" y2="969.54" gradientUnits="userSpaceOnUse"><stop offset="0" stop-color="#fff33b"/><stop offset="0.04" stop-color="#fee72e"/><stop offset="0.12" stop-color="#fed51b"/><stop offset="0.2" stop-color="#fdca10"/><stop offset="0.28" stop-color="#fdc70c"/><stop offset="0.67" stop-color="#f3903f"/><stop offset="0.89" stop-color="#ed683c"/><stop offset="1" stop-color="#e93e3a"/></linearGradient><linearGradient id="Orange_Yellow-2" x1="-669.11" y1="969.54" x2="-667.11" y2="969.54" xlink:href="#Orange_Yellow"/><linearGradient id="Orange_Yellow-3" x1="-189.12" y1="969.65" x2="-187.12" y2="969.65" xlink:href="#Orange_Yellow"/><linearGradient id="Orange_Yellow-4" x1="-155.12" y1="969.65" x2="-153.12" y2="969.65" xlink:href="#Orange_Yellow"/></defs><rect class="cls-1" x="2405.8" y="295.28" width="147.35" height="703.83" transform="translate(6079.09 1079.61) rotate(-180)"/><rect class="cls-2" x="2230.71" y="302.57" width="173.97" height="696.76" transform="translate(5755.55 1087.13) rotate(-180)"/><rect class="cls-3" x="2159.48" y="376.51" width="71.01" height="622.48" transform="translate(5510.12 1160.74) rotate(-180)"/><path class="cls-4" d="M2169,308.1l-99.41-8.84S1984.4,985.4,1984.4,988.94l99.41,10.61Z" transform="translate(1120.15 -214.77)"/><path class="cls-5" d="M2552.88,353.5h-322" transform="translate(1120.15 -214.77)"/><path class="cls-5" d="M2552.88,388.23h-322" transform="translate(1120.15 -214.77)"/><path class="cls-5" d="M2553.21,878.44h-322" transform="translate(1120.15 -214.77)"/><path class="cls-5" d="M2553.21,913.17h-322" transform="translate(1120.15 -214.77)"/><path class="cls-6" d="M2116.85,504l-42.26-3.76s-36.21,291.63-36.21,293.13l42.25,4.51Z" transform="translate(1120.15 -214.77)"/><rect class="cls-7" x="1823.01" y="280.72" width="159.51" height="718.23" transform="translate(4925.68 1064.9) rotate(-180)"/><rect class="cls-8" x="1722.51" y="379.24" width="100.49" height="619.71" transform="translate(4665.67 1163.42) rotate(-180)"/><path class="cls-5" d="M1982.36,353.78h-159.8" transform="translate(1120.15 -214.77)"/><path class="cls-5" d="M1982.36,388.51h-159.8" transform="translate(1120.15 -214.77)"/><path class="cls-5" d="M1982.52,878.73h-159.8" transform="translate(1120.15 -214.77)"/><path class="cls-5" d="M1982.52,913.46h-159.8" transform="translate(1120.15 -214.77)"/><path class="cls-9" d="M1823.06,430.39h-101" transform="translate(1120.15 -214.77)"/><path class="cls-9" d="M1823.06,463.57h-101" transform="translate(1120.15 -214.77)"/><path class="cls-10" d="M1206.91,245.87q2.35,4,4.73,7.95c43,67.79,55.72,142.21,47.39,221.46a17.75,17.75,0,0,0,4.53-7.8c11.7-36.92,23.78-73.72,34.92-110.8,9-29.89,22.17-58.83,22.13-90.94l6.66-2.94c.52,1.15,1,2.29,1.55,3.43q1.62,14.36,3.25,28.73c0,7.13,0,14.26-.18,21.39-.66,36.59-5.61,72.69-12.81,108.5-2.07,10.31-4.92,20.47-8,33.15,6.9-5.85,11.58-10.43,16.85-14.17,16.7-11.85,33.63-23.39,50.47-35.05l6.48-2.8c38.77-21.24,77.77-42.09,112.22-70.23,3.31-2.7,6.2-6,9.73-8.33,2.29-1.52,5.4-1.8,8.15-2.63.17,2.86,1.44,6.25.34,8.48-12.16,24.75-23.53,50-37.42,73.78-16.55,28.32-40.07,51-65.48,71.59l-5.16,4.07-76.77,49,1.38,2.31,79.43-38.12,6.65-3.28c23.63-9.16,47.42-18,70.87-27.58,37.46-15.34,75.11-30.32,111.84-47.27,16.09-7.43,30.06-19.42,45.14-29.12,2.54-1.63,5.81-2.12,8.74-3.14-.11,3.13.74,6.71-.46,9.34-12.85,28.07-31.41,52.31-51.8,75.19-34.58,38.8-74.06,71.24-122.5,91.47-9.94,4.15-20.53,6.78-30.81,10.11l-7,1.63c-7.3,1.17-14.57,2.61-21.92,3.46-20.67,2.41-41.47,3.91-62,7-18.16,2.76-35.58,8.6-50.18,20.35-4.72,3.8-8.3,9-12,13.09,31.91-4.14,62.9-8.39,93.95-12.11,20.67-2.48,41.43-4.21,62.15-6.28l7.26-.12c58.67-2.84,117.54-4.07,174.08-23.1,2.38-.8,5.56.79,8.36,1.26-.75,1.93-1,4.49-2.33,5.69-28.6,24.85-55.19,52.72-91.26,67-19.75,7.84-40.49,13.18-60.78,19.65l-7.62,1.76-11.91,2-8.7-.09c-27.16,3.87-53.79-.29-80.36-5.33-.84-.7-1.58-1.74-2.54-2-21.67-6.84-43.3-13.81-65.09-20.24-5.39-1.58-11.3-1.36-17-2-.12.7-.23,1.39-.34,2.08l48.32,17.17,82.5,27.54,8.72,4.7,32.71,20.83,4.77,3.61,31.54,39.31,6.63,10.29,10.24,18.85,6.21,11.78c1.79,4.57,3.61,9.16-4.36,9l-3.5-2.07-3.47-3.38-5.13-5-15.65-13.79-6.79-5-8.57-5.33-15.55-8.12-68.5-21.06-10.16-3.42c-8.86-7.7-17.47-15.85-32.06-18.48,3,8.72,5.34,15.44,7.67,22.15q.26,3.33.53,6.64.78,8.59,1.58,17.2l-.3,17.23q-.9,8.52-1.81,17l-1.31,15.63c-.07,2,.36,4.17-.35,5.89-1.12,2.72-3,5.12-4.56,7.66-1.83-2.43-4.46-4.6-5.32-7.33-1.84-5.89-2.78-12.07-4.09-18.13l-3-8.87a7.52,7.52,0,0,0-.22-1.58q-2.54-7.8-5.08-15.59-1.76-5.06-3.52-10.1l-3.09-7q-1.83-4.27-3.65-8.57c-1.07-2.3-2.14-4.61-3.2-6.91q-2-4.2-3.91-8.38l-3.19-5.3c-9.5-21.42-25.76-37.52-42.89-55.73.69,7.49,1.93,12.8,1.51,18-1.36,16.63-3.34,33.21-5.07,49.81q-1.64,6-3.26,11.9l-7.12,22.27-3.21,8.63-1.92,5.08c-1.1,2.87-2.21,5.73-3.31,8.59l-13.81,36.09q-2.36,7.78-4.7,15.57-2,16.17-4,32.35c-2.74-2.15-7-3.8-7.91-6.55-2.12-6.63-2.64-13.78-3.8-20.72l-3.75-29.26L1210,816.82l-1.56-29.09.21-6.83,1.59-10.45,1.53-6.86q.9-4.22,1.81-8.43.84-2.61,1.7-5.2l2-6.88c1-2.3,2-4.61,3-6.92l26.21-53.69-2.18-1.8c-5.14,3.67-10,7.84-15.49,10.93-17.57,9.91-35.36,19.42-53.06,29.08l-8.56,3.39-34.19,12.39-8.81,4.75-47.87,27.6-8.6,6.78-15.39,13.78c-4.07,4.78-8.29,9.44-12.15,14.39-3.68,4.73-7,9.76-10.46,14.66q-3.27,4.59-6.56,9.17l-5.34-2.15c-2-14.17,1.79-27.62,5.07-41.13q1.09-5.13,2.17-10.25l4.86-13.8q13.07-21.39,26.12-42.78,1.68-1.71,3.34-3.43l32.52-22.4,6.84-3.37,12.6-4.61c-.2-.86-.39-1.72-.58-2.58h-22.28l-17.26-1.34-25.71-1.59-8.46-.19c-21.86-1.75-43.13,1.51-64.21,7.07-3.33.87-7.22-.41-10.85-.7,1.66-3.29,2.7-7.15,5.08-9.79,22.19-24.66,49.84-38.15,83.1-39.9a35.85,35.85,0,0,0,5.79-1.25l7.09-.3,150,20.71c.13-.76.25-1.52.38-2.28-10.15-3.58-20.42-6.84-30.43-10.79-35-13.79-69.44-29.07-106.81-35.72l-8.46-1c-23.12-4.52-46.13-9.77-69.39-13.35-20.52-3.15-41.34-4.35-62-6.66-2-.22-3.85-2.15-5.76-3.28,1.55-1.36,2.95-3.64,4.67-3.92,23-3.77,46.06-7.6,69.19-10.73,23.74-3.2,47.19-.28,70.42,5a47.31,47.31,0,0,0,5.08.64l6.57,1.57c8.79,3.21,17.92,5.71,26.31,9.74,36.63,17.64,73.05,35.73,109.55,53.65-12.36-4.13-25.08-7.41-37-12.58-24.3-10.54-47.46-24.12-72.4-32.64-23.45-8-48.38-12.55-73-16-17.54-2.43-35.68-.6-53.55-.37-2,0-4,2-6,3.09,12,2.39,23.22,2.67,34.39,3.69,18.08,1.66,36.39,2.48,54.12,6,34.27,6.84,66.27,20.17,97.12,36.69,14.74,7.89,30.5,14.15,46.31,19.69,10.31,3.61,21.54,4.6,33.49,7-25.39,16.86-52.43,19-80,15.3-24.44-3.25-48.48-10.08-73-12.23-32.15-2.83-64.29.43-95.71,8.54-2.83.73-5.34,2.66-8,4,.28.76.57,1.53.86,2.29,3-.22,6-.37,9-.7,18.33-2,36.61-4.74,55-5.9,31.54-2,62.23,4.4,92.9,10.88,17.4,3.67,34.8,8.89,53,4.51,6.4-1.54,13.07-2,19.61-2.91a20.17,20.17,0,0,1-8.84,7.67c-14.71,6.18-29.26,12.93-44.4,17.82-36.62,11.83-71.82,26.33-101.18,51.9-10.42,9.07-19.45,19.79-28.67,30.15-2.5,2.82-3.35,7.1-5,10.7l2.38,1.65c1.89-1.37,4.17-2.42,5.6-4.17,31.86-38.86,73.76-61.8,120.79-76.95,26.63-8.57,52.83-18.44,76-34.53,7.81-5.41,14.72-12.1,23.89-19.74-.51,4.75-.44,7.45-1.13,9.94-3.31,12.07-6.27,24.28-10.38,36.09-12.27,35.26-23.33,70.82-27.65,108.06-.92,7.88.35,16,.62,24.05,9-29.9,15-59.85,23-89.3s17.79-58.64,27-88.56c1.47,1,4.64,2.37,6.73,4.7,8.35,9.33,16.72,18.67,24.42,28.52,15.28,19.56,24.87,42,33.22,65.24,4,11.27,10.19,21.79,15.39,32.65l2.36-1.18c-8-43.53-25.45-82.63-54.84-116.57a23.15,23.15,0,0,1,9,2.89c28,15.71,57.81,26.88,88.32,36.59,31.7,10.09,61.43,24.35,88.06,44.64,4.61,3.52,9.86,6.22,14.81,9.3l1.48-2.23c-6-12.54-18.25-18.94-28.68-26.83-25.44-19.27-56.07-27.46-85.1-39.24-34-13.81-67.3-29.46-100.8-44.53-4.42-2-8.24-5.32-13-8.42a49.77,49.77,0,0,1,4.29-3.56c23.75-14.78,50.57-19.26,77.57-20.15,25.24-.82,50.6,2.53,75.92,2.83,24.8.29,49.62-.93,74.43-1.54,21.24-.52,41.82-4.36,61.42-12.71,3.55-1.51,6.72-3.88,10.06-5.85-8.42-.15-15.89,1.44-23.45,2.3-28.47,3.26-56.91,8.14-85.46,8.88-28,.72-56.17-3.63-84.29-4.27a293.08,293.08,0,0,0-51.84,3.5c-18.74,2.94-37.63,6.76-53.83,18-1.76,1.22-4.26,1.38-8.59,2.7,3.53-8,5.76-13.78,8.61-19.28,10.81-20.78,29.13-34,49.54-42.75,40.58-17.36,82.06-32.64,123.26-48.52,45.49-17.53,91.65-33.76,128.94-67,7.64-6.8,14.59-14.36,21.86-21.57l-2.24-2.5c-7.18,4.93-14.48,9.69-21.53,14.81-22.86,16.59-46,32.56-72.77,42.59-52.3,19.59-104.54,39.36-156.54,59.72-35.2,13.78-68.36,30.64-84.88,70.94,0-6.81-.35-11,.09-15.19.52-5.07,1.62-10.08,2.62-15.08,9.57-47.83,40.27-82,75.56-112,23.33-19.85,49.76-36,74.51-54.23,14.66-10.79,29-22,42.92-33.73,5-4.18,8.23-10.36,12.27-15.62l-2.35-1.91c-10.87,8.6-21.51,17.49-32.63,25.75-33.57,24.94-67.88,48.92-100.84,74.64-27.9,21.77-50.44,48.53-65.21,81.18-2.79,6.16-5.52,12.35-8.28,18.52-1.8-2-2.1-3.4-1.76-4.66,9.94-36.79,19.85-73.58,30-110.32,4.53-16.45,9.52-32.77,14.3-49.15,5.18-16.67,10.9-33.27,7-51.34q-4.37,22.25-8.74,44.48c-17.54,57.8-41.56,113.67-51.88,174-2.89-6-5.49-12-6.28-18.15-1.7-13.49-3.46-27.11-3.44-40.67.05-39.5,1.28-79,1.44-118.51.13-32.36-9.37-62.78-20.51-92.74L1206,256.81l-3,1.05q8.79,25.58,17.57,51.15c.27,1.67.5,3.36.82,5,4.85,25.34,11.59,50.5,14,76.07,2.11,22.25-.57,45-1.33,67.47-.34,9.94-.82,19.89-1.83,29.78-3,28.84-2.4,57.37,6.14,85.37,2.14,7,4.13,14.11,6.19,21.16a13,13,0,0,1-5.77-6.64c-9.24-21.76-17.33-44.09-27.85-65.21-12.32-24.72-27.33-48.08-40.08-72.59-18.55-35.69-36.1-71.89-54.18-107.82-1.3-2.6-3.41-4.8-5.14-7.18l-2,1.26a35.77,35.77,0,0,0,1.33,4.46c7.4,17,14.49,34.1,22.37,50.85,12.62,26.79,25.38,53.52,38.8,79.92,11.87,23.35,25.38,45.87,36.93,69.37,9.41,19.15,17,39.2,25.42,58.83,1.32,3.07,3,6,4.81,9.5-20.55-10.68-39.38-22.27-59.59-30.54-29-11.88-51.7-31.69-71-55-22.1-26.68-41.57-55.52-62.23-83.38-5.22-7-10.66-13.89-16-20.83l-2.28,1.52a56.93,56.93,0,0,0,3.22,6.09c23.16,33.78,45.81,67.92,69.77,101.12a167,167,0,0,0,57.75,49.84c21.16,11.22,42.79,21.55,63.81,33a113.61,113.61,0,0,1,34.93,28.86l-.82,3.09-25.94-3.76c-1.34-2.18-2.16-5.22-4.11-6.42-44-27.15-92.45-47.34-131.27-82.78l-4.91-5.31c-29.9-30-50.31-65.82-66.64-104.78-8.27-19.73-21.85-37.24-33.09-55.72-2-3.21-4.17-6.26-6.26-9.38l2.09-2.71c3.2,1.51,6.74,2.56,9.55,4.59q62.49,45.18,124.79,90.59l5,3.83a22.3,22.3,0,0,0,2.67,3.26c28.51,24.25,52.48,52.26,71,84.88.5.9,1.73,1.38,2.62,2.06l1.87-1.28c-4.14-8.24-8-16.61-12.47-24.69q-25.84-47.15-52-94.13l-6-6.43c-17.66-18.35-24-41.46-28.35-65.65-3.72-20.75-8.46-41.31-12.57-62-.69-3.43-.45-7.05-.65-10.58l2.27-1.23c2.15,2.15,4.72,4,6.38,6.48Q1127.46,341.08,1154,381l4.65,5.56a86.76,86.76,0,0,0,4.3,8.23c22.61,34.15,42.84,69.36,50.18,110.63,1.23-6.76,2.38-13.45,2.22-20.11-1-39.91-.87-79.92-3.89-119.68-2-26-8.64-51.56-13.2-77.32l-2.88-11.74c-5.42-17.28-11-34.52-16.14-51.89-.9-3,.06-6.61.16-9.94,3.17,1.78,7.25,2.84,9.33,5.48C1195.16,228.47,1200.89,237.28,1206.91,245.87Z" transform="translate(1120.15 -214.77)"/><path class="cls-11" d="M1462.42,765.75l15.55,8.12-27.08,2.85-1,3.93c7.13,4,14,10.61,21.45,11.21,4.69.38,10.1-8.13,15.18-12.66l6.79,5L1478.52,796c17.43,16.9,22,13.86,30.46,2l5.13,5c-2.15,3.08-4.35,6.11-6.29,9.31-.12.2,1.85,1.67,2.84,2.54l6.92-8.47,3.5,2.07Q1481.75,898,1442.53,987.6c-2.56,5.88-6.43,8.78-12.4,10.35-37.16,9.8-74.76,15.39-113.31,12.51,8.87-1.05,17.76-1.9,26.57-3.27,3.78-.58,7.39-2.25,11.08-3.43a48.12,48.12,0,0,0-15.5-10.57c-2.94-1.22-7.22-2.13-9.77-.89-7.3,3.57-14.13,8.17-20.87,12.77-.91.62-.25,3.53-.32,5.39h-25.52l4.63-3.18c-18.83-13.16-26.51-13.1-43.77.12l2.81,3.05c-27.42.08-55,2-82.2-.32-23.07-2-45.76-8.7-68.54-13.68a10.39,10.39,0,0,1-6.18-5.32q-36.71-82.74-73-165.67l1.65,0,5.34,2.15c3.63,14.41,8,15.9,21.41,6.89-2.61-3.33-5-6.79-7.86-9.91a76.08,76.08,0,0,0-7-6.15c3.47-4.9,6.78-9.93,10.46-14.66,3.86-5,8.08-9.61,12.15-14.39,7.4,4.76,18.5.34,28.1-12.41l-12.71-1.37,8.6-6.78c6.76.66,13.53,1.93,20.29,1.88,23.21-.17,46.46-.19,69.62-1.45,15.23-.83,30.34-3.7,45.51-5.65l-1.53,6.86-46.55,6.06c.08.8.16,1.6.25,2.4l44.71,2-.21,6.83a48.59,48.59,0,0,0-6.83.06c-5.82.86-13,9.42-11.7,13.75,1.38,4.71,14.68,14.83,20.09,15.28l1.68,13.68c-1.79-.07-4.33-.94-5.26-.08q-9.63,8.93-18.59,18.58c-1,1.06-1.31,4.53-.54,5.15,5.43,4.37,10.82,9.35,17.13,11.83,2.47,1,7.27-4,11-6.22,1.16,6.94,1.68,14.09,3.8,20.72.88,2.75,5.17,4.4,7.91,6.55,8.37,2.4,25.52-6.54,28.27-14.79a6.08,6.08,0,0,0,.36-3.21c-1.49-5.33-19.28-15.6-24.66-14.35q2.36-7.78,4.7-15.57c5.2-3.71,11-6.81,15.47-11.24,10.67-10.53,10.13-14.79-1.66-24.85,1.1-2.86,2.21-5.72,3.31-8.59l11.89,17.51,18.85-22.59h-28.82l3.21-8.63c2.93.6,5.88,1.76,8.8,1.71,22.87-.44,45.73-1.11,68.59-1.7q2.54,7.78,5.08,15.59c-10.78-9.73-27.42-11.93-41-5,6.13,7.54,12,15.14,18.36,22.26,1.48,1.65,6.2,3,7.07,2.17,5.61-5.58,10.57-11.83,15.74-17.85q1.49,4.43,3,8.87c-2.46,2.33-5.31,4.38-7.29,7.06-2.61,3.55-7.28,9.91-6.32,11,6.43,7.57,14.06,14.13,21.49,20.81.54.48,2.95-.31,3.85-1.17,4.83-4.65,10.1-9.11,13.6-14.66.64-1-6.17-6.76-9.57-10.29a6.37,6.37,0,0,0-1.45-.88q.66-7.81,1.31-15.63c.58,5.48,11.54,21.16,14.94,19.77,7.35-3,13.68-8.47,22.67-14.41-6.44-5.58-11.89-8.55-14.74-13.13C1377,786.91,1370,785,1361.18,786l.3-17.23c1.42,0,2.86-.06,4.27.1,26.25,3,52.55,5.12,78.89,1.49C1450.67,769.54,1456.5,767.33,1462.42,765.75Zm-171.13,24.09c-7,8.39-12.92,14.86-17.86,22-1.39,2-.93,7.14.72,9.15a134.27,134.27,0,0,0,17.46,17.5c1.81,1.52,6.59,1.5,8.76.15a65.58,65.58,0,0,0,12.88-11c1.59-1.67,3.13-5.81,2.23-7C1308,810.45,1299.94,800.69,1291.29,789.84Zm-24.13,32.67c-8.35,7-14.93,12.49-21.36,18.09-3.59,3.12-4.09,6.61-.55,10.31,15.18,15.85,18.79,16.21,36.13,3.25,1.59-1.18,3.7-2.4,4.26-4,.81-2.37,1.58-6.15.34-7.59C1279.57,835,1272.51,828.09,1267.16,822.51ZM1237.07,970.2c18.48,18.64,43.2,18.24,55.5-.44-8.09-4.69-16.07-9.52-24.27-13.91a7.69,7.69,0,0,0-6.25,0C1253.85,960.25,1245.88,965.08,1237.07,970.2Zm-100.63-162c19,19.8,13.06,21.53,34.31,2.58,1.49-1.33,2.8-2.86,4.26-4.23,5-4.67,4.69-9.15-.07-13.9-6-6-16.09-9-19.91-5.09C1148.72,794.1,1142.87,801.05,1136.44,808.24Zm47.53-3.1c-7.29,7.1-14.61,13.73-21.16,21.05-1.27,1.42-.5,7.23,1,8.11,6.29,3.65,10,15.37,19.14,10.06,21.43-12.39,21.89-22.9,3.23-38.43A9,9,0,0,0,1184,805.14Zm135.29,67.34c-7-6.56-13-12.56-19.5-18.07-1.58-1.36-5.42-2.33-6.72-1.39-7.25,5.23-14,11.1-22,17.53,8.09,6.46,14.75,12.14,21.87,17.19,1.52,1.08,5.24.73,7-.44C1306.17,883,1312,878.11,1319.26,872.48Zm26.28-20c-4.38-4.66-7.46-8.27-10.88-11.53-4.3-4.09-8.43-10-13.47-11.06-3.42-.7-8.27,5.73-12.48,9-1.36,1-2.8,2-4.11,3.06-4.48,3.69-3.87,6.94.56,10.37,4,3.12,7.4,7.24,11.67,9.94,3.22,2,8.41,4.58,11,3.33C1334,862.52,1339.07,857.41,1345.54,852.44Zm-81.69,23.22c-6,4.89-12.14,9.73-18.12,14.71-4.29,3.57-3.16,7,.92,9.69s8.26,5.06,12.36,7.63c5.56,3.48,27-5.69,28.19-12.07a4.57,4.57,0,0,0,0-1.69C1286.33,889.39,1269.71,876.74,1263.85,875.66Zm-117.81-.1c-12.82-18.26-18.12-19.57-34.5-10.22-2.23,1.26-4.34,2.74-6.54,4-4.68,2.77-4.42,6.15-1.25,9.87,11.11,13.08,18.88,13.94,32.45,3.64C1139.59,880.33,1143,877.81,1146,875.56Zm285.15-2.34c-7.86-5.18-14.23-9.87-21.1-13.64a10.21,10.21,0,0,0-8.63.14,68.41,68.41,0,0,0-13.88,11.09c-1.14,1.19-.61,6,.84,7.32a142,142,0,0,0,17.09,12.6c1.45.93,4.71,1,6,0C1417.81,885.53,1423.76,879.9,1431.19,873.22Zm-277.41,42.12-.71,3.59c7.63,3.63,15.85,11,22.74,10,8.75-1.37,16.41-9.62,25.93-15.8-7.06-5.29-12.24-9.58-17.88-13.17a7.91,7.91,0,0,0-6.94-.11C1169,904.68,1161.46,910.11,1153.78,915.34Zm196.27,19.81c-8.83-5.4-17.42-10.71-26.08-15.89a3.75,3.75,0,0,0-3.18-.33c-6.72,4.38-13.33,9-20.37,13.73C1323.23,951.31,1334.32,951.86,1350.05,935.15Zm-26.52,18.67-17.43-10.17c-13.86-8.09-21.25-6.63-32.83,7.22,8.87,5.15,17.52,10.33,26.36,15.15a6.59,6.59,0,0,0,5.48-.31C1310.69,962.44,1316,958.74,1323.53,953.82Zm-92.31-21.94c-8.2-5.09-14.07-9-20.22-12.39a7.62,7.62,0,0,0-6.3-.14c-8.06,4.62-15.85,9.71-23.75,14.64,6.59,9.65,17,14.84,24,11.68C1213.15,942,1221,937.32,1231.22,931.88Zm98.13-17.81c9.21,5.49,17.62,10.6,26.15,15.48a4.59,4.59,0,0,0,4-.42c5.84-4.1,11.51-8.45,17.65-13C1352.13,897.65,1347.32,895.09,1329.35,914.07Zm-120.66,38.47c12.44,14.38,19.15,15.53,34.22,6.74,3.2-1.87,6.31-3.89,9.58-5.61,5.24-2.75,5.08-4.94.27-8.45-9.78-7.13-19.07-10.58-29.63-1.21C1219.2,947.49,1214,949.5,1208.69,952.54Zm194.43-55.94c-8.38-5.91-15.67-11.24-23.19-16.2a6,6,0,0,0-5.34-.19c-5.88,3.79-11.46,8-18,12.71,8.83,6.4,16.45,12.17,24.4,17.44,1.39.93,4.73.5,6.23-.6C1392.43,905.94,1397.23,901.56,1403.12,896.6Zm-26.47-63c-3,2.81-5,4.72-7,6.7-13.09,12.89-12.72,15.51,3.58,25.57.24.15.46.5.68.49,3.08-.13,7.15.88,9-.7,5-4.17,9.07-9.4,13.27-14.42.34-.4-.88-2.73-1.88-3.56C1388.68,843,1382.9,838.54,1376.65,833.59ZM1207.5,986.8c17.35,18,31.24,21.31,48,4.27C1229.42,974.67,1221.28,974,1207.5,986.8Zm-75.92-134c7.19,5.35,12.68,9.79,18.58,13.61,1.76,1.14,5.34,1.53,6.93.49a80.44,80.44,0,0,0,12.41-10.39c1.29-1.28,2.41-4.91,1.71-5.63a180.89,180.89,0,0,0-16.16-14.78c-.91-.73-4,.2-5.39,1.29C1143.92,842,1138.45,846.89,1131.58,852.81Zm42.2,40.77c-16-16.42-32.72-14.47-44.71,6.28,1.9,1.29,4.41,2.74,6.63,4.54,9.7,7.89,11,8,21.54.84C1162.62,901.58,1167.88,897.75,1173.78,893.58Zm100.11,97.89c18,12.85,37.07,10.66,48.89-5.11C1300.31,971.82,1302.55,972.18,1273.89,991.47ZM1419.36,835.3c.31-6.75-16.89-21.21-21.51-20a9.69,9.69,0,0,0-3,1.53c-12.8,8.94-12.91,15.87-.42,25a11.75,11.75,0,0,0,3.61,2.23c3,.77,6.84,2.59,8.82,1.42C1411.83,842.59,1415.93,838.23,1419.36,835.3Zm3.76-45.77c5.54,4.62,10.8,8.89,15.94,13.32,10.74,9.28,11,9.15,22,.26,4.16-3.36,3.8-6.1.08-8.85-4.58-3.38-9.59-6.18-14.18-9.54C1435.47,776.33,1431.39,776.94,1423.12,789.53ZM1215.58,912.72c13.78,16.76,28,17.57,41.8,2.85C1242.71,897.09,1233.65,896.38,1215.58,912.72Zm-128.35-97.55c10.65,14.66,15.31,15.16,27.57,3.68,2.06-1.92,4.55-3.37,6.68-5.22,3.69-3.22,5.44-6.54.55-10.41-2.43-1.93-4.16-5-6.8-6.37-1.93-1-5.68-1.33-7.15-.14C1100.84,802.55,1094.09,809,1087.23,815.17Zm356.32.13c-6.74-5.94-13.57-11.07-19.29-17.24s-9.67-1.44-13.63,1.55c-4.36,3.3-5.48,7.47-1.75,12.48C1422.8,830.76,1429.54,831.68,1443.55,815.3Zm-317.83,31.9c7.73-5.91,14.15-10.63,20.23-15.75.66-.55-.13-3.79-1.1-5.18-10.47-14.93-13.71-15.2-26.41-2.58a10.25,10.25,0,0,0-1.79,1.82c-1.79,3.2-5.73,8.11-4.79,9.38C1115.09,839.29,1120,842.42,1125.72,847.2Zm-18.66-57.4c-7.52-12.33-11.5-13.31-22.48-5.88-3.75,2.54-7.68,4.92-11,8-2.74,2.51-9.92,3.47-4.53,10,6.53,7.91,12.5,9.86,17.73,5.4C1093.44,801.6,1100,795.85,1107.06,789.8Zm121.2,105.38c-5.5-4.57-9.91-7.69-13.64-11.48-5.35-5.43-10-5.78-16.2-.88-13,10.38-13.2,12.83,1.53,21.31,3.34,1.93,8.53,3.59,11.66,2.34C1217.2,904.24,1221.86,899.7,1228.26,895.18Zm103.83-23c10.36,18.06,26.09,18.26,37.26.91C1355.55,855,1351.2,854.8,1332.09,872.19Zm-16.77,41.53c-5.25-4.36-9.6-8.36-14.39-11.75-1.81-1.28-5.31-2.37-6.84-1.48-7.48,4.32-14.55,9.35-22.93,14.9,6.45,4.12,11.22,7.65,16.45,10.29,2.4,1.21,6.33,1.83,8.45.68C1302.46,922.89,1308.32,918.42,1315.32,913.72Zm9-36.89c-6.94,6-13.08,11.23-19,16.68-.44.41.4,2.7,1.12,3.82,7.89,12.37,28.11,11.15,35.09-2.11.48-.92.85-2.75.38-3.17C1336.57,887.19,1331,882.52,1324.37,876.83Zm-165.64-3c6.42,4.79,10.86,8.84,16,11.64,2.58,1.41,7.41,1.95,9.43.46,4.93-3.64,8.83-8.7,13.14-13.18l-10.15-9.59c-1.24-1.18-2.31-3-3.74-3.39-2.48-.6-5.93-1.34-7.66-.13C1170.25,863.43,1165.37,868.13,1158.73,873.8Zm31.88,112c-21-16.63-30.74-16.93-44.87-1.78C1163.89,999.3,1167.2,999.46,1190.61,985.75ZM1075.05,851.12l14.46-10.9c.68-.51,1.58-1,1.93-1.65,1.18-2.34,3.49-5.14,3-7.14-1.77-6.72-13.37-11.94-19.17-8.46s-10.64,8.13-15.91,12.28c4.44,4.87,8.87,9.75,13.34,14.6A11.69,11.69,0,0,0,1075.05,851.12ZM1383.37,984c-14.56-14.33-26.91-13.61-43.07,2.52C1360.94,1000.45,1369.81,999.93,1383.37,984Zm90.27-147.59c-7.16-5.24-12.83-10-19.08-13.75-4.6-2.79-15.48,2.11-18.26,7.87-3.08,6.38,3.17,8.27,6.36,11.28a30.22,30.22,0,0,0,9.26,6c2.25.89,5.78,1,7.7-.2C1464.14,844.87,1468,841.06,1473.64,836.45ZM1351.82,968.64c-13.56-14.34-23.4-13.91-41.1,1.8C1323.41,984.21,1338.35,983.55,1351.82,968.64ZM1119.07,852.93c-11.43-14.71-14.83-15.29-28.31-5.5-1.83,1.33-4.14,2.44-5.21,4.25-1.32,2.27-3,6.58-2.06,7.52,3.49,3.48,9.32,9.19,11.89,8.15C1103.82,864,1111.22,858,1119.07,852.93Zm330.19,2.44c-6.49-5.1-12.53-10.12-18.92-14.64-1.37-1-4.37-.82-6,0-14.86,7.42-15,10.81-1.34,20,.47.31.87.73,1.34,1,12.55,8.46,12.56,8.46,22.72-2.84A36.69,36.69,0,0,0,1449.26,855.37Zm-393.87,44c4.82,5.52,9.08,10.75,13.72,15.63,5.42,5.69,16.7,5,21.14-2s-4.21-8.43-6.8-12.46c-.84-1.31-2.81-1.85-4.13-2.91C1068.15,888.65,1067.7,888.66,1055.39,899.38Zm164.22,71c-18.39-15-27-15.32-40.94-1.4C1193.71,984.21,1206.73,984.66,1219.61,970.37ZM1474.71,899c-13.79-10.83-13.75-10.79-25.19.29-2.23,2.17-4.84,4-7.27,5.92-4.21,3.41-5.33,6.39.34,9.79,11,6.59,13.09,6.54,21.74-3C1467.91,908,1471,903.63,1474.71,899Zm-417-95.78c-5.9,3.31-11.84,6.35-17.35,10-1,.69-1,4.23-.34,6,3.84,9.48,10.66,11.75,19.77,6.72a85.15,85.15,0,0,0,9.22-6.06c4.74-3.47,5.22-7.44.2-10.9C1066,806.83,1062.34,805.52,1057.67,803.23Zm436,11.7c-6.24-3.84-11.67-7.4-17.32-10.56-4.48-2.51-18.71,5.58-18.74,10.55a6,6,0,0,0,1.74,3.58c12.4,13.41,19.17,13.39,31.6,0C1491.72,817.64,1492.33,816.69,1493.68,814.93ZM1246.47,933.77c13.16,14.17,21.76,14,36.94-.37C1271.51,917.51,1258.67,917.48,1246.47,933.77Zm205.83-45.51c0-1.34,0-2.67,0-4-6.06-1.28-12.75-4.78-18-3.28-6,1.71-10.91,7.75-16.06,12.16a5.63,5.63,0,0,0-1.62,4.46c.89,4.87,12.86,9.64,17,6.49C1440.12,899.14,1446.11,893.57,1452.3,888.26Zm-374.53-.12c5.53,4.76,10.64,9.2,15.78,13.61,5.87,5,14.58,4.36,19.06-2.37s-3.22-7.6-6.26-10.54a51.27,51.27,0,0,0-7.29-5.84C1091.36,877.93,1084.79,879.3,1077.77,888.14Zm291.36,79c17.63,12.22,25.64,14.11,36.23-1.29C1391,952.09,1380.24,952.47,1369.13,967.15Zm23.27-18.34c19,14.31,26.63,13,35.22-2.33C1411.74,933.68,1404.53,934.06,1392.4,948.81Zm-218.22,56.82,50.25,4C1207,989.3,1189.72,987.7,1174.18,1005.63Zm-71.5-58.78c11.07,16.38,18.29,15.46,34.9,2.33C1128.56,935.16,1118.21,934.47,1102.68,946.85Zm22,19.25c10.92,14.22,23.19,14.31,34.87.78C1147.93,952.29,1144.57,952.18,1124.63,966.1Zm30.86-15.52c11.49,15.19,26.78,15.61,34.45,1.44C1172.87,938.16,1169.43,938,1155.49,950.58Zm184,3.53c3,1.62,6,3.17,9,4.76,10,5.46,15.39,4.8,23.69-2.85,3.49-3.22,3.89-5.86-.55-8.81C1360,939.53,1348.67,941.66,1339.49,954.11Zm-223.94-26c-3.17-2.29-6.36-4.22-9.1-6.66-6.86-6.11-17.77-4.57-22,3.64-.77,1.49-.24,4.45.81,5.95C1094,943.55,1103.55,943.3,1115.55,928.1Zm48.28,7.49c-15.6-16.89-19.51-18.27-33.2-2.6C1142.17,946.66,1149.32,947.31,1163.83,935.59Zm236.05-3.2c-12.13-14.46-19.89-13.7-32.93,2.84C1376.35,947.63,1385.59,947.38,1399.88,932.39Zm48.95-5.84c-2-1.54-3.46-2.82-5.07-3.89-8.22-5.44-18.69-4.16-25,3.2-3,3.54-3.53,6.72,1.34,9.68C1430.27,941.73,1438.42,939.5,1448.83,926.55Zm-25-14.57c-12-12.93-19.9-11.82-31.09,4.34C1401.7,929.26,1408.75,928.27,1423.78,912ZM1138,916.49c-12-16-22.54-17.13-31.2-3.78C1125.72,928,1128.2,928.38,1138,916.49Zm-102.14-70.32c4.21,4.11,8,7.93,11.9,11.58,8.54,7.91,13.48,6.94,19.47-3.7C1050.6,838.79,1049.09,838.33,1035.86,846.17Zm344.69-61.41c9.38,17.08,18.55,19.63,29,8.6,1.67-1.77,3.75-5.26,3-6.66-1-2-4.41-4-6.75-3.93C1397.51,783,1389.23,784,1380.55,784.76Zm-250.37,19.13L1152,785c-11.32-1-19.73-2-28.17-2.33a7.61,7.61,0,0,0-5.95,3.46c-.7,1.47.71,4.52,2,6.24C1122.66,796,1126,799.24,1130.18,803.89Zm332.54,50.91c10,13,15.71,11,29.63-8.45C1482.44,837.14,1475.56,839,1462.72,854.8Zm-374.57,16.85c-5.84-3.81-10.34-8.93-15.19-9.27-4.38-.32-9.14,4.58-14,7.34C1070.42,883.32,1071.29,883.4,1088.15,871.65Zm382.35.44-.3-3.83c-4.28-2.1-8.37-5.2-12.88-6-5.26-1-13.62,6.82-11.54,10,2.35,3.52,7.43,7.64,11,7.35C1461.51,879.14,1465.93,874.76,1470.5,872.09Zm23.65-33c7.54.13,16.35-11.69,14.37-16.45-.52-1.25-2.35-2.12-3.76-2.79-7.53-3.58-9.58,3.89-13.48,7.16-2.07,1.74-4.67,6.26-3.92,7.29C1489.25,837,1492.89,838.33,1494.15,839.13ZM1373.4,1001c9.21,5.1,26.29-.36,31.87-9.66C1395.32,984.25,1389.79,985.86,1373.4,1001Zm-216.23-.67c-4.7-3.07-9.41-5-12.56-8.44-6.87-7.42-13-5.91-19.73-.33C1132.18,1001.55,1148.64,1006.32,1157.17,1000.33Zm-45.81-37c-6.84-4.75-11.84-9.18-17.66-11.71-1.92-.84-6,3.23-9.43,5.28C1097.45,970.13,1097.45,970.13,1111.36,963.31Zm6.46,24.53c4-2.38,7.63-3.52,9.29-6,.74-1.09-2.17-5.16-4-7.33-1.63-1.86-4.08-3.95-6.3-4.11-3.09-.21-6.43,1-9.4,2.21-.89.38-1.74,3.68-1.17,4.29C1109.77,980.7,1113.75,984.1,1117.82,987.84Zm307.69-12.24c-8.07-9.22-13.57-8-23.76,5.1C1409.33,988.73,1416.37,987.22,1425.51,975.6Zm19.2-19.86c-9.06-6.86-19.53-2.41-22.35,9.51C1432.43,971.26,1435.8,969.83,1444.71,955.74Zm-389-65.08,6.77-6.1L1052.23,874c-2.21,2.15-6.31,4.39-6.23,6.45C1046.18,884.75,1046.37,890.65,1055.69,890.66Zm421.87-17.57c-2.76,5.35-12.81,6.07-7.79,14.4,1.14,1.9,8.2,2.37,10.87.76C1485.89,885.07,1484.66,879.09,1477.56,873.09ZM1461,931.42c-9.29-2.55-11.31,4.92-15.39,8.28-1.59,1.31-2.57,6.35-1.6,7.21,3.22,2.88,7.3,3.47,9.9-1.42C1456.13,941.27,1458.21,937,1461,931.42Zm-386.86-2.06-3.83,2.49c2.9,5.4,5.52,11,8.94,16,.66,1,4.72.25,6.79-.66,1-.44,2-3.94,1.42-4.6C1083.24,938,1078.61,933.73,1074.12,929.36Zm22.17,46.93c-.63,12.72,3.3,16,9.82,13.42Zm324.51,13.2c10,3,12.91.3,13.39-11.82ZM1042,871.67c5.39-5.57,3.25-10.09-7.52-15.45C1037.3,862.05,1039.42,866.4,1042,871.67Zm443.49-1.85,2.82,1.45,6.78-13.41C1488.68,860.06,1484.86,863.67,1485.48,869.82Z" transform="translate(1120.15 -214.77)"/><path class="cls-11" d="M1017.87,825.44l-1.65,0c-9.86-21.67-19.92-43.26-29.34-65.13-1.07-2.49.65-7.06,2.44-9.75,13.54-20.4,27.47-40.53,41.15-60.82,2.51-3.73,4.43-7.85,6.63-11.79l8.46.18c-3.91,5.79-7.67,11.69-11.8,17.32-3.06,4.17-1.85,6.71,2.39,8.56,7.75,3.37,15.52,6.69,23.28,10q-1.67,1.73-3.34,3.43c-6.71-3.05-13.44-6.07-20.13-9.16-6-2.79-10.15-1.08-13.27,4.8-4.77,9-10.05,17.75-14.94,26.7-2,3.59-3.45,7.43-5.67,12.28l27.89,8.16-4.86,13.8c-2.44-1.88-5.67-5.84-7.15-5.26-4.38,1.68-8.38,4.84-11.84,8.13-1.09,1-.84,5,.26,6.52,4.94,7,10.84,4.09,16.56.86C1019.66,797.82,1015.9,811.27,1017.87,825.44Zm-7.57-58.86c-.08-.9-.16-1.79-.23-2.69l-13.2-2.78-1.73,2.1c1.62,2.54,3.23,7.17,4.86,7.17C1003.43,770.4,1006.87,768,1010.3,766.58Z" transform="translate(1120.15 -214.77)"/><path class="cls-11" d="M1525.44,799.44l-6.21-11.78c3.55-3.28,10-6.33,3.89-11.85-3.75-3.39-9.36-4.74-14.13-7l-6.63-10.29,26.9-7.13c-8.79-15.08-16.3-28.68-24.74-41.67-1.22-1.88-7.32-2.08-10.42-1-8,2.86-15.55,6.9-23.28,10.46l-4.77-3.61,32-15c-6.73-10.83-12.54-20.21-18.36-29.58l7.62-1.76c7.74,12.28,15.33,24.65,23.28,36.8,10,15.27,20.52,30.19,30.15,45.68,1.82,2.92,1.71,8.29.38,11.72C1536.4,775.64,1530.75,787.47,1525.44,799.44Zm10.22-39.57-17.51,5.33,12.78,7.52Z" transform="translate(1120.15 -214.77)"/><path class="cls-12" d="M1308,1010.46c.07-1.86-.59-4.77.32-5.39,6.74-4.6,13.57-9.2,20.87-12.77,2.55-1.24,6.83-.33,9.77.89a48.12,48.12,0,0,1,15.5,10.57c-3.69,1.18-7.3,2.85-11.08,3.43-8.81,1.37-17.7,2.22-26.57,3.27Z" transform="translate(1120.15 -214.77)"/><path class="cls-12" d="M1246.16,1010.45l-2.81-3.05c17.26-13.22,24.94-13.28,43.77-.12l-4.63,3.18Z" transform="translate(1120.15 -214.77)"/><path class="cls-13" d="M1230.85,638.69l25.94,3.76.82-3.09a113.61,113.61,0,0,0-34.93-28.86c-21-11.46-42.65-21.79-63.81-33a167,167,0,0,1-57.75-49.84c-24-33.2-46.61-67.34-69.77-101.12a56.93,56.93,0,0,1-3.22-6.09l2.28-1.52c5.33,6.94,10.77,13.8,16,20.83,20.66,27.86,40.13,56.7,62.23,83.38,19.29,23.28,41.94,43.09,71,55,20.21,8.27,39,19.86,59.59,30.54-1.79-3.51-3.49-6.43-4.81-9.5-8.45-19.63-16-39.68-25.42-58.83-11.55-23.5-25.06-46-36.93-69.37-13.42-26.4-26.18-53.13-38.8-79.92-7.88-16.75-15-33.88-22.37-50.85a35.77,35.77,0,0,1-1.33-4.46l2-1.26c1.73,2.38,3.84,4.58,5.14,7.18,18.08,35.93,35.63,72.13,54.18,107.82,12.75,24.51,27.76,47.87,40.08,72.59,10.52,21.12,18.61,43.45,27.85,65.21a13,13,0,0,0,5.77,6.64c-2.06-7-4-14.13-6.19-21.16-8.54-28-9.09-56.53-6.14-85.37,1-9.89,1.49-19.84,1.83-29.78.76-22.51,3.44-45.22,1.33-67.47-2.42-25.57-9.16-50.73-14-76.07-.32-1.67-.55-3.36-.82-5,.57-.58,1.15-1.15,1.72-1.72,11.14,30,20.64,60.38,20.51,92.74-.16,39.51-1.39,79-1.44,118.51,0,13.56,1.74,27.18,3.44,40.67.79,6.19,3.39,12.14,6.28,18.15,10.32-60.32,34.34-116.19,51.88-174,.57,2.29,1.14,4.57,1.72,6.86-4.78,16.38-9.77,32.7-14.3,49.15-10.12,36.74-20,73.53-30,110.32-.34,1.26,0,2.7,1.76,4.66,2.76-6.17,5.49-12.36,8.28-18.52,14.77-32.65,37.31-59.41,65.21-81.18,33-25.72,67.27-49.7,100.84-74.64,11.12-8.26,21.76-17.15,32.63-25.75l2.35,1.91c-4,5.26-7.31,11.44-12.27,15.62-13.91,11.71-28.26,22.94-42.92,33.73-24.75,18.21-51.18,34.38-74.51,54.23-35.29,30-66,64.14-75.56,112-1,5-2.1,10-2.62,15.08-.44,4.15-.09,8.38-.09,15.19,16.52-40.3,49.68-57.16,84.88-70.94,52-20.36,104.24-40.13,156.54-59.72,26.8-10,49.91-26,72.77-42.59,7-5.12,14.35-9.88,21.53-14.81l2.24,2.5c-7.27,7.21-14.22,14.77-21.86,21.57-37.29,33.2-83.45,49.43-128.94,67-41.2,15.88-82.68,31.16-123.26,48.52-20.41,8.73-38.73,22-49.54,42.75-2.85,5.5-5.08,11.31-8.61,19.28,4.33-1.32,6.83-1.48,8.59-2.7,16.2-11.24,35.09-15.06,53.83-18a293.08,293.08,0,0,1,51.84-3.5c28.12.64,56.25,5,84.29,4.27,28.55-.74,57-5.62,85.46-8.88,7.56-.86,15-2.45,23.45-2.3-3.34,2-6.51,4.34-10.06,5.85-19.6,8.35-40.18,12.19-61.42,12.71-24.81.61-49.63,1.83-74.43,1.54-25.32-.3-50.68-3.65-75.92-2.83-27,.89-53.82,5.37-77.57,20.15a49.77,49.77,0,0,0-4.29,3.56c4.71,3.1,8.53,6.43,13,8.42,33.5,15.07,66.78,30.72,100.8,44.53,29,11.78,59.66,20,85.1,39.24,10.43,7.89,22.63,14.29,28.68,26.83l-1.48,2.23c-5-3.08-10.2-5.78-14.81-9.3-26.63-20.29-56.36-34.55-88.06-44.64-30.51-9.71-60.33-20.88-88.32-36.59a23.15,23.15,0,0,0-9-2.89c29.39,33.94,46.88,73,54.84,116.57l-2.36,1.18c-5.2-10.86-11.34-21.38-15.39-32.65-8.35-23.21-17.94-45.68-33.22-65.24-7.7-9.85-16.07-19.19-24.42-28.52-2.09-2.33-5.26-3.71-6.73-4.7-9.21,29.92-19,59-27,88.56s-13.94,59.4-23,89.3c-.27-8-1.54-16.17-.62-24.05,4.32-37.24,15.38-72.8,27.65-108.06,4.11-11.81,7.07-24,10.38-36.09.69-2.49.62-5.19,1.13-9.94-9.17,7.64-16.08,14.33-23.89,19.74-23.21,16.09-49.41,26-76,34.53-47,15.15-88.93,38.09-120.79,76.95-1.43,1.75-3.71,2.8-5.6,4.17l-2.38-1.65c1.61-3.6,2.46-7.88,5-10.7,9.22-10.36,18.25-21.08,28.67-30.15,29.36-25.57,64.56-40.07,101.18-51.9,15.14-4.89,29.69-11.64,44.4-17.82a20.17,20.17,0,0,0,8.84-7.67c-6.54.94-13.21,1.37-19.61,2.91-18.23,4.38-35.63-.84-53-4.51-30.67-6.48-61.36-12.86-92.9-10.88-18.38,1.16-36.66,3.91-55,5.9-3,.33-6,.48-9,.7-.29-.76-.58-1.53-.86-2.29,2.66-1.38,5.17-3.31,8-4,31.42-8.11,63.56-11.37,95.71-8.54,24.49,2.15,48.53,9,73,12.23,27.6,3.68,54.64,1.56,80-15.3-11.95-2.39-23.18-3.38-33.49-7-15.81-5.54-31.57-11.8-46.31-19.69-30.85-16.52-62.85-29.85-97.12-36.69-17.73-3.54-36-4.36-54.12-6-11.17-1-22.4-1.3-34.39-3.69,2-1.08,4-3.06,6-3.09,17.87-.23,36-2.06,53.55.37,24.64,3.43,49.57,7.95,73,16,24.94,8.52,48.1,22.1,72.4,32.64,11.91,5.17,24.63,8.45,37,12.58Z" transform="translate(1120.15 -214.77)"/><path class="cls-14" d="M1211.79,763.59c-15.17,1.95-30.28,4.82-45.51,5.65-23.16,1.26-46.41,1.28-69.62,1.45-6.76,0-13.53-1.22-20.29-1.88l47.88-27.6c1.67.3,3.33.63,5,.89l84.34,13.06Q1212.69,759.38,1211.79,763.59Z" transform="translate(1120.15 -214.77)"/><path class="cls-14" d="M1462.42,765.75c-5.92,1.58-11.75,3.79-17.78,4.62-26.34,3.63-52.64,1.52-78.89-1.49-1.41-.16-2.85-.07-4.27-.1l-1.59-17.2,34-6.89Z" transform="translate(1120.15 -214.77)"/><path class="cls-14" d="M1268.46,746.55c1.73-16.6,3.71-33.18,5.07-49.81.42-5.18-.82-10.49-1.51-18,17.13,18.21,33.39,34.31,42.89,55.73-3,.94-6,1.78-8.88,2.82C1293.82,741.67,1282,747.75,1268.46,746.55Z" transform="translate(1120.15 -214.77)"/><path class="cls-14" d="M1479.71,671c5.82,9.37,11.63,18.75,18.36,29.58l-32,15-32.71-20.83c6.6-3.92,13.29-7.71,19.79-11.79,5-3.15,9.79-6.67,14.67-10Z" transform="translate(1120.15 -214.77)"/><path class="cls-14" d="M1470.82,719.21c7.73-3.56,15.3-7.6,23.28-10.46,3.1-1.11,9.2-.91,10.42,1,8.44,13,16,26.59,24.74,41.67l-26.9,7.13Z" transform="translate(1120.15 -214.77)"/><path class="cls-14" d="M1030,760.26l-27.89-8.16c2.22-4.85,3.71-8.69,5.67-12.28,4.89-9,10.17-17.69,14.94-26.7,3.12-5.88,7.22-7.59,13.27-4.8,6.69,3.09,13.42,6.11,20.13,9.16Q1043,738.87,1030,760.26Z" transform="translate(1120.15 -214.77)"/><path class="cls-14" d="M1175.8,720.68c17.7-9.66,35.49-19.17,53.06-29.08,5.47-3.09,10.35-7.26,15.49-10.93l2.18,1.8q-13.11,26.85-26.21,53.69Z" transform="translate(1120.15 -214.77)"/><path class="cls-14" d="M1059.43,714.05c-7.76-3.33-15.53-6.65-23.28-10-4.24-1.85-5.45-4.39-2.39-8.56,4.13-5.63,7.89-11.53,11.8-17.32q12.86.81,25.71,1.59L1092,691.65Z" transform="translate(1120.15 -214.77)"/><path class="cls-14" d="M1335.47,780.73c-22.86.59-45.72,1.26-68.59,1.7-2.92.05-5.87-1.11-8.8-1.71l7.12-22.27c4.48.58,9,.93,13.44,1.78,17.79,3.38,35.54,6.92,53.31,10.4Q1333.71,775.69,1335.47,780.73Z" transform="translate(1120.15 -214.77)"/><path class="cls-14" d="M1133.05,736.46l34.19-12.39c9.38,3.3,18.82,6.45,28.13,10,7.39,2.79,14.61,6,21.91,9.05l-2,6.88c-25.83-3.45-51.67-6.85-77.48-10.45C1136.12,739.27,1134.63,737.51,1133.05,736.46Z" transform="translate(1120.15 -214.77)"/><path class="cls-11" d="M1332,770.63c-17.77-3.48-35.52-7-53.31-10.4-4.43-.85-9-1.2-13.44-1.78q1.63-5.94,3.26-11.9c13.58,1.2,25.36-4.88,37.57-9.24,2.93-1,5.92-1.88,8.88-2.82,1.07,1.77,2.13,3.54,3.2,5.3L1294,748.44l.54,2.29,27.48-2.56c1.06,2.3,2.13,4.61,3.2,6.91l-25.75,1.56c-.06.69-.11,1.38-.16,2.06l29.56,4.95Z" transform="translate(1120.15 -214.77)"/><path class="cls-15" d="M1378.74,667.54c26.57,5,53.2,9.2,80.36,5.33l-34.48,17.2-82.5-27.54c9.1,2,18.15,4.11,27.3,5.72C1372.39,668.77,1375.63,667.82,1378.74,667.54Z" transform="translate(1120.15 -214.77)"/><path class="cls-14" d="M1361.18,786c8.8-1,15.85.9,21.06,9.27,2.85,4.58,8.3,7.55,14.74,13.13-9,5.94-15.32,11.43-22.67,14.41-3.4,1.39-14.36-14.29-14.94-19.77Q1360.27,794.53,1361.18,786Z" transform="translate(1120.15 -214.77)"/><path class="cls-14" d="M1340.77,797.9c-5.17,6-10.13,12.27-15.74,17.85-.87.86-5.59-.52-7.07-2.17-6.38-7.12-12.23-14.72-18.36-22.26,13.53-6.93,30.17-4.73,41,5A7.52,7.52,0,0,1,1340.77,797.9Z" transform="translate(1120.15 -214.77)"/><path class="cls-12" d="M1358.06,818.68a6.37,6.37,0,0,1,1.45.88c3.4,3.53,10.21,9.26,9.57,10.29-3.5,5.55-8.77,10-13.6,14.66-.9.86-3.31,1.65-3.85,1.17-7.43-6.68-15.06-13.24-21.49-20.81-1-1.13,3.71-7.49,6.32-11,2-2.68,4.83-4.73,7.29-7.06,1.3,6.06,2.24,12.24,4.08,18.13.86,2.73,3.49,4.9,5.32,7.33,1.56-2.54,3.44-4.94,4.56-7.66C1358.42,822.85,1358,820.66,1358.06,818.68Z" transform="translate(1120.15 -214.77)"/><path class="cls-14" d="M1215.45,859.76c-3.74,2.25-8.54,7.2-11,6.22-6.31-2.48-11.7-7.46-17.13-11.83-.77-.62-.45-4.09.54-5.15q9-9.63,18.59-18.58c.93-.86,3.47,0,5.26.08Z" transform="translate(1120.15 -214.77)"/><path class="cls-12" d="M1231.13,854.68c5.38-1.25,23.17,9,24.66,14.35a6.08,6.08,0,0,1-.36,3.21c-2.75,8.25-19.9,17.19-28.27,14.79Q1229.16,870.86,1231.13,854.68Z" transform="translate(1120.15 -214.77)"/><path class="cls-12" d="M1486.54,779.2c-5.08,4.53-10.49,13-15.18,12.66-7.4-.6-14.32-7.17-21.45-11.21l1-3.93,27.08-2.85Z" transform="translate(1120.15 -214.77)"/><path class="cls-16" d="M1133.05,736.46c1.58,1,3.07,2.81,4.77,3,25.81,3.6,51.65,7,77.48,10.45q-.85,2.6-1.7,5.2l-84.34-13.06c-1.68-.26-3.34-.59-5-.89Z" transform="translate(1120.15 -214.77)"/><path class="cls-12" d="M1509,798c-8.5,11.88-13,14.92-30.46-2l14.81-11.81Z" transform="translate(1120.15 -214.77)"/><path class="cls-17" d="M1210,816.82c-5.41-.45-18.71-10.57-20.09-15.28-1.27-4.33,5.88-12.89,11.7-13.75a48.59,48.59,0,0,1,6.83-.06Z" transform="translate(1120.15 -214.77)"/><path class="cls-14" d="M1254.87,789.35h28.82l-18.85,22.59L1253,794.43Z" transform="translate(1120.15 -214.77)"/><path class="cls-17" d="M1249.64,803c11.79,10.06,12.33,14.32,1.66,24.85-4.48,4.43-10.27,7.53-15.47,11.24Z" transform="translate(1120.15 -214.77)"/><path class="cls-17" d="M1359.37,744.94c-2.33-6.71-4.65-13.43-7.67-22.15,14.59,2.63,23.2,10.78,32.06,18.48Z" transform="translate(1120.15 -214.77)"/><path class="cls-11" d="M1217.28,743.08c-7.3-3-14.52-6.26-21.91-9.05-9.31-3.51-18.75-6.66-28.13-10l8.56-3.39,44.52,15.48C1219.31,738.47,1218.29,740.78,1217.28,743.08Z" transform="translate(1120.15 -214.77)"/><path class="cls-18" d="M1208.67,780.9l-44.71-2c-.09-.8-.17-1.6-.25-2.4l46.55-6.06Z" transform="translate(1120.15 -214.77)"/><path class="cls-17" d="M1022.94,784.31c-5.72,3.23-11.62,6.13-16.56-.86-1.1-1.56-1.35-5.49-.26-6.52,3.46-3.29,7.46-6.45,11.84-8.13,1.48-.58,4.71,3.38,7.15,5.26Q1024,779.19,1022.94,784.31Z" transform="translate(1120.15 -214.77)"/><path class="cls-17" d="M1029.77,818.42a76.08,76.08,0,0,1,7,6.15c2.82,3.12,5.25,6.58,7.86,9.91-13.36,9-17.78,7.52-21.41-6.89Q1026.5,823,1029.77,818.42Z" transform="translate(1120.15 -214.77)"/><path class="cls-18" d="M1067.77,775.59l12.71,1.37c-9.6,12.75-20.7,17.17-28.1,12.41Z" transform="translate(1120.15 -214.77)"/><path class="cls-16" d="M1424.62,690.07l34.48-17.2,8.7.09c-4.88,3.35-9.66,6.87-14.67,10-6.5,4.08-13.19,7.87-19.79,11.79Z" transform="translate(1120.15 -214.77)"/><path class="cls-19" d="M1304.66,410.23c-.58-2.29-1.15-4.57-1.72-6.86q4.36-22.25,8.74-44.48C1315.56,377,1309.84,393.56,1304.66,410.23Z" transform="translate(1120.15 -214.77)"/><path class="cls-19" d="M1222.27,307.29c-.57.57-1.15,1.14-1.72,1.72q-8.77-25.58-17.57-51.15l3-1.05Q1214.15,282.05,1222.27,307.29Z" transform="translate(1120.15 -214.77)"/><path class="cls-18" d="M1322,748.17l-27.48,2.56-.54-2.29,24.12-8.65C1319.4,742.58,1320.71,745.37,1322,748.17Z" transform="translate(1120.15 -214.77)"/><path class="cls-20" d="M1359.37,744.94l24.39-3.67,10.16,3.42-34,6.89C1359.72,749.37,1359.54,747.16,1359.37,744.94Z" transform="translate(1120.15 -214.77)"/><path class="cls-21" d="M1328.86,763.65l-29.56-4.95c0-.68.1-1.37.16-2.06l25.75-1.56Q1327,759.37,1328.86,763.65Z" transform="translate(1120.15 -214.77)"/><path class="cls-22" d="M1509,768.81c4.77,2.26,10.38,3.61,14.13,7,6.08,5.52-.34,8.57-3.89,11.85Z" transform="translate(1120.15 -214.77)"/><path class="cls-23" d="M1092,691.65l-20.68-11.91,17.26,1.36,10.26,7.18Z" transform="translate(1120.15 -214.77)"/><path class="cls-24" d="M1098.79,688.28l-10.26-7.18h22.28c.19.86.38,1.72.58,2.58Z" transform="translate(1120.15 -214.77)"/><path class="cls-25" d="M1517.58,806.38l-6.92,8.47c-1-.87-3-2.34-2.84-2.54,1.94-3.2,4.14-6.23,6.29-9.31Z" transform="translate(1120.15 -214.77)"/><path class="cls-14" d="M1291.29,789.84c8.65,10.85,16.71,20.61,24.19,30.79.9,1.22-.64,5.36-2.23,7a65.58,65.58,0,0,1-12.88,11c-2.17,1.35-6.95,1.37-8.76-.15a134.27,134.27,0,0,1-17.46-17.5c-1.65-2-2.11-7.11-.72-9.15C1278.37,804.7,1284.34,798.23,1291.29,789.84Z" transform="translate(1120.15 -214.77)"/><path class="cls-14" d="M1267.16,822.51c5.35,5.58,12.41,12.53,18.82,20,1.24,1.44.47,5.22-.34,7.59-.56,1.64-2.67,2.86-4.26,4-17.34,13-21,12.6-36.13-3.25-3.54-3.7-3-7.19.55-10.31C1252.23,835,1258.81,829.56,1267.16,822.51Z" transform="translate(1120.15 -214.77)"/><path class="cls-14" d="M1237.07,970.2c8.81-5.12,16.78-10,25-14.35a7.69,7.69,0,0,1,6.25,0c8.2,4.39,16.18,9.22,24.27,13.91C1280.27,988.44,1255.55,988.84,1237.07,970.2Z" transform="translate(1120.15 -214.77)"/><path class="cls-14" d="M1136.44,808.24c6.43-7.19,12.28-14.14,18.59-20.64,3.82-3.92,13.87-1,19.91,5.09,4.76,4.75,5.06,9.23.07,13.9-1.46,1.37-2.77,2.9-4.26,4.23C1149.5,829.77,1155.42,828,1136.44,808.24Z" transform="translate(1120.15 -214.77)"/><path class="cls-14" d="M1184,805.14a9,9,0,0,1,2.23.79c18.66,15.53,18.2,26-3.23,38.43-9.16,5.31-12.85-6.41-19.14-10.06-1.52-.88-2.29-6.69-1-8.11C1169.36,818.87,1176.68,812.24,1184,805.14Z" transform="translate(1120.15 -214.77)"/><path class="cls-14" d="M1319.26,872.48c-7.24,5.63-13.09,10.54-19.35,14.82-1.71,1.17-5.43,1.52-7,.44-7.12-5-13.78-10.73-21.87-17.19,7.9-6.43,14.7-12.3,22-17.53,1.3-.94,5.14,0,6.72,1.39C1306.23,859.92,1312.27,865.92,1319.26,872.48Z" transform="translate(1120.15 -214.77)"/><path class="cls-14" d="M1345.54,852.44c-6.47,5-11.58,10.08-17.73,13.07-2.57,1.25-7.76-1.29-11-3.33-4.27-2.7-7.63-6.82-11.67-9.94-4.43-3.43-5-6.68-.56-10.37,1.31-1.09,2.75-2,4.11-3.06,4.21-3.23,9.06-9.66,12.48-9,5,1,9.17,7,13.47,11.06C1338.08,844.17,1341.16,847.78,1345.54,852.44Z" transform="translate(1120.15 -214.77)"/><path class="cls-14" d="M1263.85,875.66c5.86,1.08,22.48,13.73,23.33,18.27a4.57,4.57,0,0,1,0,1.69c-1.17,6.38-22.63,15.55-28.19,12.07-4.1-2.57-8.34-4.94-12.36-7.63s-5.21-6.12-.92-9.69C1251.71,885.39,1257.8,880.55,1263.85,875.66Z" transform="translate(1120.15 -214.77)"/><path class="cls-14" d="M1146,875.56c-3,2.25-6.45,4.77-9.84,7.33-13.57,10.3-21.34,9.44-32.45-3.64-3.17-3.72-3.43-7.1,1.25-9.87,2.2-1.3,4.31-2.78,6.54-4C1127.92,856,1133.22,857.3,1146,875.56Z" transform="translate(1120.15 -214.77)"/><path class="cls-14" d="M1431.19,873.22c-7.43,6.68-13.38,12.31-19.72,17.47-1.25,1-4.51,1-6,0a142,142,0,0,1-17.09-12.6c-1.45-1.28-2-6.13-.84-7.32a68.41,68.41,0,0,1,13.88-11.09,10.21,10.21,0,0,1,8.63-.14C1417,863.35,1423.33,868,1431.19,873.22Z" transform="translate(1120.15 -214.77)"/><path class="cls-14" d="M1153.78,915.34c7.68-5.23,15.24-10.66,23.14-15.53a7.91,7.91,0,0,1,6.94.11c5.64,3.59,10.82,7.88,17.88,13.17-9.52,6.18-17.18,14.43-25.93,15.8-6.89,1.08-15.11-6.33-22.74-10Z" transform="translate(1120.15 -214.77)"/><path class="cls-14" d="M1350.05,935.15c-15.73,16.71-26.82,16.16-49.63-2.49,7-4.78,13.65-9.35,20.37-13.73a3.75,3.75,0,0,1,3.18.33C1332.63,924.44,1341.22,929.75,1350.05,935.15Z" transform="translate(1120.15 -214.77)"/><path class="cls-14" d="M1323.53,953.82c-7.52,4.92-12.84,8.62-18.42,11.89a6.59,6.59,0,0,1-5.48.31c-8.84-4.82-17.49-10-26.36-15.15,11.58-13.85,19-15.31,32.83-7.22Z" transform="translate(1120.15 -214.77)"/><path class="cls-14" d="M1231.22,931.88c-10.27,5.44-18.07,10.08-26.29,13.79-7,3.16-17.39-2-24-11.68,7.9-4.93,15.69-10,23.75-14.64a7.62,7.62,0,0,1,6.3.14C1217.15,922.87,1223,926.79,1231.22,931.88Z" transform="translate(1120.15 -214.77)"/><path class="cls-14" d="M1329.35,914.07c18-19,22.78-16.42,47.81,2-6.14,4.59-11.81,8.94-17.65,13a4.59,4.59,0,0,1-4,.42C1347,924.67,1338.56,919.56,1329.35,914.07Z" transform="translate(1120.15 -214.77)"/><path class="cls-14" d="M1208.69,952.54c5.28-3,10.51-5,14.44-8.53,10.56-9.37,19.85-5.92,29.63,1.21,4.81,3.51,5,5.7-.27,8.45-3.27,1.72-6.38,3.74-9.58,5.61C1227.84,968.07,1221.13,966.92,1208.69,952.54Z" transform="translate(1120.15 -214.77)"/><path class="cls-14" d="M1403.12,896.6c-5.89,5-10.69,9.34-15.9,13.16-1.5,1.1-4.84,1.53-6.23.6-8-5.27-15.57-11-24.4-17.44,6.54-4.68,12.12-8.92,18-12.71a6,6,0,0,1,5.34.19C1387.45,885.36,1394.74,890.69,1403.12,896.6Z" transform="translate(1120.15 -214.77)"/><path class="cls-14" d="M1376.65,833.59c6.25,4.95,12,9.43,17.65,14.08,1,.83,2.22,3.16,1.88,3.56-4.2,5-8.3,10.25-13.27,14.42-1.89,1.58-6,.57-9,.7-.22,0-.44-.34-.68-.49-16.3-10.06-16.67-12.68-3.58-25.57C1371.62,838.31,1373.7,836.4,1376.65,833.59Z" transform="translate(1120.15 -214.77)"/><path class="cls-14" d="M1207.5,986.8c13.78-12.85,21.92-12.13,48,4.27C1238.74,1008.11,1224.85,1004.75,1207.5,986.8Z" transform="translate(1120.15 -214.77)"/><path class="cls-14" d="M1131.58,852.81c6.87-5.92,12.34-10.84,18.08-15.41,1.36-1.09,4.48-2,5.39-1.29a180.89,180.89,0,0,1,16.16,14.78c.7.72-.42,4.35-1.71,5.63a80.44,80.44,0,0,1-12.41,10.39c-1.59,1-5.17.65-6.93-.49C1144.26,862.6,1138.77,858.16,1131.58,852.81Z" transform="translate(1120.15 -214.77)"/><path class="cls-14" d="M1173.78,893.58c-5.9,4.17-11.16,8-16.54,11.66-10.54,7.18-11.84,7-21.54-.84-2.22-1.8-4.73-3.25-6.63-4.54C1141.06,879.11,1157.83,877.16,1173.78,893.58Z" transform="translate(1120.15 -214.77)"/><path class="cls-14" d="M1273.89,991.47c28.66-19.29,26.42-19.65,48.89-5.11C1311,1002.13,1291.86,1004.32,1273.89,991.47Z" transform="translate(1120.15 -214.77)"/><path class="cls-14" d="M1419.36,835.3c-3.43,2.93-7.53,7.29-12.48,10.23-2,1.17-5.87-.65-8.82-1.42a11.75,11.75,0,0,1-3.61-2.23c-12.49-9.17-12.38-16.1.42-25a9.69,9.69,0,0,1,3-1.53C1402.47,814.09,1419.67,828.55,1419.36,835.3Z" transform="translate(1120.15 -214.77)"/><path class="cls-14" d="M1423.12,789.53c8.27-12.59,12.35-13.2,23.84-4.81,4.59,3.36,9.6,6.16,14.18,9.54,3.72,2.75,4.08,5.49-.08,8.85-11,8.89-11.26,9-22-.26C1433.92,798.42,1428.66,794.15,1423.12,789.53Z" transform="translate(1120.15 -214.77)"/><path class="cls-12" d="M1215.58,912.72c18.07-16.34,27.13-15.63,41.8,2.85C1243.54,930.29,1229.36,929.48,1215.58,912.72Z" transform="translate(1120.15 -214.77)"/><path class="cls-14" d="M1087.23,815.17c6.86-6.17,13.61-12.62,20.85-18.46,1.47-1.19,5.22-.9,7.15.14,2.64,1.42,4.37,4.44,6.8,6.37,4.89,3.87,3.14,7.19-.55,10.41-2.13,1.85-4.62,3.3-6.68,5.22C1102.54,830.33,1097.88,829.83,1087.23,815.17Z" transform="translate(1120.15 -214.77)"/><path class="cls-14" d="M1443.55,815.3c-14,16.38-20.75,15.46-34.67-3.21-3.73-5-2.61-9.18,1.75-12.48,4-3,7.78-7.86,13.63-1.55S1436.81,809.36,1443.55,815.3Z" transform="translate(1120.15 -214.77)"/><path class="cls-14" d="M1125.72,847.2c-5.68-4.78-10.63-7.91-13.86-12.31-.94-1.27,3-6.18,4.79-9.38a10.25,10.25,0,0,1,1.79-1.82c12.7-12.62,15.94-12.35,26.41,2.58,1,1.39,1.76,4.63,1.1,5.18C1139.87,836.57,1133.45,841.29,1125.72,847.2Z" transform="translate(1120.15 -214.77)"/><path class="cls-14" d="M1107.06,789.8c-7,6.05-13.62,11.8-20.28,17.47-5.23,4.46-11.2,2.51-17.73-5.4-5.39-6.52,1.79-7.48,4.53-10,3.32-3,7.25-5.42,11-8C1095.56,776.49,1099.54,777.47,1107.06,789.8Z" transform="translate(1120.15 -214.77)"/><path class="cls-14" d="M1228.26,895.18c-6.4,4.52-11.06,9.06-16.65,11.29-3.13,1.25-8.32-.41-11.66-2.34-14.73-8.48-14.56-10.93-1.53-21.31,6.16-4.9,10.85-4.55,16.2.88C1218.35,887.49,1222.76,890.61,1228.26,895.18Z" transform="translate(1120.15 -214.77)"/><path class="cls-14" d="M1332.09,872.19c19.11-17.39,23.46-17.24,37.26.91C1358.18,890.45,1342.45,890.25,1332.09,872.19Z" transform="translate(1120.15 -214.77)"/><path class="cls-12" d="M1315.32,913.72c-7,4.7-12.86,9.17-19.26,12.64-2.12,1.15-6,.53-8.45-.68-5.23-2.64-10-6.17-16.45-10.29,8.38-5.55,15.45-10.58,22.93-14.9,1.53-.89,5,.2,6.84,1.48C1305.72,905.36,1310.07,909.36,1315.32,913.72Z" transform="translate(1120.15 -214.77)"/><path class="cls-12" d="M1324.37,876.83c6.64,5.69,12.2,10.36,17.58,15.22.47.42.1,2.25-.38,3.17-7,13.26-27.2,14.48-35.09,2.11-.72-1.12-1.56-3.41-1.12-3.82C1311.29,888.06,1317.43,882.84,1324.37,876.83Z" transform="translate(1120.15 -214.77)"/><path class="cls-14" d="M1158.73,873.8c6.64-5.67,11.52-10.37,17-14.19,1.73-1.21,5.18-.47,7.66.13,1.43.35,2.5,2.21,3.74,3.39l10.15,9.59c-4.31,4.48-8.21,9.54-13.14,13.18-2,1.49-6.85,1-9.43-.46C1169.59,882.64,1165.15,878.59,1158.73,873.8Z" transform="translate(1120.15 -214.77)"/><path class="cls-14" d="M1190.61,985.75c-23.41,13.71-26.72,13.55-44.87-1.78C1159.87,968.82,1169.62,969.12,1190.61,985.75Z" transform="translate(1120.15 -214.77)"/><path class="cls-14" d="M1075.05,851.12a11.69,11.69,0,0,1-2.38-1.27c-4.47-4.85-8.9-9.73-13.34-14.6,5.27-4.15,10.2-8.85,15.91-12.28s17.4,1.74,19.17,8.46c.52,2-1.79,4.8-3,7.14-.35.7-1.25,1.14-1.93,1.65Z" transform="translate(1120.15 -214.77)"/><path class="cls-12" d="M1383.37,984c-13.56,15.89-22.43,16.41-43.07,2.52C1356.46,970.43,1368.81,969.71,1383.37,984Z" transform="translate(1120.15 -214.77)"/><path class="cls-14" d="M1473.64,836.45c-5.61,4.61-9.5,8.42-14,11.24-1.92,1.2-5.45,1.09-7.7.2a30.22,30.22,0,0,1-9.26-6c-3.19-3-9.44-4.9-6.36-11.28,2.78-5.76,13.66-10.66,18.26-7.87C1460.81,826.48,1466.48,831.21,1473.64,836.45Z" transform="translate(1120.15 -214.77)"/><path class="cls-14" d="M1351.82,968.64c-13.47,14.91-28.41,15.57-41.1,1.8C1328.42,954.73,1338.26,954.3,1351.82,968.64Z" transform="translate(1120.15 -214.77)"/><path class="cls-12" d="M1119.07,852.93c-7.85,5-15.25,11-23.69,14.42-2.57,1-8.4-4.67-11.89-8.15-1-.94.74-5.25,2.06-7.52,1.07-1.81,3.38-2.92,5.21-4.25C1104.24,837.64,1107.64,838.22,1119.07,852.93Z" transform="translate(1120.15 -214.77)"/><path class="cls-14" d="M1449.26,855.37a36.69,36.69,0,0,1-2.22,3.55c-10.16,11.3-10.17,11.3-22.72,2.84-.47-.31-.87-.73-1.34-1-13.69-9.18-13.52-12.57,1.34-20,1.65-.82,4.65-1,6,0C1436.73,845.25,1442.77,850.27,1449.26,855.37Z" transform="translate(1120.15 -214.77)"/><path class="cls-14" d="M1055.39,899.38c12.31-10.72,12.76-10.73,23.93-1.7,1.32,1.06,3.29,1.6,4.13,2.91,2.59,4,11.2,5.55,6.8,12.46s-15.72,7.65-21.14,2C1064.47,910.13,1060.21,904.9,1055.39,899.38Z" transform="translate(1120.15 -214.77)"/><path class="cls-12" d="M1219.61,970.37c-12.88,14.29-25.9,13.84-40.94-1.4C1192.56,955.05,1201.22,955.35,1219.61,970.37Z" transform="translate(1120.15 -214.77)"/><path class="cls-12" d="M1474.71,899c-3.67,4.62-6.8,9-10.38,13-8.65,9.59-10.77,9.64-21.74,3-5.67-3.4-4.55-6.38-.34-9.79,2.43-2,5-3.75,7.27-5.92C1461,888.22,1460.92,888.18,1474.71,899Z" transform="translate(1120.15 -214.77)"/><path class="cls-12" d="M1057.67,803.23c4.67,2.29,8.37,3.6,11.5,5.75,5,3.46,4.54,7.43-.2,10.9a85.15,85.15,0,0,1-9.22,6.06c-9.11,5-15.93,2.76-19.77-6.72-.7-1.74-.69-5.28.34-6C1045.83,809.58,1051.77,806.54,1057.67,803.23Z" transform="translate(1120.15 -214.77)"/><path class="cls-14" d="M1493.68,814.93c-1.35,1.76-2,2.71-2.72,3.53-12.43,13.43-19.2,13.45-31.6,0a6,6,0,0,1-1.74-3.58c0-5,14.26-13.06,18.74-10.55C1482,807.53,1487.44,811.09,1493.68,814.93Z" transform="translate(1120.15 -214.77)"/><path class="cls-14" d="M1246.47,933.77c12.2-16.29,25-16.26,36.94-.37C1268.23,947.77,1259.63,947.94,1246.47,933.77Z" transform="translate(1120.15 -214.77)"/><path class="cls-12" d="M1452.3,888.26c-6.19,5.31-12.18,10.88-18.66,15.82-4.13,3.15-16.1-1.62-17-6.49a5.63,5.63,0,0,1,1.62-4.46c5.15-4.41,10-10.45,16.06-12.16,5.26-1.5,12,2,18,3.28C1452.33,885.59,1452.32,886.92,1452.3,888.26Z" transform="translate(1120.15 -214.77)"/><path class="cls-12" d="M1077.77,888.14c7-8.84,13.59-10.21,21.29-5.14a51.27,51.27,0,0,1,7.29,5.84c3,2.94,10.68,3.89,6.26,10.54s-13.19,7.39-19.06,2.37C1088.41,897.34,1083.3,892.9,1077.77,888.14Z" transform="translate(1120.15 -214.77)"/><path class="cls-12" d="M1369.13,967.15c11.11-14.68,21.88-15.06,36.23-1.29C1394.77,981.26,1386.76,979.37,1369.13,967.15Z" transform="translate(1120.15 -214.77)"/><path class="cls-12" d="M1392.4,948.81c12.13-14.75,19.34-15.13,35.22-2.33C1419,961.85,1411.37,963.12,1392.4,948.81Z" transform="translate(1120.15 -214.77)"/><path class="cls-12" d="M1174.18,1005.63c15.54-17.93,32.81-16.33,50.25,4Z" transform="translate(1120.15 -214.77)"/><path class="cls-12" d="M1102.68,946.85c15.53-12.38,25.88-11.69,34.9,2.33C1121,962.31,1113.75,963.23,1102.68,946.85Z" transform="translate(1120.15 -214.77)"/><path class="cls-12" d="M1124.63,966.1c19.94-13.92,23.3-13.81,34.87.78C1147.82,980.41,1135.55,980.32,1124.63,966.1Z" transform="translate(1120.15 -214.77)"/><path class="cls-14" d="M1155.49,950.58c13.94-12.6,17.38-12.42,34.45,1.44C1182.27,966.19,1167,965.77,1155.49,950.58Z" transform="translate(1120.15 -214.77)"/><path class="cls-14" d="M1339.49,954.11c9.18-12.45,20.51-14.58,32.09-6.9,4.44,2.95,4,5.59.55,8.81-8.3,7.65-13.64,8.31-23.69,2.85C1345.5,957.28,1342.54,955.73,1339.49,954.11Z" transform="translate(1120.15 -214.77)"/><path class="cls-12" d="M1115.55,928.1c-12,15.2-21.53,15.45-30.29,2.93-1-1.5-1.58-4.46-.81-5.95,4.23-8.21,15.14-9.75,22-3.64C1109.19,923.88,1112.38,925.81,1115.55,928.1Z" transform="translate(1120.15 -214.77)"/><path class="cls-12" d="M1163.83,935.59c-14.51,11.72-21.66,11.07-33.2-2.6C1144.32,917.32,1148.23,918.7,1163.83,935.59Z" transform="translate(1120.15 -214.77)"/><path class="cls-12" d="M1399.88,932.39c-14.29,15-23.53,15.24-32.93,2.84C1380,918.69,1387.75,917.93,1399.88,932.39Z" transform="translate(1120.15 -214.77)"/><path class="cls-12" d="M1448.83,926.55c-10.41,13-18.56,15.18-28.74,9-4.87-3-4.38-6.14-1.34-9.68,6.32-7.36,16.79-8.64,25-3.2C1445.37,923.73,1446.83,925,1448.83,926.55Z" transform="translate(1120.15 -214.77)"/><path class="cls-12" d="M1423.78,912c-15,16.29-22.08,17.28-31.09,4.34C1403.88,900.16,1411.82,899.05,1423.78,912Z" transform="translate(1120.15 -214.77)"/><path class="cls-12" d="M1138,916.49c-9.8,11.89-12.28,11.55-31.2-3.78C1115.46,899.36,1126,900.5,1138,916.49Z" transform="translate(1120.15 -214.77)"/><path class="cls-12" d="M1035.86,846.17c13.23-7.84,14.74-7.38,31.37,7.88-6,10.64-10.93,11.61-19.47,3.7C1043.84,854.1,1040.07,850.28,1035.86,846.17Z" transform="translate(1120.15 -214.77)"/><path class="cls-12" d="M1380.55,784.76c8.68-.76,17-1.81,25.26-2,2.34,0,5.75,1.93,6.75,3.93.7,1.4-1.38,4.89-3,6.66C1399.1,804.39,1389.93,801.84,1380.55,784.76Z" transform="translate(1120.15 -214.77)"/><path class="cls-12" d="M1130.18,803.89c-4.23-4.65-7.52-7.86-10.26-11.48-1.31-1.72-2.72-4.77-2-6.24a7.61,7.61,0,0,1,5.95-3.46c8.44.31,16.85,1.32,28.17,2.33Z" transform="translate(1120.15 -214.77)"/><path class="cls-12" d="M1462.72,854.8c12.84-15.77,19.72-17.66,29.63-8.45C1478.43,865.79,1472.7,867.77,1462.72,854.8Z" transform="translate(1120.15 -214.77)"/><path class="cls-12" d="M1088.15,871.65c-16.86,11.75-17.73,11.67-29.2-1.93,4.87-2.76,9.63-7.66,14-7.34C1077.81,862.72,1082.31,867.84,1088.15,871.65Z" transform="translate(1120.15 -214.77)"/><path class="cls-18" d="M1470.5,872.09c-4.57,2.67-9,7-13.75,7.45-3.54.29-8.62-3.83-11-7.35-2.08-3.13,6.28-10.91,11.54-10,4.51.82,8.6,3.92,12.88,6Z" transform="translate(1120.15 -214.77)"/><path class="cls-12" d="M1494.15,839.13c-1.26-.8-4.9-2.16-6.79-4.79-.75-1,1.85-5.55,3.92-7.29,3.9-3.27,6-10.74,13.48-7.16,1.41.67,3.24,1.54,3.76,2.79C1510.5,827.44,1501.69,839.26,1494.15,839.13Z" transform="translate(1120.15 -214.77)"/><path class="cls-18" d="M1373.4,1001c16.39-15.14,21.92-16.75,31.87-9.66C1399.69,1000.64,1382.61,1006.1,1373.4,1001Z" transform="translate(1120.15 -214.77)"/><path class="cls-18" d="M1157.17,1000.33c-8.53,6-25,1.22-32.29-8.77,6.73-5.58,12.86-7.09,19.73.33C1147.76,995.3,1152.47,997.26,1157.17,1000.33Z" transform="translate(1120.15 -214.77)"/><path class="cls-18" d="M1111.36,963.31c-13.91,6.82-13.91,6.82-27.09-6.43,3.45-2,7.51-6.12,9.43-5.28C1099.52,954.13,1104.52,958.56,1111.36,963.31Z" transform="translate(1120.15 -214.77)"/><path class="cls-26" d="M1117.82,987.84c-4.07-3.74-8-7.14-11.63-10.93-.57-.61.28-3.91,1.17-4.29,3-1.23,6.31-2.42,9.4-2.21,2.22.16,4.67,2.25,6.3,4.11,1.88,2.17,4.79,6.24,4,7.33C1125.45,984.32,1121.82,985.46,1117.82,987.84Z" transform="translate(1120.15 -214.77)"/><path class="cls-18" d="M1425.51,975.6c-9.14,11.62-16.18,13.13-23.76,5.1C1411.94,967.56,1417.44,966.38,1425.51,975.6Z" transform="translate(1120.15 -214.77)"/><path class="cls-18" d="M1444.71,955.74c-8.91,14.09-12.28,15.52-22.35,9.51C1425.18,953.33,1435.65,948.88,1444.71,955.74Z" transform="translate(1120.15 -214.77)"/><path class="cls-18" d="M1055.69,890.66c-9.32,0-9.51-5.91-9.69-10.2-.08-2.06,4-4.3,6.23-6.45l10.23,10.55Z" transform="translate(1120.15 -214.77)"/><path class="cls-12" d="M1477.56,873.09c7.1,6,8.33,12,3.08,15.16-2.67,1.61-9.73,1.14-10.87-.76C1464.75,879.16,1474.8,878.44,1477.56,873.09Z" transform="translate(1120.15 -214.77)"/><path class="cls-18" d="M1461,931.42c-2.77,5.53-4.85,9.85-7.09,14.07-2.6,4.89-6.68,4.3-9.9,1.42-1-.86,0-5.9,1.6-7.21C1449.67,936.34,1451.69,928.87,1461,931.42Z" transform="translate(1120.15 -214.77)"/><path class="cls-18" d="M1074.12,929.36c4.49,4.37,9.12,8.63,13.32,13.26.6.66-.4,4.16-1.42,4.6-2.07.91-6.13,1.62-6.79.66-3.42-5-6-10.63-8.94-16Z" transform="translate(1120.15 -214.77)"/><path class="cls-25" d="M1096.29,976.29l9.82,13.42C1099.59,992.31,1095.66,989,1096.29,976.29Z" transform="translate(1120.15 -214.77)"/><path class="cls-27" d="M1420.8,989.49l13.39-11.82C1433.71,989.79,1430.78,992.52,1420.8,989.49Z" transform="translate(1120.15 -214.77)"/><path class="cls-28" d="M1042,871.67c-2.57-5.27-4.69-9.62-7.52-15.45C1045.24,861.58,1047.38,866.1,1042,871.67Z" transform="translate(1120.15 -214.77)"/><path class="cls-29" d="M1485.48,869.82c-.62-6.15,3.2-9.76,9.6-12l-6.78,13.41Z" transform="translate(1120.15 -214.77)"/><path class="cls-28" d="M1010.3,766.58c-3.43,1.41-6.87,3.82-10.3,3.8-1.63,0-3.24-4.63-4.86-7.17l1.73-2.1,13.2,2.78C1010.14,764.79,1010.22,765.68,1010.3,766.58Z" transform="translate(1120.15 -214.77)"/><path class="cls-28" d="M1535.66,759.87l-4.73,12.85-12.78-7.52Z" transform="translate(1120.15 -214.77)"/><path class="cls-30" d="M306.27,349.09v-6.28c.05-2.35.05-4.7.15-7,.3-6.86,4.95-11.49,11.77-11.77.79,0,1.57,0,2.36,0H471.86c.78,0,1.57,0,2.35,0a11.68,11.68,0,0,1,11.58,11.59c0,1,0,2,0,3V1017c0,1.12,0,2.24,0,3.36a11.31,11.31,0,0,1-9.79,10.74,31.92,31.92,0,0,1-4.69.27H321a20,20,0,0,1-2.68,0,20.32,20.32,0,0,1-4.58-.91c-4.64-1.85-6.88-5.53-7.28-10.39-.11-1.33,0-2.68,0-4q0-329.61,0-659.23c0-1.57-.08-3.13-.12-4.7Zm24.5,398.12c.57.08,1.19.22,1.83.26s1.56,0,2.35,0h122.4c1.32,0,2.64-.06,3.73-.09.29-.32.38-.4.44-.49a.71.71,0,0,0,.1-.31q0-193.7.08-387.41a14.88,14.88,0,0,0-.16-1.48c-.67-.1-1.3-.23-1.93-.27-.78-.05-1.57,0-2.35,0H334.86c-1.33,0-2.65,0-4.15.07C330.35,361.64,330.42,744.34,330.77,747.21ZM458.83,914.73A62.59,62.59,0,0,0,396.66,853c-33-.36-63.14,25.49-63.15,63.15,0,33.53,26.9,61.59,62.49,62.18C431.34,978,459.11,949.9,458.83,914.73Z" transform="translate(1120.15 -214.77)"/><path class="cls-31" d="M305.66,352.14c-.93,5.06-1.87,10.12-2.77,15.19q-2.85,16-5.66,32.07-3.21,18.18-6.43,36.35L285,468.48q-2.81,15.87-5.6,31.73-2.93,16.53-5.84,33.06-2.85,16.2-5.68,32.4-2.5,14.22-5,28.43-2.49,14-5,28.09-2.92,16.53-5.83,33.06-2.81,15.87-5.6,31.74c-1.9,10.8-3.77,21.6-5.68,32.4-2.12,12-4.28,24-6.4,36s-4.23,24.25-6.37,36.38-4.34,24.45-6.5,36.69l-5.64,32.06q-2.56,14.55-5.14,29.09l-5,28.43q-2.84,16-5.66,32.06-2.57,14.55-5.14,29.09-2.85,16.2-5.69,32.4c-.62,3.53-1.18,7.07-1.94,10.57a11.08,11.08,0,0,1-12.95,8.92c-4.87-.73-9.71-1.61-14.57-2.46-8.26-1.45-16.52-2.94-24.79-4.39s-16.54-2.88-24.81-4.34-16.53-2.94-24.79-4.39-16.54-2.88-24.81-4.33l-29.1-5.13c-3.75-.67-7.5-1.29-11.24-2a11.29,11.29,0,0,1-9.44-11,25.25,25.25,0,0,1,.49-4.66c2.11-12,4.28-24,6.4-36s4.22-24.25,6.36-36.37,4.32-24.24,6.46-36.36,4.2-24,6.31-36q3.25-18.51,6.55-37,2.86-16.2,5.75-32.39,2.81-15.87,5.6-31.73c1.9-10.8,3.77-21.61,5.68-32.41,2.12-12,4.28-24,6.4-36S71,649.72,73.12,637.6C75,626.8,77,616,78.88,605.21s3.77-21.61,5.68-32.4c2.12-12,4.28-24,6.4-36s4.23-24.25,6.37-36.37,4.29-24,6.41-36S108,440.14,110.1,428s4.34-24.45,6.5-36.69q2.84-16,5.64-32.06,2.91-16.53,5.84-33.06c.61-3.41,1.11-6.86,1.94-10.22a11.09,11.09,0,0,1,12.7-8.42c2.44.37,4.86.8,7.29,1.23q14.22,2.49,28.44,5l24.8,4.35,25.13,4.42,24.8,4.39,24.47,4.3c6.39,1.13,12.79,2.24,19.18,3.39a11.39,11.39,0,0,1,8.53,6.38c.3.6.61,1.19.91,1.78v6.28A4.2,4.2,0,0,0,305.66,352.14Zm-27,14.65a7.72,7.72,0,0,0,0-1.27c-3-1-125-22.39-128.72-22.75a6,6,0,0,0-1,3.08q-4.68,26.43-9.34,52.87-4.53,25.78-9,51.57c-2.56,14.54-5.2,29.07-7.76,43.61s-5.11,29.31-7.7,44-5.19,29.08-7.76,43.62c-2.35,13.33-4.65,26.67-7,40-1.9,10.8-3.87,21.59-5.77,32.38-2.14,12.12-4.22,24.25-6.35,36.37q-2.84,16-5.71,32c-.23,1.32-.4,2.64-.62,4.18a11.13,11.13,0,0,0,1.79.66q14.7,2.63,29.42,5.2c9.59,1.68,19.18,3.31,28.77,5s18.94,3.4,28.42,5.07,19.18,3.33,28.77,5c3.2.56,6.38,1.19,9.58,1.74a21.93,21.93,0,0,0,2.45.14Q244.92,557.87,278.63,366.79ZM117,966.2c36.93.16,63-29.81,62.87-63-.08-30.76-24.26-62.12-62.63-62.2-37.36-.06-62.92,30.3-62.69,62.76C54.45,935.63,79.89,966.05,117,966.2Z" transform="translate(1120.15 -214.77)"/><path class="cls-32" d="M503.11,339.37c0-1.57,0-3.14.07-4.71a10.68,10.68,0,0,1,4.05-7.81c2.63-2.26,5.79-2.76,9.11-2.76q76.17,0,152.33,0a38.46,38.46,0,0,1,4,.32c5.36.6,9.62,5.87,9.58,10.92,0,1,0,2,0,3v678.76c0,1,0,2,0,3a11.29,11.29,0,0,1-8.8,10.9,23.76,23.76,0,0,1-5,.44q-75.83,0-151.66,0c-.89,0-1.79,0-2.69,0-7.2-.56-11.12-6.07-11-11.34,0-1.35,0-2.69,0-4V677.73Q503.1,508.56,503.11,339.37Zm25.7,408.4c.89.07,1.79,0,2.69,0q61.18,0,122.38,0c1.32,0,2.68.26,4-.34a3.61,3.61,0,0,0,.31-1q0-193.85,0-387.71a4.34,4.34,0,0,0-.36-1.08c-.52-.06-1-.16-1.59-.17-10.72-.35-125.79-.13-128.92.26a16.79,16.79,0,0,0-.31,1.84c-.05.89,0,1.79,0,2.69q0,190.32,0,380.65a13,13,0,0,0,.3,4.44A9.37,9.37,0,0,0,528.81,747.77Zm63.36,230.54c35.71.38,63.1-28.47,63.2-62.76.09-32-25.6-62.13-62.15-62.47a62.33,62.33,0,0,0-63.12,62.77C529.66,947.44,555.17,977.92,592.17,978.31Z" transform="translate(1120.15 -214.77)"/><path class="cls-33" d="M699.62,339.46c0-1.45.06-2.91,0-4.36-.11-5,4.71-10.59,10.51-10.71,1,0,2-.05,3-.05h152c1.12,0,2.24.05,3.36.07,4.47.09,9.85,4.34,10.18,10.32.08,1.34,0,2.69,0,4q0,339.21,0,678.41c0,1.12,0,2.24,0,3.36a11,11,0,0,1-8.38,10.5,19.78,19.78,0,0,1-5,.5q-76.17,0-152.33,0c-.9,0-1.8,0-2.69,0a11.41,11.41,0,0,1-10.7-11c-.06-1.45,0-2.91,0-4.37V339.46Zm153.17,18.07H723.89a14.67,14.67,0,0,0-.43,2c-.07.89,0,1.79,0,2.69q0,190.35,0,380.68c0,1.44,0,2.89,0,4.44a14.52,14.52,0,0,0,2.07.48c.89.08,1.79,0,2.69,0H850.3c1.33,0,2.67,0,4.12-.05a14.67,14.67,0,0,0,.51-2c.08-.88,0-1.79,0-2.68q0-190.35,0-380.68c0-1.53.38-3.14-.52-4.68A12.58,12.58,0,0,0,852.79,357.53Zm-63.7,495.61c-35.58,0-62.43,28.85-62.54,62.76a62.63,62.63,0,0,0,125.26-.28C852.3,884,826.52,853.16,789.09,853.14Z" transform="translate(1120.15 -214.77)"/><path class="cls-34" d="M306.27,349.09a4.2,4.2,0,0,0-.61,3.05,4.3,4.3,0,0,0,.62,0Z" transform="translate(1120.15 -214.77)"/><path class="cls-35" d="M334.86,357.43h122.4c.78,0,1.57,0,2.35,0,.63,0,1.26.17,1.93.27a14.88,14.88,0,0,1,.16,1.48q0,193.71-.08,387.41a.71.71,0,0,1-.1.31c-.06.09-.15.17-.44.49-1.09,0-2.41.09-3.73.09H335c-.79,0-1.57,0-2.35,0s-1.26-.18-1.83-.26c-.35-2.87-.42-385.57-.06-389.71C332.21,357.47,333.53,357.43,334.86,357.43Zm4.47,127.7a15.32,15.32,0,0,0,1.93.5,17,17,0,0,0,2,0q52.74,0,105.48,0c1.31,0,2.69.32,4-.56a12.12,12.12,0,0,0,.06-4.76l-.4-.31a.72.72,0,0,0-.31-.11l-109.5-.09c-.78,0-1.57,0-2.35.07a4.58,4.58,0,0,0-.92.37Zm.12,139.77c.71.09,1.35.19,2,.24s1.12,0,1.68,0H448.92c1.21,0,2.42-.07,3.73-.12a11.84,11.84,0,0,0,.11-5.23c-.71-.09-1.35-.2-2-.24s-1.57,0-2.36,0H343.61c-1.32,0-2.64.06-4.2.09A15.93,15.93,0,0,0,339.45,624.9Z" transform="translate(1120.15 -214.77)"/><path class="cls-35" d="M333.51,916.11c0-37.66,30.2-63.51,63.15-63.15a62.59,62.59,0,0,1,62.17,61.77c.28,35.17-27.49,63.27-62.83,63.56C360.41,977.7,333.5,949.64,333.51,916.11Zm62.14,50.67a51.12,51.12,0,1,0-50.71-51.19A50.91,50.91,0,0,0,395.65,966.78Z" transform="translate(1120.15 -214.77)"/><path class="cls-35" d="M208.67,749.11c-3.2-.55-6.38-1.18-9.58-1.74q-14.39-2.5-28.77-5c-9.48-1.67-18.94-3.4-28.42-5.07s-19.18-3.32-28.77-5q-14.72-2.58-29.42-5.2a11.13,11.13,0,0,1-1.79-.66c.22-1.54.39-2.86.62-4.18q2.85-16,5.71-32c2.13-12.12,4.21-24.25,6.35-36.37,1.9-10.79,3.87-21.58,5.77-32.38,2.35-13.32,4.65-26.66,7-40,2.57-14.54,5.2-29.07,7.76-43.62s5.11-29.31,7.7-44,5.2-29.07,7.76-43.61q4.54-25.79,9-51.57,4.63-26.45,9.34-52.87a6,6,0,0,1,1-3.08c3.7.36,125.75,21.72,128.72,22.75a7.72,7.72,0,0,1,0,1.27Q244.9,557.94,211.12,749.25A21.93,21.93,0,0,1,208.67,749.11Zm40.27-264.33a5.17,5.17,0,0,0-1.4-.75c-9.48-1.67-19-3.28-28.44-4.95-8-1.41-16.07-2.89-24.11-4.32-6.94-1.24-13.88-2.43-20.82-3.66-8.37-1.48-16.74-3-25.11-4.46-3.95-.7-7.9-1.33-12-2-.32,1.48-.63,2.77-.87,4.07a5.93,5.93,0,0,0,.08,1.41c1.14.28,2.2.6,3.28.79,36,6.33,72,12.63,108.43,19C248.33,488,248.62,486.47,248.94,484.78Zm-137,122.54.3.38a.64.64,0,0,0,.27.2l110.84,19.6a10,10,0,0,0,.76-1.79c.21-1.09.28-2.2.43-3.5a7.4,7.4,0,0,0-1.45-.57c-7.59-1.36-15.19-2.69-22.79-4-8.37-1.49-16.73-3-25.1-4.49-9.59-1.68-19.18-3.3-28.76-5-6.84-1.19-13.66-2.44-20.49-3.65-4.28-.76-8.57-1.5-13-2.28A10.87,10.87,0,0,0,111.93,607.32Z" transform="translate(1120.15 -214.77)"/><path class="cls-35" d="M117.28,841c38.37.08,62.55,31.44,62.63,62.2.09,33.15-25.94,63.12-62.87,63-37.15-.15-62.59-30.57-62.45-62.4C54.36,871.34,79.92,841,117.28,841ZM66,903.51c-.14,26.36,20.9,51.27,51.23,51.29,29.65,0,51-23.88,51.17-51A51.2,51.2,0,0,0,66,903.51Z" transform="translate(1120.15 -214.77)"/><path class="cls-35" d="M527,742.94q0-190.32,0-380.65c0-.9,0-1.8,0-2.69a16.79,16.79,0,0,1,.31-1.84c3.13-.39,118.2-.61,128.92-.26.54,0,1.07.11,1.59.17a4.34,4.34,0,0,1,.36,1.08q0,193.86,0,387.71a3.61,3.61,0,0,1-.31,1c-1.28.6-2.64.34-4,.34q-61.18,0-122.38,0c-.9,0-1.8,0-2.69,0a9.37,9.37,0,0,1-1.56-.39A13,13,0,0,1,527,742.94Zm8.86-257.78a13.61,13.61,0,0,0,2,.47c.89.07,1.79,0,2.68,0H645c1.33,0,2.65-.06,4.06-.09a10.16,10.16,0,0,0,.24-5.27c-.33-.18-.52-.38-.71-.38q-55.62-.06-111.23-.09a10.1,10.1,0,0,0-1.53.25ZM649.29,619.94a15.08,15.08,0,0,0-1.87-.37c-.9-.06-1.79,0-2.69,0H536.28c-1.09,1.73-.32,3.4-.65,5.16a18.43,18.43,0,0,0,2.1.42c.78.07,1.57,0,2.35,0h109A12.84,12.84,0,0,0,649.29,619.94Z" transform="translate(1120.15 -214.77)"/><path class="cls-35" d="M593.22,853.08c36.55.34,62.24,30.42,62.15,62.47-.1,34.29-27.49,63.14-63.2,62.76-37-.39-62.51-30.87-62.07-62.46A62.33,62.33,0,0,1,593.22,853.08Zm-.66,113.69a51.11,51.11,0,1,0-51-50.79A51,51,0,0,0,592.56,966.77Z" transform="translate(1120.15 -214.77)"/><path class="cls-35" d="M854.93,362.41q0,190.33,0,380.68c0,.89.06,1.8,0,2.68a14.67,14.67,0,0,1-.51,2c-1.45,0-2.79.05-4.12.05H728.24c-.9,0-1.8,0-2.69,0a14.52,14.52,0,0,1-2.07-.48c0-1.55,0-3,0-4.44q0-190.33,0-380.68c0-.9,0-1.8,0-2.69a14.67,14.67,0,0,1,.43-2h128.9a12.58,12.58,0,0,1,1.62.2C855.31,359.27,854.93,360.88,854.93,362.41Zm-8.87,118a3.3,3.3,0,0,0-.44-.46.59.59,0,0,0-.32-.09L734,479.81a14.26,14.26,0,0,0-1.43.15,9,9,0,0,0-.17,5.26,6.55,6.55,0,0,0,1.32.38c.89.07,1.79,0,2.69,0q52.79,0,105.57,0c1.31,0,2.68.29,4-.49A11.9,11.9,0,0,0,846.06,480.45ZM732.33,624.77a17.24,17.24,0,0,0,1.91.36c.78.07,1.57,0,2.35,0H841.8a10.1,10.1,0,0,0,4.09-.33,10.72,10.72,0,0,0,.11-5c-.75-.09-1.39-.2-2-.23s-1.57,0-2.35,0H732.46A14.43,14.43,0,0,0,732.33,624.77Z" transform="translate(1120.15 -214.77)"/><path class="cls-35" d="M788.35,978.36a62.54,62.54,0,0,1-61.8-62.46c.11-33.91,27-62.79,62.54-62.76,37.43,0,63.21,30.83,62.72,62.48A62.33,62.33,0,0,1,788.35,978.36Zm.92-11.58c29.81,0,51.24-24.47,51.14-51.42-.1-26.11-21.08-50.71-51.1-50.81a51.12,51.12,0,1,0,0,102.23Z" transform="translate(1120.15 -214.77)"/><path class="cls-36" d="M339.33,480.25v4.88a15.32,15.32,0,0,0,1.93.5,17,17,0,0,0,2,0q52.74,0,105.48,0c1.31,0,2.69.32,4-.56a12.12,12.12,0,0,0,.06-4.76l-.4-.31a.72.72,0,0,0-.31-.11l-109.5-.09c-.78,0-1.57,0-2.35.07A4.58,4.58,0,0,0,339.33,480.25Z" transform="translate(1120.15 -214.77)"/><path class="cls-37" d="M339.41,619.64a15.93,15.93,0,0,0,0,5.26c.71.09,1.35.19,2,.24s1.12,0,1.68,0H448.92c1.21,0,2.42-.07,3.73-.12a11.84,11.84,0,0,0,.11-5.23c-.71-.09-1.35-.2-2-.24s-1.57,0-2.36,0H343.61C342.29,619.55,341,619.61,339.41,619.64Z" transform="translate(1120.15 -214.77)"/><path class="cls-38" d="M344.94,915.59a51.19,51.19,0,1,0,51.87-51A51.06,51.06,0,0,0,344.94,915.59Z" transform="translate(1120.15 -214.77)"/><path class="cls-37" d="M248,489.91c.37-1.93.66-3.44,1-5.13a5.17,5.17,0,0,0-1.4-.75c-9.48-1.67-19-3.28-28.44-4.95-8-1.41-16.07-2.89-24.11-4.32-6.94-1.24-13.88-2.43-20.82-3.66-8.37-1.48-16.74-3-25.11-4.46-3.95-.7-7.9-1.33-12-2-.32,1.48-.63,2.77-.87,4.07a5.93,5.93,0,0,0,.08,1.41c1.14.28,2.2.6,3.28.79C175.54,477.22,211.55,483.52,248,489.91Z" transform="translate(1120.15 -214.77)"/><path class="cls-37" d="M112.9,602.21a10.87,10.87,0,0,0-1,5.11l.3.38a.64.64,0,0,0,.27.2l110.84,19.6a10,10,0,0,0,.76-1.79c.21-1.09.28-2.2.43-3.5a7.4,7.4,0,0,0-1.45-.57c-7.59-1.36-15.19-2.69-22.79-4-8.37-1.49-16.73-3-25.1-4.49-9.59-1.68-19.18-3.3-28.76-5-6.84-1.19-13.66-2.44-20.49-3.65C121.66,603.73,117.37,603,112.9,602.21Z" transform="translate(1120.15 -214.77)"/><path class="cls-38" d="M117.2,852.55a51.16,51.16,0,0,0-51.17,51c-.14,26.36,20.9,51.27,51.23,51.29,29.65,0,51-23.88,51.17-51A51.2,51.2,0,0,0,117.2,852.55Z" transform="translate(1120.15 -214.77)"/><path class="cls-36" d="M535.81,480.07v5.09a13.61,13.61,0,0,0,2,.47c.89.07,1.79,0,2.68,0H645c1.33,0,2.65-.06,4.06-.09a10.16,10.16,0,0,0,.24-5.27c-.33-.18-.52-.38-.71-.38q-55.62-.06-111.23-.09A10.1,10.1,0,0,0,535.81,480.07Z" transform="translate(1120.15 -214.77)"/><path class="cls-37" d="M649.13,625.15a12.84,12.84,0,0,0,.16-5.21,15.08,15.08,0,0,0-1.87-.37c-.9-.06-1.79,0-2.69,0H536.28c-1.09,1.73-.32,3.4-.65,5.16a18.43,18.43,0,0,0,2.1.42c.78.07,1.57,0,2.35,0h109Z" transform="translate(1120.15 -214.77)"/><path class="cls-38" d="M541.53,916a51.17,51.17,0,1,0,51.08-51.43A50.89,50.89,0,0,0,541.53,916Z" transform="translate(1120.15 -214.77)"/><path class="cls-36" d="M846,485.15a11.9,11.9,0,0,0,.1-4.7,3.3,3.3,0,0,0-.44-.46.59.59,0,0,0-.32-.09L734,479.81a14.26,14.26,0,0,0-1.43.15,9,9,0,0,0-.17,5.26,6.55,6.55,0,0,0,1.32.38c.89.07,1.79,0,2.69,0q52.79,0,105.57,0C843.31,485.64,844.68,485.93,846,485.15Z" transform="translate(1120.15 -214.77)"/><path class="cls-37" d="M732.46,619.55a14.43,14.43,0,0,0-.13,5.22,17.24,17.24,0,0,0,1.91.36c.78.07,1.57,0,2.35,0H841.8a10.1,10.1,0,0,0,4.09-.33,10.72,10.72,0,0,0,.11-5c-.75-.09-1.39-.2-2-.23s-1.57,0-2.35,0H732.46Z" transform="translate(1120.15 -214.77)"/><path class="cls-38" d="M738,915.82a51,51,0,0,0,51.24,51c29.81,0,51.24-24.47,51.14-51.42-.1-26.11-21.08-50.71-51.1-50.81A51,51,0,0,0,738,915.82Z" transform="translate(1120.15 -214.77)"/><rect class="cls-39" x="348.32" y="694.31" width="669.96" height="117.59"/><rect class="cls-40" x="378.63" y="543.36" width="610.94" height="154.13"/><path class="cls-41" d="M-660.91,912.37V758.54" transform="translate(1120.15 -214.77)"/><path class="cls-41" d="M-632.54,912.37V758.54" transform="translate(1120.15 -214.77)"/><path class="cls-41" d="M-232.09,912.52V758.7" transform="translate(1120.15 -214.77)"/><path class="cls-41" d="M-203.72,912.52V758.7" transform="translate(1120.15 -214.77)"/><path class="cls-42" d="M-702.12,1026.55v-114" transform="translate(1120.15 -214.77)"/><path class="cls-43" d="M-668.11,1026.55v-114" transform="translate(1120.15 -214.77)"/><path class="cls-44" d="M-188.12,1026.67v-114" transform="translate(1120.15 -214.77)"/><path class="cls-45" d="M-154.12,1026.67v-114" transform="translate(1120.15 -214.77)"/><path class="cls-46" d="M-560.37,658.48c0-.71.09-1.42.08-2.14q0-7.11-.07-14.21a128.76,128.76,0,0,1,3.87-24.91l2.44,0h117.73c.81,0,1.62,0,2.43.06,0,.45,0,.9,0,1.35V754.5c0,.45,0,.91,0,1.35s.17,1,.26,1.52a9.47,9.47,0,0,0,3.35.25h67.46c1.08,0,2.16,0,3.25,0a3.53,3.53,0,0,1-.94.42c-.81.06-1.63,0-2.44,0l-142,0a12.16,12.16,0,0,0-1.35,0,3.75,3.75,0,0,1-2.71-1,130.06,130.06,0,0,1-31.81-35.49,133.78,133.78,0,0,1-15.91-38.33,117.57,117.57,0,0,1-3.12-18.64C-560,662.61-560.2,660.55-560.37,658.48Z" transform="translate(1120.15 -214.77)"/><path class="cls-47" d="M-359.57,757.67c-1.09,0-2.17,0-3.25,0h-67.46a9.47,9.47,0,0,1-3.35-.25c-.09-.5-.21-1-.26-1.52s0-.9,0-1.35V618.6c0-.45,0-.9,0-1.35,1,0,2-.09,3-.09h116.47a13,13,0,0,1,2.16,0,5.55,5.55,0,0,1,1.43.65c.65,3.36,1.42,6.71,1.92,10.09.61,4,1.1,8,1.44,12.08.3,3.68.46,7.39.47,11.09a133.89,133.89,0,0,1-3.28,29.52,133.69,133.69,0,0,1-21.6,48.67,128.32,128.32,0,0,1-25.46,26.83C-358.06,756.68-358.83,757.16-359.57,757.67Z" transform="translate(1120.15 -214.77)"/><path class="cls-48" d="M-436.06,359.84c.29-.15.73-.51.85-.42a14.45,14.45,0,0,1,1.61,1.43A105.54,105.54,0,0,1-415.48,385a160.23,160.23,0,0,1,15.19,38.9,205,205,0,0,1,5,27.91,10.77,10.77,0,0,1-.8,1.08c-4,4.39-7.91,8.89-11.52,13.62a178.62,178.62,0,0,0-15.12,23.37A178.91,178.91,0,0,0-431.31,508,190.4,190.4,0,0,0-439,530.74c-1.22,4.62-2.18,9.29-3,14-.57,3.45-.83,7-1.24,10.44-.12,1-.3,2-.45,2.93h-14.74c-.14-.33-.31-.65-.43-1q-13.05-39.37-26.1-78.74-10.39-31.29-20.83-62.56a15.86,15.86,0,0,0-.91-1.91c0-.61.23-1.14.95-.94a13.26,13.26,0,0,1,2,.87,87.77,87.77,0,0,1,22.14,15.29c2.64,2.44,5.06,5.11,7.59,7.67a1.58,1.58,0,0,0,.26.46c5.13,5,9.17,10.9,13.13,16.81a157.09,157.09,0,0,1,10.91,19.3,179.21,179.21,0,0,1,8.72,21.25c1.58,4.69,2.92,9.46,4.36,14.2l.09,1.21h.33l.07-1.21c0-.81,0-1.62,0-2.43Q-436,433.1-436.06,359.84Z" transform="translate(1120.15 -214.77)"/><path class="cls-49" d="M-443.61,558.1c.15-1,.33-2,.45-2.93.41-3.48.67-7,1.24-10.44.78-4.7,1.74-9.37,3-14A190.4,190.4,0,0,1-431.31,508a178.91,178.91,0,0,1,8.58-18.08,178.62,178.62,0,0,1,15.12-23.37c3.61-4.73,7.5-9.23,11.52-13.62a10.77,10.77,0,0,0,.8-1.08c1.08-1,2.18-1.88,3.21-2.88a128.83,128.83,0,0,1,22.33-17.56,88.48,88.48,0,0,1,25-10.73,7,7,0,0,1,.8-.1c-.34.53-.7,1-1,1.6-1.51,2.77-3,5.56-4.49,8.34s-2.9,5.4-4.38,8.09c-3.9,7.13-7.82,14.23-11.71,21.36-2.6,4.75-5.14,9.53-7.74,14.27-3.68,6.73-7.4,13.43-11.09,20.16q-4.74,8.65-9.47,17.33-5.74,10.59-11.47,21.18-1.94,3.57-3.88,7.13-4.41,8.07-8.84,16.14c-.34.63-.58,1.32-.87,2Z" transform="translate(1120.15 -214.77)"/><path class="cls-48" d="M-418.85,558.12c.29-.66.53-1.35.87-2q4.41-8.07,8.84-16.14,2-3.56,3.88-7.13,5.75-10.59,11.47-21.18,4.73-8.67,9.47-17.33c3.69-6.73,7.41-13.43,11.09-20.16,2.6-4.74,5.14-9.52,7.74-14.27,3.89-7.13,7.81-14.23,11.71-21.36,1.48-2.69,2.92-5.39,4.38-8.09s3-5.57,4.49-8.34c.3-.56.66-1.07,1-1.6.57-.11.84.25,1,.7.58,2.09,1.22,4.16,1.68,6.27a110.19,110.19,0,0,1,1.93,32.86c-1.86,22.46-8.71,43.42-19,63.36a177.33,177.33,0,0,1-21.17,32c-.63.75-1.17,1.58-1.75,2.37-.72,0-1.45.07-2.17.07H-417C-417.59,558.2-418.22,558.15-418.85,558.12Z" transform="translate(1120.15 -214.77)"/><path class="cls-49" d="M-506.62,413.9a15.86,15.86,0,0,1,.91,1.91q10.44,31.28,20.83,62.56,13.06,39.36,26.1,78.74c.12.34.29.66.43,1-1,0-2,.06-3,.06h-25.14c-1.63,0-3.25,0-4.87-.07-1.49-2.67-3-5.33-4.46-8a183,183,0,0,1-18.43-50.9c-1-5-1.8-10.11-2.52-15.19-.42-2.94-.53-5.93-.74-8.89-.17-2.34-.33-4.68-.38-7A147.76,147.76,0,0,1-517,450a113.47,113.47,0,0,1,4.49-22.21A85.13,85.13,0,0,1-508,416.19C-507.6,415.39-507.08,414.66-506.62,413.9Z" transform="translate(1120.15 -214.77)"/><path class="cls-50" d="M-310.85,617.85a5.55,5.55,0,0,0-1.43-.65,13,13,0,0,0-2.16,0H-430.91c-1,0-2,.06-3,.09-.81,0-1.62-.06-2.43-.06H-554l-2.44,0a2.17,2.17,0,0,1,0-.51l3.52,0h114.91c.81,0,1.62,0,2.43,0a10.34,10.34,0,0,0,1.53-.3,7.93,7.93,0,0,0,.18-1.18q0-11.52,0-23a7.29,7.29,0,0,0-.31-1.41c-1.08,0-2.06-.07-3-.07H-546.75c0-.58-.15-1.24.52-1.61.07.56.24,1.07.93,1.09s1.63,0,2.44,0H-436.6c.9,0,1.8,0,2.7-.05s2,.09,3,.09h106.55c1.08,0,2.16-.07,3.25-.1a47.06,47.06,0,0,1,3.62,7.79q2.31,5.91,4.35,11.92C-312.26,612.47-311.61,615.18-310.85,617.85Z" transform="translate(1120.15 -214.77)"/><path class="cls-47" d="M-321.12,590.13c-1.09,0-2.17.1-3.25.1H-430.92c-1,0-2-.06-3-.09V575q0-7,0-14.08a2.27,2.27,0,0,0-.74-2.2h-53.41a19.64,19.64,0,0,1-2.17,0,4.92,4.92,0,0,1-1.21-.48l.11-.09c1.62,0,3.24.07,4.87.07h25.14c1,0,2,0,3-.06h14.74l24.76,0c.63,0,1.26.08,1.89.08h33.55c.72,0,1.45-.05,2.17-.07h38.05A128.08,128.08,0,0,1-321.12,590.13Z" transform="translate(1120.15 -214.77)"/><path class="cls-46" d="M-491.44,558.18a4.92,4.92,0,0,0,1.21.48,19.64,19.64,0,0,0,2.17,0h53.41a2.27,2.27,0,0,1,.74,2.2q0,7,0,14.08v15.17c-.9,0-1.8.05-2.7.05H-542.86c-.81,0-1.63,0-2.44,0s-.86-.53-.93-1.09c2.07-3.59,4.06-7.23,6.23-10.76a125.83,125.83,0,0,1,14-18.51,4.54,4.54,0,0,1,3.72-1.68C-512,558.19-501.72,558.17-491.44,558.18Z" transform="translate(1120.15 -214.77)"/><path class="cls-51" d="M-546.75,590.67h109.48c1,0,2,0,3,.07a7.29,7.29,0,0,1,.31,1.41q0,11.51,0,23a7.93,7.93,0,0,1-.18,1.18,10.34,10.34,0,0,1-1.53.3c-.81.06-1.62,0-2.43,0H-553l-3.52,0a127.9,127.9,0,0,1,6.2-18.85c.75-1.91,1.65-3.77,2.52-5.64A12.94,12.94,0,0,1-546.75,590.67Z" transform="translate(1120.15 -214.77)"/><path class="cls-49" d="M-436.59,508.81c-1.44-4.74-2.78-9.51-4.36-14.2a179.21,179.21,0,0,0-8.72-21.25,157.09,157.09,0,0,0-10.91-19.3c-4-5.91-8-11.79-13.13-16.81a1.58,1.58,0,0,1-.26-.46c.8-.49.81-1.35,1-2.13a178.5,178.5,0,0,1,8.71-30.59c5-12.84,11.37-24.89,20.12-35.6a57.66,57.66,0,0,1,8.12-8.63q0,73.28,0,146.54c0,.81,0,1.62,0,2.43Z" transform="translate(1120.15 -214.77)"/><path class="cls-52" d="M-436.59,508.81h.49c0,.41,0,.81-.07,1.21h-.33Z" transform="translate(1120.15 -214.77)"/><rect class="cls-53" x="0.29" y="186.59" width="164.3" height="626.07"/><rect class="cls-54" x="164.59" y="185" width="133.99" height="627.66"/><path class="cls-55" d="M-1120,454.47H-954" transform="translate(1120.15 -214.77)"/><path class="cls-55" d="M-1120,488.08H-954" transform="translate(1120.15 -214.77)"/><path class="cls-55" d="M-1120.15,962.58h166" transform="translate(1120.15 -214.77)"/><path class="cls-55" d="M-1120.15,996.19h166" transform="translate(1120.15 -214.77)"/><rect class="cls-56" x="199.77" y="314.83" width="62.36" height="389.48"/></svg>